<mxfile host="app.diagrams.net" agent="Mozilla/5.0 (Windows NT 10.0; Win64; x64) AppleWebKit/537.36 (KHTML, like Gecko) Chrome/128.0.0.0 Safari/537.36" version="24.7.12">
  <diagram id="C5RBs43oDa-KdzZeNtuy" name="Page-1">
    <mxGraphModel dx="1867" dy="1962" grid="1" gridSize="10" guides="1" tooltips="1" connect="1" arrows="1" fold="1" page="1" pageScale="1" pageWidth="827" pageHeight="1169" math="0" shadow="0">
      <root>
        <mxCell id="WIyWlLk6GJQsqaUBKTNV-0" />
        <mxCell id="WIyWlLk6GJQsqaUBKTNV-1" parent="WIyWlLk6GJQsqaUBKTNV-0" />
        <mxCell id="0LGMieh8fFYEPsuU7eUb-0" value="Persona" style="swimlane;fontStyle=1;align=center;verticalAlign=top;childLayout=stackLayout;horizontal=1;startSize=26;horizontalStack=0;resizeParent=1;resizeParentMax=0;resizeLast=0;collapsible=1;marginBottom=0;whiteSpace=wrap;html=1;" parent="WIyWlLk6GJQsqaUBKTNV-1" vertex="1">
          <mxGeometry x="370" width="230" height="242" as="geometry" />
        </mxCell>
        <mxCell id="0LGMieh8fFYEPsuU7eUb-5" value="+ dni: string" style="text;strokeColor=none;fillColor=none;align=left;verticalAlign=top;spacingLeft=4;spacingRight=4;overflow=hidden;rotatable=0;points=[[0,0.5],[1,0.5]];portConstraint=eastwest;whiteSpace=wrap;html=1;" parent="0LGMieh8fFYEPsuU7eUb-0" vertex="1">
          <mxGeometry y="26" width="230" height="26" as="geometry" />
        </mxCell>
        <mxCell id="0LGMieh8fFYEPsuU7eUb-1" value="+ nombre: string" style="text;strokeColor=none;fillColor=none;align=left;verticalAlign=top;spacingLeft=4;spacingRight=4;overflow=hidden;rotatable=0;points=[[0,0.5],[1,0.5]];portConstraint=eastwest;whiteSpace=wrap;html=1;" parent="0LGMieh8fFYEPsuU7eUb-0" vertex="1">
          <mxGeometry y="52" width="230" height="26" as="geometry" />
        </mxCell>
        <mxCell id="0LGMieh8fFYEPsuU7eUb-7" value="+ apellido: string" style="text;strokeColor=none;fillColor=none;align=left;verticalAlign=top;spacingLeft=4;spacingRight=4;overflow=hidden;rotatable=0;points=[[0,0.5],[1,0.5]];portConstraint=eastwest;whiteSpace=wrap;html=1;" parent="0LGMieh8fFYEPsuU7eUb-0" vertex="1">
          <mxGeometry y="78" width="230" height="26" as="geometry" />
        </mxCell>
        <mxCell id="0LGMieh8fFYEPsuU7eUb-8" value="+ edad: int" style="text;strokeColor=none;fillColor=none;align=left;verticalAlign=top;spacingLeft=4;spacingRight=4;overflow=hidden;rotatable=0;points=[[0,0.5],[1,0.5]];portConstraint=eastwest;whiteSpace=wrap;html=1;" parent="0LGMieh8fFYEPsuU7eUb-0" vertex="1">
          <mxGeometry y="104" width="230" height="26" as="geometry" />
        </mxCell>
        <mxCell id="0LGMieh8fFYEPsuU7eUb-6" value="+ sexo: string" style="text;strokeColor=none;fillColor=none;align=left;verticalAlign=top;spacingLeft=4;spacingRight=4;overflow=hidden;rotatable=0;points=[[0,0.5],[1,0.5]];portConstraint=eastwest;whiteSpace=wrap;html=1;" parent="0LGMieh8fFYEPsuU7eUb-0" vertex="1">
          <mxGeometry y="130" width="230" height="26" as="geometry" />
        </mxCell>
        <mxCell id="0LGMieh8fFYEPsuU7eUb-2" value="" style="line;strokeWidth=1;fillColor=none;align=left;verticalAlign=middle;spacingTop=-1;spacingLeft=3;spacingRight=3;rotatable=0;labelPosition=right;points=[];portConstraint=eastwest;strokeColor=inherit;" parent="0LGMieh8fFYEPsuU7eUb-0" vertex="1">
          <mxGeometry y="156" width="230" height="8" as="geometry" />
        </mxCell>
        <mxCell id="0LGMieh8fFYEPsuU7eUb-9" value="+ saludar(): void" style="text;strokeColor=none;fillColor=none;align=left;verticalAlign=top;spacingLeft=4;spacingRight=4;overflow=hidden;rotatable=0;points=[[0,0.5],[1,0.5]];portConstraint=eastwest;whiteSpace=wrap;html=1;" parent="0LGMieh8fFYEPsuU7eUb-0" vertex="1">
          <mxGeometry y="164" width="230" height="26" as="geometry" />
        </mxCell>
        <mxCell id="0LGMieh8fFYEPsuU7eUb-10" value="+ obtenerNombreYApellido(): void" style="text;strokeColor=none;fillColor=none;align=left;verticalAlign=top;spacingLeft=4;spacingRight=4;overflow=hidden;rotatable=0;points=[[0,0.5],[1,0.5]];portConstraint=eastwest;whiteSpace=wrap;html=1;" parent="0LGMieh8fFYEPsuU7eUb-0" vertex="1">
          <mxGeometry y="190" width="230" height="26" as="geometry" />
        </mxCell>
        <mxCell id="0LGMieh8fFYEPsuU7eUb-3" value="+ modificarEdad(int): void" style="text;strokeColor=none;fillColor=none;align=left;verticalAlign=top;spacingLeft=4;spacingRight=4;overflow=hidden;rotatable=0;points=[[0,0.5],[1,0.5]];portConstraint=eastwest;whiteSpace=wrap;html=1;" parent="0LGMieh8fFYEPsuU7eUb-0" vertex="1">
          <mxGeometry y="216" width="230" height="26" as="geometry" />
        </mxCell>
        <mxCell id="0LGMieh8fFYEPsuU7eUb-4" value="" style="shape=image;verticalLabelPosition=bottom;labelBackgroundColor=default;verticalAlign=top;aspect=fixed;imageAspect=0;image=data:image/png,iVBORw0KGgoAAAANSUhEUgAAAeoAAADeCAYAAADy8UM1AAAAAXNSR0IArs4c6QAAAARnQU1BAACxjwv8YQUAAAAJcEhZcwAADsMAAA7DAcdvqGQAAGzXSURBVHhe7d0JfAzn/wfwT3Y3m819ORKCyElcQVyNoujP3ajWVRKKUlcdRUuLoqT1c7SOVuVfItRNf6JRbdwVVVKRiERCJKGJUERF2N3s7vc/u5lcRA6i3fJ9vzqaeWbmmXmemZ3vPLPPzpiQAIwxxhgzShLx/4wxxhgzQhyoGWOMMSPGgZoxxhgzYs8kUGtiN+GL8FRoxPF/Lx3UyvtQPcuC6NRQ3lc9B3XF2KN0aiXuP9MPEPt7aKG6L5wLteIo+1s9faDW/YWkn9Zi+Y5EMUFgqcHx93tizO5MIdQ9hZwEfP/5BAzq2QWvdOmDoVNX4ECaSpz4N1Adw7RGjmj/WYJwmD6hcsqgOjYNjRzb47OEv/sToEPWvkV4d9QojDIM7+CdMRMxY2EIIi/dE+dh7GmocGxaIzi2/wx/++GtTULYxMGYsTP9yT+7xWiTwjBx8AzsTH+BIlXxOry/GQMdHNB/Y444kf2dnjhQq6/+gnVzgtDJsy4a9RiHZQeuiFMAmUcQvln6Eo68NwmbM54sVOtu/IgpHdohcG0SbFt1Q68uDUHHPkWvl97ENxf+HVfoxl0GQnbMHqzbcgLXJTLIZFJItdlI2DUbfXzbCBdZGU93kcWePeFEumHiQEzdklolwei5Qg9wOyMT17KVYsLToQe3kZF5DVWTnRZJGyZi4NQtSP1HdlwF11/FdcjH61PQ/zyr8jR08b/dyLvDUJr11f/RhBZm5DJ6vzhNpEmiJS9bk8/0E6QUkyruHkWOrU/yeoG0I1MrpgnuHqb3vEzJKeh7uismPVPKwzTRTUF+C84LJa6sipVBeXgiuSn8aMH5yq/h6Wgo4dPWJK/5NoU/EJP0NGm07vWaZOo1hX5RiWnMOKmiaJq3gprNjqE8Mcm4KOnwRDdS+C2gv/3wNmoqiprmTYpmsynmH9lxT7D+3DAKMDOjPuuf4sxr9Mer8XrCFrUUblP34cLRjVg4uhPqmpuI6cVIPTBgQGukb9+IXyp7QaY8jC3fZ6Dx29PR17nYJlq3x4j3BqGF6Z/4Q2iQKiOmoJXfcMyc2Q2eDvbo/MVlw2zKxK2Y2sMHTtaWsK/jh/4LDyKrsHmoROLWqejh4wRrS3vU8euPhQezKth6VCN1z2z086sHe0t93i3Qb04ErpR2eVjBMjxMnboHs/v5oZ69JSzt66BFvzmIKLaC3HOhGN+1AWpaW8Cmpjc6jwlBTLG7UWWXvQKk9fBmQBtI084h7rZ+wbLqS4mIKa3gN3wmZnbzhIN9Z3xxWVvuNubGb8Sk7o3gbGMJG6eG6DI2BL//JU5URmBKa39MWvk1xnTygKNQz46eXTF9z9Wiq3B1KvbM7ge/evaw1G9Ti36YE3GlAlfpOlyLnI9+vrVha2mHOq0GY8HHgfDrOi9/8r3vMb5la0zdV3TAqk/MQ9eWgVh/VaxEZSK2Tu0BHydrw/7x678QBx9bwTrcOfU1RnXyRg1hf9i5NEPvGduRVJB9bjw2TuqORs42sLRxQsMuYxFSWBH6qpiC1v6TsPLrMejk4SiU1RGeXadjz1UtVIc/QocWgxByUYlzK16Db8ePC5Z6/P6qSN3qsnDw0zfgW9sGVvZ10TpwCRa90xqd5/6SP/2J6z5fmfteUN6xU0LuOYSO74oGNa1hYVMT3p3HIKRgZvVpBHdviUFrL+dvWznluvf9eLRsPRVFu16NE/O6omXg+vyx08Ho3nIQ1grHt0FZx0FZ9aw6jI86tMCgkItQnluB13w74uMj+V+Flf3ZzcW50PHo2qAmrC1sUNO7M8aExOBxVfPY88jj1q/f5lZ+GD5zJrp5OsC+8xe4/OChOgQh58yXeKtVHdhZ2aJ28zfwaeG54B6+H98SrYW4UFSFJzCva0sErr9axvGai/iNk9C9kTNsLG3g1LALxob8jqJDoqxyqxA1vwv83liNhOe9G4QYsJ+c5hIt9lc82qIW5MXMIV9FQ5pxsnJNM82lxeRv5khDdxdv6j0q97t+ZGkipZovj6dloVsp8vxd0t4Mp5FuVuQ1+Evad+osHd84nlraOlCPNanCElq6GT6S3Ky8aPCX++jU2eO0cXxLsnXoQWtSS7nkf6hFnXd6DrWwcKb/zI+guJRLdGrzu9TMwo56hfyRP38xFS1DiRZ13mma08KCnP8znyLiUujSqc30bjMLsusVQn/oG+WqEzTDx4zqBCyln8+ep+jwBdS9lpzcJxykXGFy2WV/2GNa1MLVdswcXzK1G0jbcsqrr1z6rp8lmUhr0svjl1Ho1kg6f7OcbczaSUF1zck1IJjCT8fTmX3LaICnOTn1XUf5WX5H/SxNSFa7K3289TidPR1BwT1rkWntUbTPsJ15dHpOC7Jw/g/Nj4ijlEunaPO7zcjCrheFGCrp8TSXVtGrdmbkMeAL2h8TT6f3LKLedaQkdRmdP8OdddRbYUVvbNZvaT7l/tHkovCnxZeEjdPepPCRbmTlNZi+3HeKzh7fSONb2pJDjzX52/4QbXoove5kSY2GfU0HzsbTqf8toJ4uFtRw6lF9RdDOoLpk7hpAweGnKf7MPlo2wJPMnfrSOjGz/ONbRrW7fkxbj5+l0xHB1LOWKdUetY+0t5Lo5OEV1M/JlOoNWUtHTibp11j2/iq3bjWU+k0vclR4UP/l+uWjaPvsruQslZDzyAhhemXrvmSLutx9X87xXZKKTszwIbM6AbT057N0PjqcFnSvRXL3CXRQP3OJz2555dLv+t6ksHqDina9kvaPdiGF/+L8seKf0/KOg7LqOfcWJZ08TCv6OZFpvSG09shJSrqtLfezqzoxg3zM6lDA0p/p7PloCl/QnWrJ3WmCobAPKes8klf6+gu2WVrzZRq/LJS2Rp6nu8Xr0NCiBklrd6d5u36lWKFMS/rVJ3m1AFp3Rb/v79C63gqyemNz0b5S7qfRLgryX3zpscdr1s4gqmvuSgHB4XQ6/gztWzaAPM2dqO+6VMM5t+xy59HZ1UEUMOE7StHP/Bx7poGacjbS65YWFLChcrdL8s7OoeZyFxq9v+yb5oYTmfwVWlF4ktDQ5eWdyNI5kHZni0nCYbN/jHBCbL9EmHyZlneyJOfA3VQ0eT+NEU4e7ZekiAnFPBSoVSlHaNuO45RecFBoLtLnL5lR7Xd+FBOKVLQMJU4AqhQ6sm0HHS9aAV38/CUyq/0O/ajPJns99TG3oG5rrgmHeP70lIgVtDjsJN3WllP2R+QHalPTl2j6rnAKDxeG3Vvo69lvUEMrBXlPjKQ75dZXfqCWv7Ii/0JCr5xtTFrsT+bOQ2jnbcNEg5z9Y8jVrCl9FJ0nZKk/Ycip88pMcXmiBz+MICezdvRZkmEvUMqRbbTjeLphn+hpLn5OL5nVpncMlfQ4Gjr/aSsycxLWXVgYDcXP9yOzCgZqzeXl1MnSmQKLKliojjHCiaY9LXnkTKFfX2tS1BX23T0xSUi7vGEMdX97LWmShAs5c2caUrIiaIyrGTX9KNpwazD/+O5MKwu/OnlAP4xwIrN2n+WPPnwrsbz9VV7dapKE41lBNd7aQYVblRdHn7SUiwGtsnVfPFBXYN+XeewYEorJpvV9zMmi2xq6Jk7TpETQisVhdFI/c/HPbrnlqlygLvc4qMAxXPLWc/mf3ez1fcjcohutKSosRaxYTGEni1VmgfLOI4+sXyBu8ysr/ijc5hJ1aAjUcuqyqqhM2hsb6HU7c3rly3QhrexAbfDI8ZokxA5zch6ys2i/UI5Qblcya/oR5R8SlSj3c+zpe32XRWYDG0st7mbfERMqxsTUFFITHbQVuZ8msYK1TUEx8nA2Og4qyVVEzJ2MyZP1wyzsSNZBk5okTD6L6DgVJFcjMNcwTRhm7UCyToPUpGQxj8eTu7VH+xqx+GLIq2jXvDF8fDph4ck8YTsf3dBKlaGA3A3t29dA7BdD8Gq75mjs44NOC08iT8hEq3/Qq003jAhyRdRUP7R9fTQ+XvE9bvqOxvTANrCXlFP2x9HGYsPU9/Dee5MwafpcrDmkQaf5PyByWVfYVrC+JFbWKNwFZW6jStjGeJBvR7xiL84vsPLvgBbyZJyJuSumSGBpZVXY09HEXAEF1FDn6StBDrf27VEj9gsMebUdmjf2gU+nhTiZJ9SRoZIeJw9JFy4DPm3xko2YJFAozFDKFzelyjsbjTiVBFcj5or1OxmzdiRDp0lFUvLD995UOB8v1JFPK7S2FJMgRf2gNfhx3TtQCXnFky86lqwIdGghR/KZGBTUBCSWsLIqrAmYKxSAWi2OP6RC+6uMus1LQuIlgk/rNrAVp0Mi7FvLgrmftO71KrDvyzx2xAUK2aDbiCC4Rk2FX9vXMfrjFfj+pi9GTw9Em4dnLrdclVOx46CsY/hh5X92bbqNQJBrFKb6tcXroz/Giu9vwnf0dAS2KVaZBco7jzyWBFbWNoXb/CgTWFgWlUni4IcWHjqkJCYLJXgCKuF4jSf4dnwFRaWwgn+HFpAnn0H+IVGJcj/HnuxIrTAddEKgMpHKxPGKkdZ0Rk1pNjIzin15ZaBD9vlD2BMZhz9L/VpQB6VSOImZyiDRaqDR5A8KnwCMCeogTFYif7IEWnGaRqOAT8AYBHVwEfN4vPvHZ6F7r0VI8Hobn63fib37tmGSn6k4taQnKsP945jVvRcWJXjh7c/WY+fefdg2yQ+Fa5A4o++a33H+58/R3yMPMRsmoVOD5hixJQ3a8sr+GCbVB+D/LqQiNfUyLl9Kwtnj/8NXU7qgjn6XPUl9lbmNMOQBmWlRmfQkMphKyLCO8t3H8Vnd0WtRArze/gzrd+7Fvm2T8JjdUIL+gkp/ASUU54nolErhVKtfXltYvxqFDwLGBKGDi1Scq4hWI5RYJhPCcyn0y0Iod8mKEKpGAtLvv1KP73I85fGt7w2s1ZlAWnKjinnyutcrd9+Xc+yUJIFz3zX4/fzP+Ly/B/JiNmBSpwZoPmIL0h6ZubxyVU5lj4Pylf/ZlTj3xZrfz+Pnz/vDIy8GGyZ1QoPmI7Dl0cKWfx6pMvnHr1bY5iejL6f+kCi5ZRLhGJGQvm51lSv3c+zZBuoHt3H7gTmq1yy8jq0YO+Gqu6UJft27F5nFT1i6G/j+w34YvOgQcku9MpShvpsLJKaNMHTpKqxaVTSsXDRUmFwfbi4SmDYaiqXFpq1atRKLhjYW83gcNWL3hCPZNQgL5ryFjr4N4O7qCMXjmmNPUAZ17B6EJ7siaMEcvNXRFw3cXeFYbAXaywewbm0kcpoPwfT/rkfE6Ths6nsXm5eE4rymnLI/iSeor7K3UQ7vhu6ghBicKdbBUJMQiwRlLXh5V+A4UcdiT3gyXIMWYM5bHeHbwB2ujooKtIr19VMXlByP+GI/xdfqdCjcDcIFpcxEaMUUi5LaG9fxp3hOkNV3g4vEFI2GLi1WF8KwchGGNn74YlQGNw9hfSkXkCicg/Pp8OehLzB90R7IvRvCnRIQU7IiEJugRC0vb9g+ySfzqY5vgcwN9esQLickCEe7iDRFrcAnrnu98vd92ceOuEAB7WUcWLcWkTnNMWT6f7E+4jTiNvXF3c1LEPrwzOWVSyAVLqhMdELgKNz1Wty4/mcpFwiVPQ4qorzPrhaXD6zD2sgcNB8yHf9dH4HTcZvQ9+5mLAk9n59FMeWdR56G4WKrgPICLqQBddzqCyWQCtekJtAJ04uq8AauF3x4SiP3RkN3QkLMmaIOaELwTohNgLKWF7xthX1WiXI/z55poFZfSMQl8kazJmZiSgVJ3fD2h4Go/vNsDF/4E9LuC2nq6zi5ZiIWRloJV66DULfUC1c5/AKD0DIrFNNm7UWafu+rriJyXl90n3VEmOyHwKCWyAqdhll70wwHh+pqJOb17Y5ZRx7Xf7KAFDWca0CSfgThJ65DrczE8VUz8U10HjR5pdz4eYIySGs4o4YkHUfCT+C6WonM46sw85to5GnyDLeW6MEprJ0yAlNW/oZbwvGvy81A+nUlZLYOsJGUU/Yn8QT1VfY2yuAbOBL+t8Iwc8EBZApnTc2NKHz+QQhSmwzHCP8KHCfSGnCuIUH6kXCcuK6GMvM4Vs38BtF5Ghh2g+4W9n86ElM3JOTPX0iGZm/2Q+Os7zDv8yhD8FVd/QkrNkUXPRVO7gUv1zz8tmszkoT9pb5xEmt3FE2X+wUiqGUWQqfNwt78CsbVyHno230WHq0OOVoMfgu+f4Rh/qpoZAsXBPcu/Q9zp8zGjlThgsA3ECP9byFs5gIcyK8IRH3+AUJSm2D4CH9U6BMjsYSFBSE74wpy9N+xPNXxLZD54M03fHF98zwEH8mCWpeL5F3BWHdaPL7Lq/sylb/vyz52xGwK0AOcWjsFI6asxG/5MyMj/TqUMls4PDxzeeUSyL284Jr3G3ZtTsJ9IZzfOLkWO6IfvjrIV7njoDQSWFpYgLIzcCVH39ov77NLeHBqLaaMmIKVv90SwrYOuRnpuK6Uwdah2Pc4ovLOI4+u35BYAWocWTETO5JzoVNnInLBIuzOaYV+AR7C2VEOLy9X5P22C5vzPzw4uXYHSlThw8erzBeBI/1xK2wmFhzIFHLX4EbU5/ggJBVNho+Av1l55dbhdvR2rPshEbn5a3h+id9VP7nHdibTUMLC1mTRYi7FFnRYqJQHlPjdeHq5tjlJZHKSm0rItFpzGrLiZGFHGUNnG0UfKvnTvjy6vGsqdXIxJ1NzW7I1NyOHpkPoqzM54uTLtGtqJ3IxNyVzW1syN3OgpkO+ooLJJTzUmYzu/kqLe9YjcxMTMjExpWp+QTS4rRXJS+2spVd+GUr+jvou/bq4J9Uz1+dvIszrR0GD25KVvKCzUi7FhQyjFtXkJDWzJAtTU7JrPIhWnynorVRO2Ut4XK/vh5RZX/mdyRR91hf7XXt526ihK3s/pM51hG1UWJG5qRk5+0+kbZfEXwYYOrUoSvxeU3lwHLmataT58fkH0t1fF1PPeuaGOjIxrUZ+QYOprZU8v8OU5jItaW9OHpOOGuYt6R7FrO5PXlZSMrUQts2uAXVq40KmBZ3JSEtXdoymJrZSkgjbbapworZdW5KjmdjrW5B3eRdN7eQibLc52dqak5lDUxry1RkqrYb1nXaSvnuXWtc0E/aHUF6ZLTV88ws6eSd/qubKXvqwcx0hLwVZCfVr5uxPE7ddEpbK9+jxraSD41zJrOV8cVxF0QtfIjuJCUntB+cnlbW/KlC3lBtLawZ6k7VUOFYN+64HdXI3pVpip6sy6/4RD/+Oupx9X+6xU1JuXAgNa1GN5FIzsrQQ9pddYxq0+oywlwUPf3bLKRdpr9CO0U3IVpyucGpLXVs6kllpvb4FZR4HFahnVfRCeslOQiZSexq8Pb8Hc5mf3dw4ChnWgqrJpWRmaSFsox01HrSaSq+a8s4jpay/lG1+pDOZuQO9EjiQfGyFuhbOZVJrbxr0zTnhLJdPe2UHjW5iS1KJfrqCnNp2pZaOZkWdyUo7XjVXaO+HnamOcLwqrISymzmT/8RtVHRIlFXuu7T5TVuSuU2kI5X7YdG/ztMH6sd5EEXTGznQq6vzu9k/MU0OZV6Io9iEK5RdmYCvuUsZiXEUn3JTOF08SnM3gxLj4inlZlk9hUuTR9npCRR/8XrhAVquSpYhLzudEuIv0vXHrUB1m9ITHl+28sr+JCpdXxXYxj8Sz1FCenZ+D9DKyssW8o+niw9XUs7/aFgtO3ptXZaY8CjN3T8oMf4CZd7Lo0uL/UlRGKjzaXOE6XHnKe324z79GrqbkUhx8SlUoeoQ6iJN2Naka/eKetQWEvL6I5HOJaRX7vguJByPqfF07tINcTzfkx/fSlIq9dskHONJ1+ie8jhN9TKjhjNOitMFj6v7iipv35d37JSgotvC57H8fVGBcgl7J0fYF3Hn0+ixu76ESh4HD8nLTqX4c5foRvFly/nsqm4L54YK7tfyziOlrr8CtPcy6UJ8Iv1xt5QzuzZH2LdxdD7tduEFZ0mPO16Fz9y5BEp/zIfgceXW3rlClzKLfqXxvDLR/yM2rquQGglLu6Hz1g4I/2UeWivEZMaesXs/TUDHhdWxev9ctLUQEx9Li5T/dkTjFY3w4Oo3YtqLTIer3/ZD19C6mDpzCF5yUSHm2xmY/K0GEw9HYV6rSn6FZTSe13KxF8UzCdSq4x+i7dsX8O6e7RjjIxdTGft76L9yq1jnCy0uL3kFTVc1wr20r8W0F1xOHL779BN8ue0wzv9pgmoNX8GwOUvw8Wv18a/+JD+v5WIvhGcSqHXXYnFG1QB+rnylyhhjjD2NZ3TrmzHGGGNV4Zn+PIsxxhhjT4cDNWOMMWbEOFAzxhhjRuzFDNS6LOwd1xg27l0w4p138O7EGZi/+nucfehxd7qsfVj07lgs2nfN0JO4iA5Z+xZh7LQN4rj+8borMHbsFzh2T0xgjDHGqsCLGagpG3G/J+MBpJBKpdDdu4wjK0eirc/LmLEvszAoU3YM9qxbgzmjp2NX0RvcBYQ7seFYv/kXcRxQJ/2E9ev3I/GBmMAYY4xVgRf41rcJHDtOxMo1a7B2/U4cOh+PnQPvYfWwMfi2xJtZJKBr2zDtwz24UeFn4jLGGGNVg7+jLiCthd6fLcJgs0isXhdX9KIGE0f0GNYLeZunYda+Ww/dAmeMMcaeLaMN1LmJWzDttVZo2KA5uo7+Cr/d/htCpFV7dPCTIenUKRStToIaAYuxqFcuNk6djZ+zxWTGGGPsb2CcgTonEtP7DMOyvdG4kHQWB0Mmos+ojch45rFaATt7S+ju3EZ28cfASOoicOl8vJq9DpPnHsRfYjJjjDH2rBlloFbHRCAyPa/ohf7Q4WbkXhzTv6f1GctT58HETAGzh96zLnUbiS8+6Yg/Q97D/KMVeuksY4wx9tSMMlBLq9eEo6RkpJRUq4maUnHkWdFeRmJyLuzqu6PGIzUjhceYLzG7XSa+fm8hTiv5yauMMcaePeMM1N6jMHdCc9iJwdrEwhOD5r+Pjs/4HR/ZB1ZhY1wN9HyjI0p9Q6KsASasmIVW6aswc10adyxjjDH2zBnnd9SS6uixNAqxUbsRFroNh2JOY1Ogm9CmrUqE+3+m42JSEhJjf8GuZaPwnyGh0A5agnm9bMV5HiVrPAkrZjTHXxk3UPLxKCXdi9+Db3fF4A5Hc8YYY0/BOAO1gQJ12/ZF4LAB6OT1+MD5NHJ+mIimDRuiabsATNmYiVZz9+OXdQNRp8xakaPZ+yvwvp8FHvoauxgVolZOwLujl+LQ3/C9OmOMsecXv+byWcnNRModa9SvbW3MV0OMMcaMHAdqxhhjzIhxY48xxhgzYhyoGWOMMSPGgZoxxhgzYhyoGWOMMSPGgfofoYXq/n2oyvohNmOMMSZ4MQO1Lgv7Fr2LsYv24dpDDyTRZe3DorHTsOFc4Ysuq979zRjo4ID+G/mZ4Ywxxsr2YgZqykbMnnVYM2c0pu/KKvEoULoTi/D1m/HL1WcYqBljjLEKeqFvfUvoGrZN+xB7bvBzPhljjBmnFzhQm8CxxzD0ytuMabP24VYZsTo3fiMmdW8EZxtL2Dg1RJexIfi94KXUynC85/cSxny6AIP86sLe0go1GvbCnB8v4MTKYWhX3x6Wlo5w7zAWm5LU4kJ6hJwzX+KtVnVgZ2WL2s3fwKcHC1r3SkRMaQW/4TMxs5snHOw744vLWiE5EVun9oCPkzUs7evAr/9CHMziiwzGGHueGW2gzk3cgmmvtULDBs3RdfRX+O121QckSY0ALF7UC7kbp2L2z9liakm667swrtcYhCsCsfbQKRxdPxrVDk5C7+HrkabvDKb7C1fiT2LTlkvosPB7HD20CWNrR2Nhz0bos6063tt0FMf3LsRL19dj4odbUdR4V+OX3VFoMHMHjh3ZgqluMVgw6F1suKqfQYe/riTizKb1iPIch+VrZuE/jnewd0JvvBNhj3fXH8KJH4LRNvW/GDAiJH87GGOMPZ/0jxA1Ond/prHupmSib3YaBglVfz2U/tCK05+WJoE+bS2nmm+H0wNNCn3TqxqZeU+kA3eESYmLqI2ZM42MeKCfkZIW+5O58xDaeTt/Ub2c/WPI1awpfRSdR5QbRgFmZtR7nbCw6MHet8lJVoOG7dHnoZdHZ+c0JzOPSXRMJYwalpFTl1WZVFAk7Y0N9LqdOb3yZbqQlkvf9bMk+SsrCsusubycOlk6U+Du7PwEQa6wHXXN29OSFI2Ywhhj7HljlC1qdUwEItPzDFE6nw43I/fi2LN4E5XUDSO/+AQd/wzBe/OPomQ/bBXORseDfDviFXsxSWDl3wEt5Mk4E3NXTBGykZmKf+nfn20OhdQVXl4FaSZQmJvBRK2GurBQJrCwtCq8pSFx8EMLDx1SEpORV5BmZQ0bcYa8s9GIU0lwNWIuJk+ebBhm7UiGTpOKpGTu+MYYY88rowzU0uo14Sgp+RJJSbWaqFm1L6QuJPUYgy9nt0Pm1+9h4WllsQsEQKMRgqAQhIvCsEAig6mEoNVP0zMx0f9Xkj5N/LNihDyFlWi1pQddnVIJtbAVMonWsE2GQeGDgDFB6ODyjCqGMcbYP844A7X3KMyd0Bx2YrA2sfDEoPnvo6OZYfQZkKHBhBWY1Sodq2auQ1rh98hyeDd0ByXE4Eyx1rwmIRYJylrw8n6692QbLgIKKC/gQhpQx62+sDWPktV3g4vEFI2GLsWqVauKhpWLMLRxaUswxhh7HhhloIakOnosjUJs1G6EhW7DoZjT2BTohmfabpQ1xqQVM9D8rwzcKOycJYNv4Ej43wrDzAUHkKkWguuNKHz+QQhSmwzHCP+nuXJQ48iKmdiRnAudOhORCxZhd04r9AvwKLWccr9ABLXMQui0Wdibpr9qUOFq5Dz07T4LRwz36+8hfs+32BVzp8TvwhljjP27GWegNlCgbtu+CBw2AJ28nq7lWlHyZu9jxft+sCh2z1rqPR6hG9+F+cbX4GprDRuXLlitGoRvt36I5nJxpichsUdb3zv4pLU9FFZ10OOrO+i59GtMbPiYyxFZE0z/LhQjLbdjoJcD7Ozs4TloN6wC+sPPWpiuisLKCe9i9NJDeBZf5TPGGPtnmOh7lIl/s7Joc5BxMR13LVzgWdeu1NvTT0KXew0X0/6CVV1P1LauyD0DLXIyLyItW45aHm5wLNaoz81MwR3r+kI+Rnz9xRhjrFI4UDPGGGNGjJtejDHGmBHjQM0YY4wZMQ7UjDHGmBHjQM0YY4wZMQ7UjDHGmBHjQP0s6dRQ3leh4PljOrUS91WlPyK0NBrVfdxX86uxGGPsRcaBWhOLzzp44bWQS6jqkKg6Ng2NHNvjswR9ziocm9YIju0/g2FUm4SwiYMxY2d66evVpmB5Fwd4jPtJTGCMMfYieuEDtfJYCNaeuIT9q8MQV/HG7tOjB7idkYlr2fwcMcYYY4/3ggfqe4jc9D9kN38JPpe2YdNvKjH9byDzxeTdR7HxHe9n+wxzxhhj/2ovdqC+/QM2/aDCq5O/xjsvZWHXxiO4L07SU4a/B79O72HxpwPh52IHS1sXtOi/CIevF3vthTIRW6f2gI+TNSzt68Cv/0IczKrAazHUpxHcvSUGrb2cf+tbdx2Hg/ujRW1bWNnXQ5ugbxB3r+RD43LjN2JS90ZwtrGEjVNDdBkbgt//Eicyxhh7LhltoM5N3IJpr7VCwwbN0XX0V/jtdlW/E0qHrP9txs+SbhjYuxH6DXgZf+3ZhP3FAp/uryuIP7YW/xfXGp/sPoaD60eh+olPMODdMGToN0d3C3sn9MY7EfZ4d/0hnPghGG1T/4sBI0KQVt4X3pSLaxcTkHJDf+tbi/R1ozBgfiw8p2/F4SNC2d1jcDC+6F687voujOs1BuGKQKw9dApH149GtYOT0Hv4+vLXxRhj7N9L/6xvo3P3ZxrrbkomwubpN1G4nqDqr4fSH1pxelXQptGKLtZU++1wytGP3gij1x0c6PWwG1SwmtywADIz60Eht8QEYcofa7qTtXkXWnlFS5rLy6mTpTMF7s4WpwvL7B9Ddc3b05IUDSkPTyQ3hR8tOK8Rpijp8EQ3UvgtoPzRwzTRTUF+C86TRnOBgtspyDlwNxXmlBdDs5vJyXlkhDCioaTF/mTuPIR23s6frJcjrMvVrCl9FJ0npjDGGHveGGWLWh0Tgcj0PEOUzqfDzci9OFaF/a60yVuw5YQ9eg3sAithXFK9Nwa+KsXBzbtxrUTjXQaZqfgnJKjZrjU8dJeRlJKHvLPRiFNJcDViLiZPnmwYZu1Ihk6TiqTkSvRMy0tEQjLg06YtbMQkmFjD2qrgfZsqnI2OB/l2xCv2YpLAyr8DWsiTcSbmrpjCGGPseWOUgVpavSYcJcVeCi2QVKuJmlXW60qDc5u3Ilp5A9uHe6BWrVrC0AgTIu4g52AYvrv8+HvJJkLUlgoXDlphFp1SCTVMIZNoodFo8geFDwLGBKGDS2U2VlheyE9mKnvsDtHnrb9iKLxm0JPIYCohaPXTGGOMPZeMM1B7j8LcCc1hJwZrEwtPDJr/PjoWe/fyU1H/hk3bEmDXex42bwxDWFj+sGXzB3jZNBrbNycUPqTkYfcSEpAGF7jVF1ra9d3gIjFFo6FLsWrVqqJh5SIMbVyJN1bL3OFRj3DpfILQdi6ghjpP/BNyeDd0ByXE4EyxuwqahFgkKGvBy9tWTGGMMfa8Mc7OZJLq6LE0CrFRuxEWug2HYk5jU6Bblf2M6f7RTdiZ5o1Rs6eiR9eu6Fow9PkIc4bXwrlt3+F3tThz3gmErYjCDSFyqzN+xCfB4VC17Yc+9aSQ+wUiqGUWQqfNwt40fQRV4WrkPPTtPgtHcvIXrxBZY/Qf4IusTXMRfDQLal0uknctQdiZgkgtg2/gSPjfCsPMBQeQKWyb5kYUPv8gBKlNhmOEf/4VzL34Pfh2VwzuVHW/O8YYY/8Y4wzUBgrUbdsXgcMGoJNXVbYY/8LPm/bgWqN+GNj84VavAi8Pfh2ul3ZgU5TYdJXWhPTXEfC2s4adax98e/81LFs9Dt76qwZZE0z/LhQjLbdjoJcD7Ozs4TloN6wC+sPPOn/xipGhydT/w/Ju17GsS21YKezR5tNcNGxcdKNb6j0eoRvfhfnG1+Bqaw0bly5YrRqEb7d+iOZy/RwqRK2cgHdHL8WhKvwunzHG2D/LRN+jTPybPeT+xr5weEeHNX/+D2/eu4j0v6xQ17M2rB9p2muRk3kRadly1PJwg+MT36IX8slIxpVce7h6OcFSTC1Bm4OMi+m4a+ECz7p2QogvJjcTKXesUb+2tTFfgTHGGKsEDtRlKArU4RheqRYyY4wxVjW44VUWEwmkUglMSnZAZ4wxxv423KJmjDHGjBi3qBljjDEjxoGaMcYYM2IcqCtBo7qP++qneAOGRoX79wt+oM0YY4yV78X8jlqXhX3BH2Hpgauo5163xNWKzK0fPvmwJ5wevoTRpuC/HRtheYPdyPy/nmJiZWiR8t+OaLS8AZSZ/yemMcYYY2V7MVvUlI2Y8I04dgWQymSQFRukUu7izRhjzHi8wLe+TeDYcSJWrlmDNcWG1R/0eLQ1zRhjjP1DOCQ9ju46Dgf3R4vatrCyr4c2Qd8g7l7xbwnUSN0zG/386sHe0hL2dVqg35wIXCn8CluH64eD0b9Fbdha2aNemyB8E3ev2Ks7GWOMsfIZbaDOTdyCaa+1QsMGzdF19Ff47fbf+aYJLdLXjcKA+bHwnL4Vh48I2+Ieg4PxRe/U0kQvxJtvfYvcgK9x7Fwcfl7cBpeXDsW49RmG6dr0dRg1YD5iPadj6+Ej2DLNHTEH4x/7Vi7GGGOsVPrOZEbn7s801t2UTITN02+icD1B1V8PpT+04vSnpUmgT1sL+cvMyMLComiwbU/BCRph+gUKbqcg58DdlC0uQnkxNLuZnJxHRhhGVSlHaNuO45QuzG6guUifv2RGtd/5UT9CF4LbkcI5kHYXZUAxs5uR3HmkOM4YY4yVzyhb1OqYCESm5xW7TazDzci9OFbFb4VSdJqHyKNHcbRgOLgWw+tLgbxEJCQDPm3awkacFybWsLYq6mgmd2uP9jVi8cWQV9GueWP4+HTCwpN50Gr1977zkJifAdoWZQBrayvhX8YYY6zijDJQS6vXhKOkZEiTVKuJmlX1QmoDE9jU8UELPz/4FQwtG8JJoZ+mhUaItzJT2WMr6P7xWejeaxESvN7GZ+t3Yu++bZjkV/RaSm1+BpBxLwDGGGNPwTgDtfcozJ3QHHZisDax8MSg+e+j4xO/PrKSZO7wqEe4dD4BKjFJ33lMnSf+Kfwduyccya5BWDDnLXT0bQB3V0coCq8tZHD3qAe6dB4JRRlAXZQBY4wxViHG2d6TVEePpVGIjdqNsNBtOBRzGpsC3VClDWoQ7v+ZjotJSUgqNiSn/QmlrDH6D/BF1qa5CD6aBbUuF8m7liDsTEGglaKGcw1I0o8g/MR1qJWZOL5qJr6JzoMmTz+PDI37D4Bv1ibMDT6KLLUOucm7sCTsDIpC9T3E7/kWu2Lu4O/sJscYY+xfRvyu+sUidibTF//hQeY1hX5RCfM8OEdrBzcga6mETE1Nya7JQArwNSvsTEZ3f6XFPeuRuYkJmZiYUjW/IBrc1ork7ZfkT6cHdG7tYGpgLSWJsLypXRMaGOBLZgWdyZT7abSLjByG7KLc/BTGGGPsEfyayzJpkZORjCu59nD1coKlmFpEgztXLiJD7Qh3jxowfL39EG1OBpKv5MLe1QtOD2WQm5mCO9b1Uduav8hmjDFWOg7UjDHGmBHjphxjjDFmxDhQM8YYY0aMAzVjjDFmxDhQM8YYY0aMAzVjjDFmxF7gXt85OL9rFb7a/gsSbyhh7tQEXYImYVwPt1J/ZsUYY4z9E17QFvU9RM3pAv9h3+KiQyv06N0NvhZnsfyNtui19Cyq+N0fjDHG2BN7MVvU2d/hjfoj8MeMs4ia1RAyQ6IasfNeQpsv6+HbS7swxMGQyBhjjP2jXsgWtU51F3eVEljZWBWrADkaB36KZR8HwFUjPn1bmYitU3vAx8kalvZ14Nd/IQ5mCdN017BrvD9avrkSCZr8We/9Mhev+nbGh5HZ+Qm58dg4qTsaOdvA0sYJDbuMRcjvf+VPY4wxxirIaAN1buIWTHutFRo2aI6uo7/Cb7er7tUVkuo98VYPWxyb3Rejlkcg4XZ+tJW6dce4qUHwryFUi+4W9k7ojXci7PHu+kM48UMw2qb+FwNGhCCNnNHn3QBYHpiPGevToFX9jqVTlyLWZTBGd7YXlr2OXeN6YUy4AoFrD+HU0fUYXe0gJvUejvVp+vdVM8YYYxWkv/VtdO7+TGPdTcmk8GUZEqr+eij9oRWnV4W7Zyl0witUz0JCJmbVqVG3MbT0xxR6IE7WXF5OnSydKXB3tphClLt/DNU1b09LUjTCmIpig/3JzmUQLZ7Tieyq9aA1l/TpwrJJi8nf3JmG7LxtGDfI2U9jXM2o6UfRlCcmMcYYY+Uxyha1OiYCkel5hiidT4ebkXtxrCp7eVk3w7CVh3DpShwiVo5FK9VPmNPbD10+iUKOMDnvbDTiVBJcjZiLyZMnG4ZZO5Kh06QiKVnfApej6ZTVmFE3Ah98eg5t56/EKPf8F3GqhGXjyRcdXxFa1wWs/NGhhRzJZ2JwV0xijDHGymOUgVpavSYcJUJ7uhhJtZqoWbUvpDaQOTZCj3fmYf3hOBz80A1nlizA5kwddEol1DCFTKKFRqPJHxQ+CBgThA4u4obIzGFjZQoTEzNY2ypQuMX6eSGDqak4biCBzFQC0grT+AXUjDHGKsg4A7X3KMyd0Bx2YrA2sfDEoPnvo6OZYfQp6XAjpBesrXti7fXiEdMazdo1g33edWT+qYOsvhtcJKZoNHQpVq1aVTSsXIShjfX9xLW49M17+OT3Fpgy3hU/z5iKbUKA15N7N4Q7JSDmTLFbAJoExCYoUcvLG7ZG2zOAMcaY0RFvgRuhB5T+6/cUFrqNDifdEdOqhjbjOxpQ24xcX19CB1LuUh5p6V7qAVrwak0y9ZhIh3KFmfLiaFE7a7JtNZXCU/XfXCvpys+fUEC3mXT4LpHm4lfUvZoNtf/8HOU9+I1mt7Ck2gM3U4b+e3TNBfqysx3ZtZtFkRkqIa/rdPzTzlTdyo/mnRHGBTnn/kf/t/MMZVfl9+6MMcaeO0YcqJ+tnLPraGzHumQpkZDM1JSkEgU5tx5OX58WorAo7/IumtrJhcxNzcnW1pzMHJrSkK/OUI7mEn3doxpZtPiYfhN7n909NIkamNWmQVsyDOOaK3vpw851hGUVZGVuSmbO/jRx2yXKD9NK2j/ahWQOQ2iX/qKAMcYYe4wX+BGi+TQ515B25RbgWB9uTpalfBegRU7mRaRly1HLww2Olbr9LiybcRHpdy3g4lkXdvlPVsmXm4mUO9aoX9vaeH8jxxhj7B/3wgdqxhhjzJhxY44xxhgzYhyoGWOMMSPGgZoxxhgzYhyoGWOMMSPGgZoxxhgzYhyoGWOMMSPGgZoxxhgzYhyoGWOMMSPGgZoxxhgzYhyoGWOMMSPGgZoxxhgzYhyoGWOMMSPGgZoxxhgzYhyoGWOMMSPGgZoxxhgzYhyoGWOMMSPGgZoxxhgzYhyoGWOMMSPGgZoxxhgzYhyoGWOMMSPGgZoxxhgzYhyoGWOMMSP2YgRq7R2kxUUj5tItMeHZ0amVuK/SiGPsX+P+LWRczcRtpTheZTRQ3b8PtVYcZYyxSjLOQK3Lwt5xjWHj3gUj3nkH706cgfmrv8fZPyt/ttNe/g7DG9WBh18ndBmzAdqkMEwcPAM70yuSlxZJYRMxeMZOVGh2qHBsWiM4tv8MCX/7ibmy21oObRLCJg7GjJ3pQs7POW0a1r3VGM2HheFSFV9jaVOWo4uDB8b9VOVXAIyxF4RxBmrKRtzvyXgAKaRSKXT3LuPIypFo6/MyZuzLhE6crXxq/LpqHrao3sD29L9w++BU0IPbyMi8huwKnTcJD25nIPNaNoz/NFvF20oPcDsjE9cqVlHl0iZtwMSBU7El1djCvhbpG6fi86xh2LpjBlpbicn6C58NEzFw6hYY3SYzxl4sZIw0CfRpaznVfDucHohJpMmgveObkEW13rQ2VSMmlieXvnvdghSvhVKOmPJsKenwRDdS+C2g8xXdxBeEKmoaeSua0eyYPDHF2Kkoapo3KZrNpqfZZM2lxeRv5kwjIwqPZMYYq5R/z3fU0lro/dkiDDaLxOp1cSi4Q6lM3IqpPXzgZG0J+zp+6L/wILL0TW71r5j/aht8eEgJ9dHZaNOkDd7fr4L6dDC6txyEtZf1zSQlIqa0hv+klfh6TCd4OFrC0tETXafvwVVDK0qN08Hd0XLQWuTPHoEprfwwfOZMdPN0gH3nL/LTy5Ibj42TuqORsw0sbZzQsMtYhPz+lzhRkHsOoeO7okFNa1jY1IR35zEIickRJz4sF+dCx6Nrg5qwtrBBTe/OGBMSg/y5H9pW6JB18FO84VsbNlb2qNs6EEsWvYPWneca5sa97zG+ZWtM3VfUYlafmIeuLQOx/qpQgerTCO7eEoPWXi689f3Yui6zHlU4/FEHtBgUgovKc1jxmi86fnzEkJ9+ucStU9HDxwnWlvao49cfCw9mFd4xyT0XivFdG6CmtQVsanqj85gQlFo1ynC85/cSxny6AIP86sLe0go1GvbCnB8v4MTKYWhX3x6Wlo5w7zAWm5LU4kICZSK2Tu0BHydrWNrXgV//hTioL5DqMD7q0AKDQi5CeW4FXvPtiI+PqAyL5MZvxKTujeBsYwkbp4boMjYExXen7vphBPdvgdq2VrCv1wZB38ThHokTDXIRv3ESujdyho2lDZwadsHYkN9RlEVZ+1iFqPld4PfGaiRwNwjGXhxiwDYupbWoDbJpQ4AlKbqtoetaIu3NcBrpZkVeg7+kfafO0vGN46mlrQP1WJMqTMymS6cO0dyOcpJ3nEsHj/9KiTe1pDw8kdwUfrTA0OQVWtz9LMlEVpu6fryVjp89TRHBPamWaW0atU+/5odayLnfUT9LE5LWfJnGLwulrZHn6a5+swo9NL82i3YG1SVz1wAKDj9N8Wf20bIBnmTu1JfWGe4KqOjEDB8yqxNAS38+S+ejw2lB91okd59AB3MNGZagOjGDfMzqUMDSn+ns+WgKX9CdasndaYJh5pLr1qR+Q70cFeTRf7mhbqK2z6auzlKSOI/Mz+zOOuqtsKI3NhetSLl/NLko/GnxJSED5WGa6KYgvwXnyVCUsuq6zHrMpVtJJ+nwin7kZFqPhqw9QieTbutzpJvhI8nNyosGf7mPTp09ThvHtyRbhx60Rl83qhM0w8eM6gQspZ/Pnqfo8AXUvZac3CccFNb2kNwwCjAzIQufIFq9P5piT35Pc7rUEK5CJeTg/z5tPh5LZw5+TUO9zMiu7wbDsSMUiMJHupGV12D6ct8pOnt8I41vaUsOPdZQqvoWJZ08TCv6OZFpvSG09shJSrqtFXbnTgqqa06uAcEUfjqezuxbRgM8zcmp7zoy7E5NGoX0rkYKzwG0XJ9n1Haa3dWZpJKCFrWWsnYGUV1zVwoIDqfT8Wdo37IB5GnuRH3XpRrquex9nEdnVwdRwITvKEU/M2PshfAvC9QPaM/wGiRvs4guaDR0eXknsnQOpN3Z4mThFL5/jBAY2y8pHN/YV0GKgLDCk3tpgVreeSVl6k/eeg9+oBFOZtTusyRhpLRALadXVvwhnHJL81CwTFpM/ubONGSnPjCJcvbTGFczavpRtHDazab1fczJQrjwuCZmqEmJoBWLw+ikEBgelr2+D5lbdKM1RTNTxIrFFHZSn3/xdWso6fOXSFHjLdpRuOo8ivukJcmfKFCXV9fl1aMQgB6+9a25TMs7WZJz4G6hFkS5Qt0IgbD9khR9YamPuQV1W3NNrGsNpUSsoMVhJ+mRqjEEajPqve6OmCCsfu/b5CSrQcP2FBxBQpCb05zMPCbRMZV+9cupk6UzBRYVSFj9GCGItqclhij48K1voU4X+5O58xAquTvHkKtZU/ooOo80F4KpnaJknnkxs6mZXAzUmiRa7G9OzkN2UlEWOUI9upJZ049IyKKcfcwYexH9636elafOg4mZAmYmeTgbHQeV5Coi5k7G5Mn6YRZ2JOugSU0S564YiaUVrApqwsQcCgWgFtZTOgmsrG0q1AtPdTYa8eSLjq/YiykCK390aCFH8pkY3IUNuo0IgmvUVPi1fR2jP16B72/6YvT0QLSxf3QNNt1GIMg1ClP92uL10R9jxfc34Tt6OgLbFMvfIA9JiZdAPq3RxlZMErbY2sbyCXsPVqyuK1WPeWcRHaeC5GoE5hryE4ZZO5Cs0yA1KVlfWIwIckXUVD+0fX00Pl7xPW76jsb0wDYopWoMpDJT8S9h9RbC+qWu8PIqSDOBwtwMJmo11KRffTTiVBJcjZgrlmcyZu1Ihk6TiqTk0u4rq4Q6iAf5dkTJ3dkBLeTJOBNzF3mJCUiGD9q0tRGnCmu1toaViTiiEsocT/Dt+AqKsrCCf4cWkCefgZBFJfYxY+xF8WTn7X+K9jISk3NhV98dNSQ6KJVqwFQGiVYDjSZ/UPgEYExQB3GBf5h+myCDaVH8EEggM5WA9Nusk8C57xr8fv5nfN7fA3kxGzCpUwM0H7EFaaV89y1x7os1v5/Hz5/3h0deDDZM6oQGzUdgSykza7U6mEhNUWLVT+wZ1LVOifwsJdCK+Wk0CvgEjEFQBxd9YdF3ze84//Pn6O+Rh5gNk9CpQXOM2JJW+s/FTEz0/5WkTxP/fJhOqYRaqB2ZRFtYHo3CBwFjgtDBRSrOVZJ+HmHnlaxTibB/JWQog/CPsG3CuFCm0unXo8+i5F6RCHlKSL8dukrtY8bYi+FfFaizD6zCxrga6PlGR1gIJ8T6bi6QmDbC0KWrsGpV0bBy0VBxiX+W3Lsh3CkBMWeK/cRJk4DYBCVqeXnDli7jwLq1iMxpjiHT/4v1EacRt6kv7m5egtDzD7fqtLh8YB3WRuag+ZDp+O/6CJyO24S+dzdjSeh5cZ4CMrjVrwO6nICEwr5TBI3Qui3s1ySVQWYitIiF4FBAe+M6Sv+p+jOoa1l9uLlIYNpoKJYWy2/VqpVYNLSxcE12AOvWRiKn+RBM/+96RJyOw6a+d7F5SSgeqZonIKvvBheJKRoNXVps3cKwchGGNpaJcxUnh3dDd1BCDEruzlgkKGvBy9sWMncP1KNLOJ+Q3/HMQGjBF95TkHujoTshIeZMsZ/QaZAQmwBlLS9421Il9jFj7EVhxIGacP/PdFxMSkJi7C/YtWwU/jMkFNpBSzCvl/5+rhx+gUFomRWKabP2Ik1/5lNdReS8vug+q6BX8T9L5huIkf63EDZzAQ5kChFTcwNRn3+AkNQmGD7CH2b0AKfWTsGIKSvx2y0hQupykZF+HUqZLRxsHt41hAen1mLKiClY+dstIWzrkJuRjutKGWwdim615pPB58034Ht9M+YFH0GWWpg3eReC150uFjS84OWah992bUbSfSGe3DiJtTuiC3vTl/T0dS2xtIAFZSPjSo6htQ+5HwKDWiIrdBpm7U0zBC7V1UjM69sds47kgB6cwtopIzBl5W/Ir5oMpF9XQmbrgEeq5gnI/QIR1DILodNmYW9+gXA1ch76dp8FYfUCCSwtLEDZGbiSo4VWJ4Nv4Ej43wrDzAUHkL87o/D5ByFIbTIcI/zNIGvcHwN8s7BpbjCOZqmFbU7GriVhOFNQ6TJfBI70x62wmVhwIFNo0WtwI+pzfBCSiibDR8DfrLx9rMPt6O1Y90MicvNzZIy9CMTvqo2LoTOZqb7xRzAxIZm5PdXx7UFjVxylTH0/n0J5dHnXVOrkYk6m5rZka25GDk2H0FdnCn41XbHOZIo+64t6bysP0jhXM2o5P14/UkpnMgX1WV+yr3eRh+YXaK7spQ871yFzUwVZmZuSmbM/Tdx2iVT5kyk3LoSGtahGcqkZWVqYkqldYxq0+gzdE6eXkBtHIcNaUDW5lMwsLcjU1I4aD1pNZwwzP7zuXIpdM5C8raUkMc3Pt0cndzKtJXYmIy1d2TGamtiK0xVO1LZrS3I0K73Xd9l1XV49ClTRtPAlO5KYSMl+8Pb8tLzLtGtqJ3IR6sXc1pbMzRyo6ZCvKH/35VJcyDBqUU1OUjNLshC20a7xIFqdX9iS9J3JFArqu7FYx7iD48hV0YYWJYo7QijFheC2pKg7lg4o81PyLu+iqZ1chH1jTra25mTm0JSGfHWm8Df3quiF9JKdhEyk9jR4uz5vDV3Z+yF1riPUgcJKWM6MnP0n0rZLBXuT6MG5tTS4gTVJJUKdCvunycAA8i3+O2rNFdr7YWeqI5RZYSXkI0zzn7iNCrMocx/fpc1v2pLMbSIdKVolY+w5Z6L/Jz9k/4tpc5B5MQ3Z8lrwcHOEmZhsPLTIybiI9LsWcPGsC7tH7qyqkX0lBX/kmKGWhxscyymAOvsKUv7IgVktD7iVMbNKpYJMfRPJV3Jh71oPKXOaosuPfaFM+FycQ2ij3ctAcupfMHfxQD17uZhahqepa80dpCX9AW0NT7hXL1pSm5OJi2nZkJdWHnU2rqT8gRyzZ7VvhX2TeRFp2fJS615zJw1Jf2hRw9MdhZss1EHGxXTctXCBZ107PLI79dOTryDX3hVeTpZiYknanAxcTL8LCxdP1H30gHjsPtb9dRWp9x3h7mwhpjDGnnfPR6Bmj9Bd/Rb9uoai7tSZGPKSC1Qx32LG5G+hmXgY0fNaiXMxxhgzdhyon1s5iPvuU3zy5TYcPv8nTKo1xCvD5mDJx6+hfgUazowxxowDB2rGGGPMiP2rfp7FGGOMvWg4UDPGGGNGjAP1k7p/CxlXM3G76MkVVUQD1f37UPODqBhjjAlezECty0L4Ow1R9+WPEJH/nsZHqGND8LpXHXReFo3Ch3sV0KZh3VuN0XxYGC5VwVOyitOmLEcXBw+M++kprgByEvD95xMwqGcXvNKlD4ZOXYEDacWelsUYY+xf48UM1JSNc3EpuBq1DMFhF/Fo4/UeDqycj70XMxATnfbQ07q0SN84FZ9nDcPWHTPQ2qogOQkbJg7E1C2ppeT399Hd+BFTOrRD4Nok2Lbqhl5dGoKOfYpeL72Jby5U8VXFY2mRtGEiBk7dgtRnWBnapA2YOHAqtjzLlTDG2D/shb71bWZGOLUpDDEPx69b4Vi/5zbMzEt7pYMU9YbvRtLJz9DZsVj1aW8hPjIchxL/Knqe9t8uF4c+GY+vsgMQevwnfDNvBqbNWozvDm/Hu9Y/4ZPgH2B4OuYzp8Wt+EiEH0rEX8+wMrS34hEZfgiJz3IljDH2D3uBA7UMHn3fRNOULVh/9L6YpqfDle0b8LOsJ173V4hpImUitk7tAR8na1ja14Ff/4U4mKWD6vBH6NBiEEIuKnFuxWvw7fixuIAQOuM3YlL3RnC2sYSNU0N0GRuC3/8SJwp01w8juH8L1La1gn29Ngj6Jg73ised3HhsnNQdjZxtYGnjhIZdxiKkeAbFKQ9jy/cZaPz2dPR1LrZrrdtjxHuD0ML0T/whXpSUuV3KCExp7Y9JK7/GmE4ecLS0hKNnV0zfc7XobkHuOYSO74oGNa1hYVMT3p3HICRGuAxQHcZHHVpgUMhFKM+twGu+HfHxEZWQ5RS08huOmTO7wdPBHp2/OIfvx7dE66n7il5QoT6BeV1bInD9VTFBhzunvsaoTt6oYW0JO5dm6D1jO5KUKhz+qANaDArBReU5rHjNFx0/Fp85XmZ9KRExpRX8hs/EzG6ecLDvjC8uc2ucMWbk9L+jNkb3EjbT+338qIG3L3V5ZzWdvCW+SL8qGJ4lriCvKTvoy//YkNPQXVT4qn9h2qI2FuQ2/nta3UNBdoN35D8nXHuTwke6kZXXYPpy3yk6e3wjjW9pSw491lDKjSQ6eXgF9XMypXpD1tKRk0mGrLRZOymorjm5BgRT+Ol4OrNvGQ3wNCenvusoVf8Iak0ahfSuRgrPAbRcn2fUdprd1ZmkEvHZ0Nos2hlUl8xdAyg4/DTFn9lHywZ4krlTX1pnyKAkzaXF5G/mSEN3i8+Vfoxyt8vwTHMTktXuSh9vPU5nT0dQcM9aZFp7FO0zZK2iEzN8yKxOAC39+Sydjw6nBd1rkdx9Ah3MuUVJJw/Tin5OZFpvCK09cpKSbmuFLPuRpYmUar48npaFbqXI81dpXW8FWb2xOb9+9ZT7abSLgvwXXzKMatND6XUnS2o07Gs6cDaeTv1vAfV0saCGUw/TraSTdHhFP3IyrUdD1h6hk0m3K1Bf+c8kN5HWpJfHL6PQrZF0/nGPbWeMMSNhnIH67s801t2UTPQv5TAMEqr+eij9UVWx2hCozch1/EHK3Nyfqtv3oW+v5WeuOvkB+Sia0cen02llZ7PCQK25vJw6WTpT4O7CkE65+8dQXfP2tCRFCAKqKJrmraBms2MozzBVQ0mL/cnceQjtFGJIgRxhGVezpvRRdB5pLgRTO0XJPPNiZlMzeX6g1iQJgdfcmYaUzIDGuJpR04+ixfUUyTs7h5rLXWj0fvGtE6Uqf7vyA7WcOq/MpIIqf/DDCHIya0efJekDXjat72NOFt3WkFhtpEmJoBWLw+ikEJT1gTxqmjcpms2mGHEjDYFa/gqtKNyJd8oJ1Bo6/2lrUtR9h34sfA+Hhi5vGEPd315rGFNFTSNvYV/NFldSfn3lB2r5Kyuq7lhijLFnzChvfatjIhCZXuzdydDhZuReHKvin0KplUrYv/Y2+lofRpihE1guDq/fiittgjC8qRYqddEW5J2NRpxKgqsRczF58mTDMGtHMnSaVCQll9ZJS4Wz0fEg3454xV5MElj5d0ALeTLOxNxFXmICkuGDNm2LXlNpYm0NK/GrcZWwznjyRceSGaBDCzmSz8TgrphUwMTUFFITHbRl3s0tf7vySWBpZVX43YiJuQIKqKHO09eJDbqNCIJr1FT4tX0doz9ege9v+mL09EC0sS/jkJJYwbrC76hU4Xx8MuDTCq0L32shRf2gNfhx3TvieEkVrS+JlXWVvCqTMcb+DkZ5upJWrwlHScmOXJJqNVFTKo5UCYJWJ0Q0yy4YMbAOTm0MQ9yNCIR+fxedh72F+lItNMUCnk4I6mqYQiYR0jWa/EHhg4AxQejgUvqG6eeBzFRYqhiJDKYSYd36aVqNcHEgjMsesxv069BPL5mBkKUEJCyreeiXZdKazkIdZSMz4+HvsHXIPn8IeyLj8KewTLnbVS4JnPuuwe/nf8bn/T2QF7MBkzo1QPMRW5BWhV/5avU7QCYTwnMFVbK+GGPs38A4A7X3KMyd0Bx2YrA2sfDEoPnvo2PVv+NQIEer4UPRNOk7LPkoBPtlfTC8n9MjFSOr7wYXiSkaDV2KVatWFQ0rF2Fo40dfU6jP17uhOyghBmeK3QnQJMQiQVkLXt62kLl7oB5dwvmEYr9xVquRJ/4p924Id0pATMkMEJugRC0vb9g+vJF2Qiu5pQl+3bsXmcWDku4Gvv+wHwYvOoRcKn+7yqW9jAPr1iIypzmGTP8v1kecRtymvri7eQlCz1ck0OtJhRhsAp0QXAs3VXsD1/8siPQyuHnUBaVcQGLhD9l1+PPQF5i+aI84XlKl64sxxv4FjPPUJamOHkujEBu1G2Gh23Ao5jQ2BbpVvGVVSdIGQzGs/Q1s+b8jqPbmCPQoJVbJ/QIR1DILodNmYW+aPhCocDVyHvp2n4Uj+t88SSxhYUHIzriCHMO9Zxl8A0fC/1YYZi44gEwh2GhuROHzD0KQ2mQ4RvibQda4Pwb4ZmHT3GAczVJDl5uMXUvCcEaM1DLfQIz0v4WwmQtwID8DRH3+AUJSm2D4CP9H380sdcPbHwai+s+zMXzhT0jTd2ZXX8fJNROxMNJKaP0PQl1p+dtVLnqAU2unYMSUlfjtllBWXS4y0q9DKbOFg+GesgSWFhag7AxcydFCW2pLVg4vL1fk/bYLm5OEDVXfwMm1OxBdGOflaDH4Lfj+EYb5q6KRrdPh3qX/Ye6U2diRmn9hJLG0gAVlI+NKDrTCSipdX6J78Xvw7a4Y3OEWN2PMGInfVb9YDJ3J5FTz7XAq6B99c3N/qiZvTnPOir2fNBfps3byol7fgrzLu2hqJxcyNzUnW1tzMnNoSkO+OkM5hqkqil74EtlJTEhqP9iQou/8dGXvh9S5jjmZKqyE5czI2X8ibbukEqcTPTi3lgY3sCapxJRMTe2oycAA8jUTe30LNFf20oed6wjLKsjK3JTMnP1p4rZLwtoe5wElfjeeXq5tThKZnOSmEjKt1pyGrDhZ1LO9vO0ydCZTUJ/1RV2ilQfHkatZS5ofn18/uXEhNKxFNZJLzcjSQth2u8Y0aPUZKuj3pYpeSC/ZSchEak+Dt+fmdyZT9KFiWZL2yg4a3cRWLLuCnNp2pZaOZoW9vvV1mvTdu9S6phmZmgvbKrOlhm9+QSfvFEyOpoUv2ZHEREr2g7cbksqur/zOZIo+66lYyWj/aBeSOQyhXYW92hhjzHjway4rTYuczItIy5ajlocbHEs00zS4k5aEP7Q10Ni9upgm0OYg42I67lq4wLOundDWfoh+evIV5Nq7wsupsOdUMcI6My4i/a4FXDzrwq60O+0P097DtUup+FNnh7qedUpfprztKpca2VdS8EeOWSl1IdTGnTQk/aFFDU93VH9cc1Z3Tyh7Kv4yd4FHPXuhHV0KdTbSUzKhEurHQ6ifEreBNHeQlvQHtDU84V64kkrWV24mUu5Yo35tayO9xcQYe5FxoGaMMcaMGDcgGGOMMSPGgZoxxhgzYhyoGWOMMSPGgZoxxhgzYtyZ7LmgxdUfV+GwvT8kJzPhP+E11K98F27GGGNG6AVuUefg/K5gjB/YE51f6Yxegydh2Y+Xi165WB7VEbznbo5WnyYIYfJJaJHy3/ZQ1Boljj8pHa7/MAE9x0ciR2EOzfH30XPM7pJPJmOMMfav9YIG6nuImtMF/sO+xUWHVujRuxt8Lc5i+Rtt0Wvp2YoHayOgu/E9pk/4Ga2Wr8dY30YI+mYpXjryHiZtzih6NCdjjLF/rRczUGfvwbIVsfCetRf7vp6H6e9/gIXfRuKHD+oiauEC7Lotzmf0NIhbvQjhdcdhVu/qhp0pceyFD8a54afgL/FbsUeIM8YY+3d6IQO1TnUXd5USWNkUvcZR/2zpxoGfYtnHAXAVX7OkTt2D2f38UM/eEpb2ddCi3xxEXCntRvc9fD++JVpP3VfUGlefwLyuLRG4/qqYoMP1w8Ho36I2bK3sUa9NEL6Ju1fsVZ7lrE8ZgSmt/DB85kx083SAfecvcPnBKWzaloTmb7wJt8IHoUvhMWAAWqdvx8Zf/k33BhhjjJXGaAN1buIWTHutFRo2aI6uo7/Cb7er7kaupHpPvNXDFsdm98Wo5RFIuJ3/JgipW3eMmxoE/xpCtWiisfDNt/BtbgC+PnYOcT8vRpvLSzF03HpkPLIpWty5koDEK38V3W6mHGQmJSD1Zv6rn7Tp6zBqwHzEek7H1sNHsGWaO2IOxgttYlF569P9hSuJZ7BpfRQ8xy3Hmln/gf2lSBxJr4c27ZxL7EiJc3v4e17HkchYMYUxxti/lXEG6pxITO8zDMv2RuNC0lkcDJmIPqM2lhIgn5C0Ht4O+wn/N9QWhz5+DY1r1ULj7u9i2f5incl0Duj8wQbsCJmFnk3c4N5qAN5/yxcPzp7CuYL3UFaYFpe2rMMB0/74/JvJ6NGqGV7qPwf/HdW46PnaFVqfKTp8tAUrpgzDwK4+ME9OQgrqwt39oSdkyzzgWV+K9KQkMYExxti/lVEGanVMBCLT84rdFtbhZuReHKvKO7nWzTBs5SFcuhKHiJVj0Ur1E+b09kOXT6Kgf2sl5G5o374GYr8YglfbNUdjHx90WngSeVottJX+QVseEhOSAZ82aGsjJsEE1tZWwr+iCq1PAitrm8KdprzzFx6YWsHaXEwoJIONjSW0d7PFccYYY/9WRhmopdVrwlFSGMIMJNVqouYzeCG1zLERerwzD+sPx+Hgh244s2QBNut/23T/OGZ174VFCV54+7P12Ll3H7ZN8hPatE9Gq9EKKzOF7HE1/gTrk0olMBECeWk3GnQ6YX0mz+oN3owxxv4uxhmovUdh7oTmsBODtYmFJwbNfx8dH/eqxErR4UZIL6E12xNrrxcPcdZo1q4Z7POuI/NPHdSxexCe7IqgBXPwVkdfNHB3haOi5MVDESlkMhPoNJqioKm9get/FnQ8k8Hdox7o0nkkFOuJrVYX3UOv3PrymVavATvdHdy683CofoDbtx/AXLjgYYwx9u9mlIEakurosTQKsVG7ERa6DYdiTmNToJsQDquCBNV6DUFP20MIHrscBy/nQB9ec9MOYsmXEbhZ92V08pRBWsMZNSTpOBJ+AtfVSmQeX4WZ30QjT5OHR7+ilsPLyxV5v+3C5qT7QtS9gZNrdyC6sKeYDI37D4Bv1ibMDT6KLLWwvuRdWBJ2pjCvyq0vn7xJUzSUpOLChYfmUF9A4iWCd7MmYgJjjLF/K+MM1AYK1G3bF4HDBqCTl62YVjUktd7CtxFfo8ftFQjwtIO5XAFb99746q8eWLFlIV6xEAKn+zv4fN7LyFzaCc4KC7i+vgk2/q1gcTcVKZkP/0RLjlYT5uPt6kcwzscOcqt6eH3bAzjZFVWvrMlU/N/ybri+rAtqWylg3+ZT5DZsXHhru3Lryyep3Qs9mt9E1JHEot7jAm3KYRy72hDde3mIKYwxxv6tXvhnfWtyriHtyi3AsT7cnCwfuXLR3LmCixlqOLp7oIZCTHwc3T1kJKfiL3MXeNSzF8L3o7Q5GUi+kgt7Vy8Iq3tEpdYHHTJD+8E3uA62/r4Sna30aUqcmOGHPmfH4fcfx8GVv6ZmjLF/NX4px7+dOhaLOndDRI+fcOijZjBJWIpunbeiQ/gvmNe63EjPGGPMyHGgfg5oLoXirV5LUevL5VDMHIsL7+7B9jE+pbboGWOM/btwoH5OqK/+jvOoCcl1DRr4uaJKOsgzxhj7x3GgZowxxoyYEff6ZowxxhgHasYYY8yIcaB+HK0K9++rUPovmJnBc15HOrUS91XiL9R1aiiFshb/vXrZNFDdvw91ZStHexU/fhmG6Pux2PRFOFIrvkLG2HOKA/Vj3N88EA4O/bHR8IYOI6XLwr5F72Lson249tBTRHVZ+7Bo7DRsOPfszvRVXke62zi4ZBzGzN2FtIcDXM5xrJgwBrO2JJW4MNDEfoYOXq8h5FJVXy6ocGxaIzi2/wwJQtaqY9PQyLE9PtOPCFuQFDYRg2fsRPpjVqtNWY4uDh4Y91Ml3iSju44fJvTE+MgcKMgSmuPvo+eY3dA/ep4x9uLiQP3EhJP1hokYOHULUqs6RlQUZSNmzzqsmTMa03dllXg5B92JRfj6zfjl6r+oSSaxQ2OX2wgPno5gIVgV0SLx6w8xa30sLBq5F3uUrBLHQtbixKX9WB0WV4nW7tMiPLidgcxr2UWvRX1qOtz4fjom/NwKy9ePRWNLDwR9sxQvHXkPkzZnlNi3jLEXCwfqJ6bFrfhIhB9KxF//cL95CV3DtmkfYs+Nf/vpXIKa/edgSps/sTl4LS4UXADd3ovPV5xCjaFzMbFp4Ru8gXuR2PS/bDR/yQeXtm3Cb8VeePJsyeA7eTeObnwH3lX15DdNHFYvCkfdcbPQu3r+x1Li2AsfjHPDT8Ff/o1lY4wZmxc3UOfGY+Ok7mjkbANLGyc07DIWIb//JU4UUQ7OfPkWWtWxg5VtbTR/41MczBKCoeowPurQAoNCLkJ5bgVe8+2Ij4/kn0mViVsxtYcPnKwtYV/HD/0XHoR+EX3rL2JKa/hPWomvx3SCh6MlLB090XX6HlwtbJErkbh1Knr4OMHa0h51/Ppj4cGClrJ++VbwGz4TM7t5wsG+M764rF/QBI49hqFX3mZMm7UPt8qI1bnxGzGpeyM421jCxqkhuowNQWGRleF4z+8ljPl0AQb51YW9pRVqNOyFOT9ewImVw9Cuvj0sLR3h3mEsNiWpxYUEj6sjPWUEprTyw/CZM9HN0wH2nb+AYZOVidg6tQd8nKxhaV8Hfv0XFi0j9cG4ecPhfPJL/DfijpCgwbmvgrHjwav4cFY3FH/q++0fNuEH1auY/PU7eClrFzYeuS9OERjK0wnvLf4UA/1cYGdpC5cW/bHo8PVirdOy6rssapwO7o6Wg9bml0egu34Ywf1boLatFezrtRFaw3G4V/wCrpzjTX1qE7YlNccbbxZ/+YwUHgMGoHX6dmz8pSpfxs4Y+1fR/47aGN1L2Ezv9/GjBt6+1OWd1XTyllacUgW0WbQzqC6ZuwZQcPhpij+zj5YN8CRzp760LlVjmCU3LIDMIKXa3efRrl9j6XTEEupXX07VAtbRlbxblHTyMK3o50Sm9YbQ2iMnKem2lrQ3w2mkmxV5Df6S9p06S8c3jqeWtg7UY02qPkf6rp8lmchqU9ePt9Lxs6cpIrgn1TKtTaP2PdBvFN0MH0luVl40+Mt9dOrscdo4viXZOvSgNYZtEpeX1qSXxy+j0K2RdD47gT5tLaeab/+Pktb3pZpyTxr742395pMmcRG1MXOmkRH6vPVF3klBdc3JNSCYwk/H05l9y2iApzk59V1H+dmHUYCZCVn4BNHq/dEUe/J7mtOlBkmE9rqD//u0+XgsnTn4NQ31MiO7vhvourA7yqwj/e7K/Y76WZqQtObLNH5ZKG2NPE93tTcpfKQbWXkNpi/3naKzxzfS+Ja25NBjTf526Gn/oPV9q5Fl20UUd20bDXY2p+YfnyKlONlAe42+7WNHNYfspDvaTArpZUdOQ3fRHXFyQXnMPPvTkr2/Ueyvu2juf2qRabW+tP4P/caVV99KOjzRjRR+C+i8MKo8PJHcFH60QD/y0DTSpFFI72qk8BxAy/VlitpOs7s6k1Qi1n+5x1sexX3SkhQ+H9BvKmG0uLwYmuOroIYzTooJjLEXjXEG6rs/01h3UzLRfxloGCRU/fVQMpxfq4AmaTH5mzvTkJ35Qc0gZz+NcTWjph9FC6dNMQjJu9CqzIKVaunGhtfJzvwV+jJdn6aiqGnepGg2m2L0C5CGLi/vRJbOgbQ7Wz+ul0v7xwgn6PZLDH/rA62880oqzPLBDzTCyYzafZYkLH6ZlneyJOfA3VS0uLBNQnBtvyRFP5K//CsriupBUxCow+mBJoW+6VWNzLwn0gEhWpUM1BpKWuxP5s5DqGSRx5CrWVP6KFoogCGwmVHvdYWhjh7sfZucZDVo2J78YK8PKGfnNCczj0l0TAgo5daRIVDL6ZUVfwhT8mkuL6dOls4UWFRJQjHHUF3z9rQkRR+08uWdnUetLJ3Iv5MPmbsMo+9viRNE2rQV1MW6Nr0dnqMfoxthr5ODw+sUdkNck1ieHiFFC2r/WEPdrc2py8orpC23viseqDUXgqmdomSZ8mJmUzN5fv2Xf7w9oJ2D7UjRfS3dFCcXyaGNr1uSRcAGcZwx9qIxylvf6pgIRKbnGaJ0Ph1uRu7FsSq6+6c6G4148kXHV+zFFIGVPzq0kCP5TAzuikkwsYClVUEVSeDg1wIeuhQkJpf2hug8nI2Og0pyFRFzJ2PyZP0wCzuSddCkJonzCLlYWqEwSxNzKBRCedVCfnlnER2nguRqBOYalhWGWTuQrNMgNSlZXEBY3soaNqXtNakbRn7xCTr+GYL35h9FyY7YKmHb4kG+HVGyyB3QQp6MMzGFJYZUVvDiTX3xhe2TusLLqyDNBApzM5io1VAX7Jxy60gCK2ubwu9Y8oS6j1NJcDVirlhHkzFrRzJ0mlQkJRd1B5M1ew+fDFbg5NEMvDTjY/RxECcYaJG8ZQtO2PfCwC76V4ZJUL33QLwqPYjNu6+VuHUtK1YeSc12aO2hw+WkFORVsL4rIi8xAcnwQZu2NmKKUC3W1rASrjT1yj/elLjz1wOYCvvWXJxcRAYbG0to72aL44yxF01pp/x/nLR6TThKxLOcSFKtJmpWWccdDTTCCdC06BwukEBmKoHQ1ILmcV9SCid9UyFICLOUQgelUg2YyiDR56FfhzAofAIwJqiDOE8ZdErkLy4R8i9YXgGfgDEI6uAizlQ2qccYfDm7HTK/fg8LTyuLXejoiyxstGH7i5EIdSAhw/oMTEz0/5WkTxP/rJAy60hfTCXUwhwyibawjjQKHwSMCUIHl+I72A6de/rD1rQxuvWsX+x7W4HmHDZvjYbyxnYM96iFWrWEodEERNzJwcGw7wq/N36EiVBeISOdVpihCuq7kFBYrf54EvIqlT7vMo83KaTC8a7Vln7g6XTC9ppU1cHPGPu3Mc5A7T0Kcyc0h50YrE0sPDFo/vvoWEVvmpB7N4Q7JSDmTLEmuiYBsQlK1PLyhm1hrehP3uKfAuWFC0hDHbjVL9bzuJAM9d1cIDFthKFLV2HVqqJh5aKh4jxlkNWHm4sEpo2GYmmxZVetWolFQxuLM5VHhgYTVmBWq3SsmrkOaYXnfTm8G7qDEmJQssixSFDWgpd38S5alVWZOtIX0w0uElM0Grq0WBmFYeUiDG1c+jIPU/+2CdsS7NB73mZsDAtDmGHYgs0fvAzT6O3YnPCYq4R7CUhIA1zc6gst7aqo73wydw/Uo0s4n1Csa7ZajYJ7CuUfb6aoXsMOuju3cOeRWP0At28/gLlw8coYezEZZaCGpDp6LI1CbNRuhIVuw6GY09gUWLw37NOR+QZipP8thM1cgAOZQrNKcwNRn3+AkNQmGD7Cv+jNU+ojWDFzB5JzdVBnRmLBot3IadUPAR76LZHA0sIClJ2BKzlCC1Inh19gEFpmhWLarL1I05+TVVcROa8vus86YsiuTHI/BAa1RFboNMzam4b8xSMxr293zDpSiSeKyBpj0ooZaP5XBm4Utixl8A0cCf9bYZi54ADyixyFzz8IQWqT4Rjh/xRXQGXW0aPkfoEIapmF0GmzsDe/knA1ch76dp+FihXzPo5u2ok04WJu9tQe6Nq1a+HQ56M5GF7rHLZ997vQatfLw4mwFYi6IQRudQZ+/CQY4aq26NenHqRVVd8CWeP+GOCbhU1zg3E0Sw1dbjJ2LQnDGTFSl3+8ydGkaUNIUi/gwsPfqqgvIPESwbtZEzGBMfaiMc5AbaBA3bZ9EThsADp5PU2LrxRSb4wP3Yh3zTfiNVdbWNu4oMtqFQZ9uxUfNi96i7PEvi1873yC1vYKWNXpga/u9MTSryeioSEGydDwtTfR8m4o+lavjsBd9yFrMh3fhY6E5faB8HKwg529JwbttkJAfz9DfmWTocn07xA60hLbB3rBwc4O9p6DsNsqAP39rMV5Kkbe7H2seN8PFsXuWUu9xyN047sw3/gaXG2tYePSBatVg/Dt1g9RrMiVVnYdlULWBNO/C8VIy+0Y6OUAOzt7eA7aDauA/qhQMf/6GZv2XEOjfgPR/OEGuOJlDH7dFZd2bEKUofEqRU3prxjhbQdrO1f0+fY+Xlu2GuMMP36uuvrWl2nq/y1Ht+vL0KW2FRT2bfBpbkM0LrjVXe7xJkHtXj3Q/GYUjiSWvBugTTmMY1cbonsvDzGFMfaiecFfc6lFTsZFpN+1gItnXdiVeudVh9xrF5H2lxXqetaG9UMBSHMnDUl/aFHD0x3VCxqm2hxkXkxDtrwWPNwcK/1uaG1OJi6mZUNeywNujlV0v7+AsG0ZF9Nx18IFnnXthHBVFcquo9IJdZ8pLJMtRy0PN1R1MXF/I/o6vAPdmj/xvzfv4WL6X7Cq64napWxcldW3vm6TryDX3hVeTpZiYnFlHG+6TIT280Vwna34fWVn6LvI6X/nfWKGH/qcHYfffxwH1wrVK2PsecPvo2bPp2KBOnx4JVvI/xB17CJ07haBHj8dwkfNzKBOWIpunbeiQ/gvmNdaIc7FGHvRGPGtb8aehgkkUikkj3RjN17yZjMQ+llthA39AIeyj2POkDWwnbcBH3GQZuyFxi1qxoyKGld/Pw9JUyfcjFWhgZ9rpb86YYw9XzhQM8YYY0aMb30zxhhjRowD9TOmUd3HffXjHpWVT3snDXHRMbh0K//Xv0ZHo8L9+0+zbRqo7t/HI9WgvYofvwxD9BNmXZG6LUvh8ppYbPoiHKmPeU4KY4z9kzhQP0vaFCzv4gCPcT/ljyaFYeLgGdiZXhBctLj83XA0quMBv05dMGZDGpLCJmLwjJ0onKVK6ZC1byFGdnkF/xkxCqNGFRveXYR9Ba+aLEGLlOVd4OAxThyvPG3KcnRx8MC4nww/bs6nu44fJvTE+MgcKJ7ky5eH6rbSSixvCc3x99FzzG5kPu7xsYwx9g/hQP03oge3kZF5DdkF8Ur9K1bN2wLVG9uR/tdtHJzqhge3M5B5LdvwpKyqR8iOCcfGY1cAqQwyWbFBKq3cM72fig43vp+OCT+3wvL1Y9H4n+4tJfNA0DdL8dKR9zBpc4awdYwxZjw4UP+NZL6TsfvoRrxjeDKWQHMFaRkSNH3lP3A2JMngO3k3jm58BwWzPAsmjh0xceUarFlTbFj9AXo4/U2HgyYOqxeFo+64Wehd3TgOQYljL3wwzg0/BX+J34o9spsxxv5pL2agVobjPb+XMObTBRjkVxf2llao0bAX5vx4ASdWDkO7+vawtHSEe4ex2JRU7AvU3HhsnNQdjZxtYGnjhIZdxiLk97/EiQLddRwO7o8WtW1hZV8PbYK+Qdy9ovu66tPB6N5yENZe1gqN6fl4tc2HOKRU4+jsNmjS5n3sV6lxOrg7Wg5aK74BSoc7p77GqE7eqGFtCTuXZug9YzuSCpvbaqTumY1+fvWEMljCvk4L9JsTgSvibXNlxBS08huOmTO7wdPBHp2/uJw/oUw6XD8cjP4tasPWyh712gThm7h7Jd7EpU7dg9n9/FDP3hKW9nXQot8cRBSsVKC7fhjB/Vugtq0V7Ou1EVqrcShWDVCf2oRtSc3xxpvFn9+uROLWqejh4wRrS3vU8euPhQezilq35dRteXVR/vJSeAwYgNbp27Hxl2dzP4Mxxp6I/udZxuhewmZ6v48fNfD2pS7vrKaTt7TilCqQG0YBZiZk4RNEq/dHU+zJ72lOlxokgYQc/N+nzcdj6czBr2molxnZ9d1A1/Wr1mbRzqC6ZO4aQMHhpyn+zD5aNsCTzJ360rpUjTCDhtJCelM1hScNWL6PTp2Nou2zu5KzVELOIyMMq1UenkhuCj9acF5D2uxLdOrQXOool1PHuQfp+K+JdFOrpMMT3Ujht4CEWUibHkqvO1lSo2Ff04Gz8XTqfwuop4sFNZx61JBf3uk51MLCmf4zP4LiUoT8Nr9LzSzsqFfIH4bpud/1I0sTKdV8eTwtC91KkeezKeHT1iSv+TaFPzDM8ghNWgj1rqYgzwHLad+psxS1fTZ1dZaSxHlk/gx5p2lOCwty/s98iohLoUunNtO7zSzIrlcI/aGvJ00ahfSuRgrPAbR83yk6G7WdZnd1JqnEmUZG6FeaR3GftCSFzwf0m8qQo0BLN8NHkpuVFw3+Ul93x2nj+JZk69CD1lSwbsuui/KXN8iLoTm+Cmo446SYwBhj/zzjDNR3f6ax7qZkov9S1TBIqPrrofmBoCoYArUZ9V53R0wgerD3bXKS1aBhewoiWB6dndOczDwm0TEhoGiSFpO/uTMN2XlbnC7I2U9jXM2o6UfRlKe5QMHtFOQcuJuyxcn6E//sZvJSA7VB7kbqq1BQQFhu/jgVD9QaOi8EVUXdd+jHe+JkIeBc3jCGur+91jCmSjlC23Ycp3QxO9JcpM9fMqPa7/xoGDUEavkrtKKw4jSGQG1qIiMzCwuyKBxsqX1wgjBVQxeC25HCOZB2FxWCYmY3I3lBoFal0JFtO+h40Urp4ucvkVltYTuVwtiFYGqncKbAogyEaphNzeQFgfoB7RxsR4rua+lm/mRhocu0vJNlybrLFeq2rjm1X5Kiz7Tcui2zLiqwfL4c2vi6JVkEbBDHGWPsn2eUt77VMRGITM8rdrtVh5uRe3Gsiu9ISmVFb/I3sTCHQuoKL6+CNBMozM1golZDLWyI6mw04skXHV+xF6cLrPzRoYUcyWdicDcvEQnJgE+btrARJ8PEGtZWT9pFS4Xz8foMW6F14fsdpKgftAY/rnvHMCZ3a4/2NWLxxZBX0a55Y/j4dMLCk3nQaot1GZdYwdrmod2s6IR5kUdx9GjBcBBrh9cXcs9DYn4h0LaoELC2tirqaCZ3Q/v2NRD7xRC82q45Gvv4oNPCk8gT1qkV6ikvMQHJ8EGbogyEarBGUTUoceevBzC1soa5mIK8s4iOU0FyNQJzJ0/GZP0waweSdRqkJgnbU4G6LbMuKrxvZLCxsYT2brY4zhhj/zyjDNTS6jXhKCl5EpVUq4maVdnBysRE/19J+jTxz0doNNAIJ3LTotgukEBmKgFphWk6LTRCTJCZyqqsUrWGDGXFvsct6f7xWejeaxESvN7GZ+t3Yu++bZjkV2IDS2ViUwc+Lfzg51cwtERDp/znSeev0xSyxxXi/nHM6t4LixK88PZn67Fz7z5sm+SHwrUKdaHV19NjM5BCKuxbrbZY32qdEko1DMto9fVsGBTwCRiDoA4uwgzl123ZdVHxfaMT9iNMnmFPPsYYq6SqiilVSuo9CnMnNIedGKxNLDwxaP776PgP/oxH7t0Q7pSAmDPFmvWaBMQmKFHLyxu2cnd41CNcOp8gtIULCK3xPPHPSpPBzaMuKOUCEgv7s+nw56EvMH3RHuFvNWL3hCPZNQgL5ryFjr4N4O7qCMVjrzQqQgZ3j3qgS+eRUKzns7pYIdSxexCe7IqgBXPwVkdfNHB3hWOxlcrcPVCPLuF8yQyEtnoBU1SvYQfdnVu4UxCrZfXh5iKBaaOhWLpqFVYVDiuxaGhjfabl1G05dVHu8gUe4PbtBzAXLhQZY8xYGGWghqQ6eiyNQmzUboSFbsOhmNPYFFi8h/DfT+YbiJH+txA2cwEOZAqRU3MDUZ9/gJDUJhg+wh9mssboP8AXWZvmIvhoFtS6XCTvWoKwM08aqeVoMfgt+P4RhvmropGt0+Hepf9h7pTZ2JGqf5GxFDWca0CSfgThJ65DrczE8VUz8U10HjR5Za+T7v+J9ItJSEoqNiSn4U+lDI37D4Bv1ibMDT6KLLUOucm7sCTsTGGgldZwRg1JOo6En8B1tRKZx1dh5jfRyNPkGeaRNe6PAb5Z2DQ3GEez1NDlJmPXkjAUVYMcTZo2hCT1Ai4UpMn9EBjUElmh0zBrb5rhN+Sqq5GY17c7Zh3J0WdaTt2WUxcV3Tdq4aLoEsG7WRMxgTHGjID4XfWLRd+ZTKGgvhsLOnERKQ+OI1dFG1qUWNRJ6kJwW1LUHUsHlGLKlb30Yec6ZG6qICtzUzJz9qeJ2y5RYeflB+do7eAGZC2VkKmpKdk1GUgBvmZP2JlMP66ipO/epdY1zcjU3JxMZbbU8M0v6GRBH7i7v9LinvXI3MSETExMqZpfEA1ua0Xy9ksMkw2dyRR9aP1dw6hA7ExW2Emv2CDzoim/6EvygM6tHUwNrKUkEcpgateEBgb4CmUVO5PRXfp1cU+qZ65fpwmZVvOjoMFtyUrenpak5Jfrwbm1NLiBNUklwvKmdtRkYAD5mhV0JtP381pM/lbNaHZMnmHcIO8y7ZraiVyEejW3tSVzMwdqOuQrOpMjTi+nbsuri3KXF2gSFlJrixY0N7bYdjHG2D+M355VaVrkZFxE+l0LuHjWhZ2+cVuCfnoyruTaw9XLCYX9wJ6GOhvpKZlQ2bvCw8nyodsgGty5chEZake4e9RAVb25WJuTgeQrubB39YKwykdo7lzBxQw1HN09UKO0lWpzkJF8BbnCNns9nIEuE6H9fBFcZyt+X9kZVmKynjYnExfTsiGv5QE3x4e/6yivbsuri7KWV+LEDD/0OTsOv/84Dq78NTVjzEhwoGb/CHXsInTuFoEePx3CR83++TcuqxOWolvnregQ/gvmta6qyx3GGHt6HKjZP0SDS6FvodfSWvj6ty/Q2UJM/ieojuPDtm/jwrt7sH2MD+RiMmOMGQMO1OwfpMbV389D4tsctf/JW826a4g9o0IDP1f88217xhgriQM1Y4wxZrSA/weL8tM7u8NwYwAAAABJRU5ErkJggg==;" parent="WIyWlLk6GJQsqaUBKTNV-1" vertex="1">
          <mxGeometry x="316.21" y="-190" width="357.57" height="162" as="geometry" />
        </mxCell>
        <mxCell id="0LGMieh8fFYEPsuU7eUb-12" value="" style="shape=image;verticalLabelPosition=bottom;labelBackgroundColor=default;verticalAlign=top;aspect=fixed;imageAspect=0;image=data:image/png,iVBORw0KGgoAAAANSUhEUgAAAcsAAADMCAYAAAAccIhLAAAAAXNSR0IArs4c6QAAAARnQU1BAACxjwv8YQUAAAAJcEhZcwAADsMAAA7DAcdvqGQAAIlTSURBVHhe7Z0HQJXV38e/d9/LHiqgqIgIigsBV5i73IGWW3BLrkxLS3OkpqavpqGmwj9BNEeuxFATV4WGSiLIEBUQFRypGIjA5d77e587mMK9oFhZ5/N/6fVZZ/zO+D3nPOeeL484wGAwGAwGo1L4uv/PYDAYDAajEpizZDAYDAbDAMxZMhgMBoNhAOYsGQwGg8EwAHOWDAaDwWAYgDlLBoPBYDAMwJwlg8FgMBgGYM6SwWAwGAwDMGfJYDAYDIYBmLNkMBgMBsMAzFkyGAwGg2EA5iwZDAaDwTAAc5YMBoPBYBiAOUsGg8FgMAzAnCWDwWAwGAZgzpLBYDAYDAMwZ8lgMBgMhgGYs2QwGAwGwwDMWTIYDAaDYQDmLBkMBoPBMABzlgwGg8FgGIA5SwaDwWAwDPCXOktF7A6sC0uDQnf870IFef4zFLzSzP0VcTAYfyMqOfKfFfwtfYSy4BmeFSh1R381ChQ8ewb53xU9wyCvwFk+w43DqzBlcG907/42Bk1YhF2xT7SXjBWI/Kgv/A9kct3+S5CTiIMrp2FY3x7o1mMARs0KwImbBbqLfxMFv+Dj5tbo9GUiXry+5yDx4EpMG9YXPbr1wIBRsxBw4iaKc1YjcbwIcvy2cTImr/2ZS2FplLh9aDHenx2K+L/JgSuTQzF9+BzsS2e9zL+Bgl8+RnPrTvgy8a8uz2fYM6IOrAdvL1fHi1AiOXQ6hs/ZB01VexaFdWNGYflpXd/2kihT1qKHlROm/JSvO1N1VPeOYPn7EzBhgvZv4kR/TJ+zDEERN/BUdw/j5alhZ6nEtS1D8ObQjbhm2wXvDn4LDdJDMLbrQKzhelOhkx+2rHkDZz6YgZ0ZL+YuVQ+OYmbnjvANTIZ5217o16MZ6Jcv0O+N97Dl6ms85FI9wNGZndHRNxDJ5m3Rq18PNKNf8EW/N/Delqt/82hcgRsRwdh6LAl5ZYqN8Oj3gwje9Stu/02+ivIeIyPzLrKq38cwGNWAkPc4A5l3s6Cpasqn+CMjEw+y5S/34l8DUFYMDm3dhXP3+RAKhRAIlMhK3I8FA9zQ3v8AXrCrZZSHapKCSJrlLCbnGT9Tru4UZf9I4+3F1HzuBSpUHyuSafWbpuQ6+xzla26oDk8pYnIjEjf0pb2ZSt05juzT9IGziGz9DlK27tRfTv5pmu4oJc+lCaTQnaoOTyMmUyNxQ/Ldm0klOcum0x84k8jWjw6qM/aScbw4uRTqLSHx25vofimzE1eiMQtak7jeBDpS/cJkMJ4j//R0cpR60tKEv7aGq+v4d4OMSTog+G/pQxQ3VpGXxI7Gh+fpzlQdReIX1E5sQ2PDSj+roJtbB5KNyJlm/lqgO8d4GWp2ZMm3QucpX2LFhPYw0p2CrAHq2/ChkBdq38AEThgypB3Sv9+OX6s7Gsg/jV0HM9Bi7Gz42JVKumknjPtgGNxFf+AONwTLD5+Jtp5jMHduLzSxskT3dama2/KTdmNWH1fYmhrDsr4nBi87iXtFb13yNBxaMAieDS1hbGyJ+u6DsDD8lm66Mx/hM9vCc8xczO3VBFaW3bEu1dBQSo60QwswyLMhLI3V8blj0MJw3KrwsXyc3nUQGS3GYraPXanhvik6jfsAw9xF+EOdsfLoTTNH7hWETO2JpjamMDKzgUt3fwTFlJpkyk/C7ll94GprCmPL+vAcvAwniw3yIuTiSshU9GxqA1MjM9i4dId/UIxuWuspDk71QLtZR7Rv5mrk57C4pwd8g28XndBrs4rKVX5xBXp7DENgUXnkxmP7jN5obmcGYzNbNOsxGUG//6m9VhrVI+yb3A4eY0JL3ryV6fh2lDu8Pj76/PSV6i4ilgyCWz1zGFvUR9vhSzHf1xM9F5/TXH56cCo82s3CkZLM4dzinvDwDdYdc1TH3i9VdtWpe4bKRV3328Frxnps8u8KJ2tjGFs3Qc/Zh0pmEwzVw3KonlzApgld4VKHS7uFPVr3n4PvkyvpDF6yjutt8xVAz64ieFJF+ZTj4ore8BgWCE1VKziBT708MGHXA22/Vl0b3D+NFYPdUc/cBJYN28NvSxyeku6ihnwk7Z6FPq62MFWH5zkYy07eq8YoVoCG73mjveAmrsQ91p7SU2cq7jP1tWc1uYjfPgO9m9vBzNgMts16YHLQ79C2tirUm2rV038AOqf5yiiIXUJtjR1pyonisSYVxiwkN2kzmhNVvTce7duXNY06oP/tK/e7QWTME5DNm1Ppq5DdFJGQTcqHYTTe0YSch39NRy5cpsjtU8nD3Ir6bE7jniikiwvdycjubVoSHkcpNy7Qzvdbk5FFPwq6ox5Kad86eQIbenPqVxSyO4K4IMtSbtRXeHEhuRvZ0dtLwiku5QZd2Pk+tTayoH5Bd7T3l0Zxg1Z5Sch61AHSm7MycRhKcwGdm+NKkvretOb4ZUqIDqOlveuSuPE0OqkuCuVDChvvSCbOw+nrIxfocuR2muphTlZ9NlPacy/1VRtZFpybQ66S+uS95jhdToimsKW9qa64MU3TRPiEtvaXksm7O0tmHfKP0SR7KXmtuqE5NGSzisq1zEhEeY/2+TUgmYM3rQi7SPGXjtBXQ5qQzNaHtj6XKSVlbOlNpsY9aUO6NlPKW+uph7EVvbvjoea4BAXd2PAWWUicaMi6YxQTf5EOLe9P9QUCsp90THPHk639SWryLu0syRwdm2RPUq9V2sNq2fvlyq5adc9guejqvrAe9Zy/myIvX6TwFX2prqgeTTiirq2G6mE5lOkUMtCWjJuPpk0nLlP8hR9oaV97Mmo2i37mElB2ZPlydVx/my9PURu3ox6fVZTPfDo93ZGknktJk7S8fTTCUkLd12dwNamaNlDcpKD+tUjaZAitVZff2e9pQU87EvCLRpZKehg2nhxNnGn410fowuVI2j7Vg8yt+tDm5ytLJSNLzjrqflZkQUP35BisMxW1Lf3tWUn39vlRA5kDea8Io4vxl+jIV0OoicyWfLamcS3GUL2pbj39+3m1zjL7HC1sZ051B4bQzdJlnLOdBhobkfe26k14FF5eSG3E9jTpmP45P03Bi7tRQHFFVVDq2q5kbOdLB7J0p7jCPObPdaydVnP/LqCUM3tob2S6xtGpUVxfSW9I6tHEo+q4tAUv7hZAFdV9DeWcZUHKGdqzN5LSSwKklW9IqN7Eo7oTpSi8TAvbiDUdr96clYnDUJqzKHiAjIx6baa7ujQrUsIpYFUoRT1WkiJ1LXU1tiPfEoNQ7jF/rvJ3otUppQtLTdWcZVbwAJIZ9aLNJRFSeMAqCo16zB0YdpaGbPZ8uZbtXBXJ3MuUzI5G7lPHpyPnGPk7SKjVZ9FcasuivB9CPhbG1GN9Otf0lZS5uReZ1hpKe0o9rkGRQF+0lZDtyH2cVXUo4mmJp6TKzrJ69n65sqtW3auisxR3X0/FXz7yfqRxthLq+GUyd2CoHpZFkcB17NIG3LWnujNq22wj/95jKTBRUc5Zvkwdlxto8+UxlE99zrKaNri6gjpKy5ZfYcwCai3WOUtFKq3takx2vgdK6lsuV48byKjT6hTdiRI0zlIkojdm76ewsDDu7wDt2rSA3m1mQlKX6RTxRB2k/jpTUdvS254VydwLvozsuDZR0lxyOPs6kKTVZxRdaMie1ewj/wG8gtWwOhQp2DZuGL7K9cX/tviioUB3Xo3QjBu2K5GdVb2VZDyRCAKeCsqqDNP5JjA1K8peIS5Hx6GAfxvhiz7Ehx+q/+Zh7zUVFGnJ3HUxHDt1Qp3YdRj5Vke0aeEK167LEFWo5OIqmRvhm5iiOEgDiB07oVOdWKwb+RY6tmkBV9euWBZVyIVXQeJ5IogEPKiqlLEiDKXZDL3G+cHh7Cx4dhiISfMDcPChGybN9kV7Sz4KL0cjroCP2+GLdPb4EPP2XoNKkYbkay+2nMis1zj4OZzFLM8OGDhpPgIOPoTbpNnwbW+pu0M/VbJZmXItSwGXp3hyQ5dupeIz8UJndzGuXYpBtu5UEfw672BYLxmiDh7CbcUfOPJjFIx7D0Gv8sktTMbVVMC1wxucVYuQQirh6f5tmOrZ++XKrlp1r4rwjU1gUmR2ngxSKSCXF3IHVWs7RRQkxOMaXNG2nbHuDCBo5IfNR7diYrPSnYSal6njSgNtvmIqz6c+qmeDwqREjQ3adyipTTxTU5gUVafCy4iOKwD/djgW6cr3w3l7cU2lQFryNd1N5VEidtssfPDBB5gxYzYWbT4FRdcl+DHiK/Q0r2L9K9e29LbnAi6N8QS3Lt1Q0lxM4NXZHeJrlxCja2z67Pkq6umrpOJe52VRPcCxjwbhg/MeWLd/DfrULh+NinMMnO0EQt1x1RDY2MFGkIXMjPLfoFTISjiFQxFx+KPCSX0V8vPlgEgIvlIBhUL7J3X1hr9fZ+76M0TO641+yxPhPPZLBO87jCN7ZsBTpH36RXgWOQ+9+y1HovNYfBm8D4eP7MGMygIU2MDORoCszAzdfH8JqqwEnDoUgbjnMmYozXzY+WzG7wnHsXKwEwpjtmFG16ZoM24XbnK2V+XnQw4RhHxlsT0UUld4+/uhs335TosrKx7XklVcuemOi+BeGrn/8rj/cTHa+WDz7wk4vnIwnApjsG1GVzRtMw671BFWgWrZrCLUeYAQ3DtVKfgQivggdbk/Vzcs0XdYX5idP4gfrhzFj2dN0GfI2+D6lnKoOz0eFy5Xf3Rnqkv17P1yZffSdqwW1Ww7XDkouTISPl/FKuBl6rihNl+TvJgNRMJKapMqH9qk87lbi9Iuhau3P/w62+tuKgevNob87yrS0tKQmnoDyZcj8cM3M9GjvraPrW57V6O/PavD4MY9ZRsb+EIR+KSOo8KOuAx/bT2tAXQjzBrkKUWv7Ea1a3ejLy/k6M6V4/G31M/IgoZ+XzzxUzW4YfrqN43IYsD/KKNktoBIeZe+7W9Osq5rS+bfpQMouHiWt4B+m92UxE1m0M/Pz4pwl8/Rx00l1KJoxS6HImkZtZfY0rgf1fPr2ikFvSvlyk2Rnvu4KUlazKULJQHSsvYSsh33o+5EaRR0ffWbZGQxgP5XNmN099v+ZC7rSmvVGSsdh6E0K1Io4tstFBZfZGMlPdzvS/Uk7rQotpAKfptNTcVNaEaFBimPdkpR5PIxnS3zmTmb9o2sTeI2C+lyoYJSIr6lLWHxxdN5yof7ybeehNwXxXJHORTqIyMj71DuXzpyQ8lbItJN9xm22fPlqjZJybRdYfRn1ErSmD44U+rbTeFFmtdSQo2mnap4ijv3KE2sb0Qe3bzIsv4EOlIyO1hCYTR91qpcGIpk+rJjyTRsTqgPyYy8KbQkc5qpa5FuGrZa9n6psqtu3TNULhXU/fyTNMVBQh5L4qvQdspScP5Tai5pRnN+K6lIygcnae3Hy+gHro6XmYZ9qTqeq7/NP4eBfOqbhq2mDTRTrpp6WpIwzVRq0WrYgt9odlMxNZnxc8V1thyVfbMsjaH693zbMtCedW2i8QdnSq2zKKSL81qSpNE0OpVvyJ7Vrad/PzU8slQgbccEvLfkDvquWYthNo9x69Yt7d/tP5Cre9mQX03CDXJB65YS7YmqInDE2E99Ufv4AoxZ9hNuPuPOye8javN0LIsw4d6ShqFBhS9JYnj6+sHjXgg+nncYN9UL7wpuI2KxD3rPO8OFWwd2dfhIPxOGc/flyM+MxIa5WxBdqEChoRmYChGgjl0d8NPPIOzcfcjzMxG5YS62RBdCUWGAAjiO/RS+tY9jwZhl+EmbMdyP2ozpyyJgwr1RDiufMUNppjxcCJyJcTPX4/wj9XAkFxnp95EvNIeVGR9iT1/4edxDyMfzcFhrENyOWAyf3vNwptSiSy0SdBoxGI1vfovZ839A8p9ceIo/ELNtJj7/QY4OI4eiuZCQdyEQM8fNxPrzj7g3ZxVyM9JxP18Icyv1dJMYzs4OKDy/HzuTufzJHyAqcC+ii2cgq2uz5xG6+WK81yOEzl2KE5ncq7niAc6u/ARBaS0xZpwXl4sKMOqGET52iD0dBfP+w9CtZHawBGFrvDeoBe59txgrz/7B5Y2z1U8B2FGSeIidneFQeB77dyZz4ww5HkQFYm/p69Wx90uVXXXtaKhcDFDNtiN2H44RbncQumQDorNUUD29gR8WzcSCvWkQWtZkHZfqb/M1STVtIGwxGEPc7mHHohX4+Z6cS/Y17F8diktF94o94evngXshH2Pe4ZuaVcoFtyOw2Kc35j3fOKtE9dq7GgPtWegG3/FeeBQ6F0tPZHI1XoEHZ1fik6A0tBwzDl4Gu/Yq1NOn8Tj07X7EPDE8Sv1L0DnNmkGz6EGknpd7/k/cgzZovvQqKHFZOzJyX0TcS/ILkEdJ302lN+vJiC8Uk1jEJ1GtNjQyIKr4Y3hFIxD1W0/q/lnU1V5GIpk5N1qTkFWrkfTNJe37dPZvq6hvQxnxeDziiWqRp99w6mAi1n1Qr+7IkiP7N1rVtyHJ1OHxRFTL04+GdzAhcYWLC7TkJX1HU9+sRzK+kMRiEfG5dLQZGUBRRRkrF4f+NHOpjgui0e61SCyQkLGRiEQWLWjYxkvc2F9LYep+mtXVnmQiGZmby0hi1YpGfnOpZIRRhjxK3D6FOjcwJgGfC0vI2d2qOfl8fpwyNBnmyI2joNHuVEssIImxEYlEFtRi2Ea6pItQeWsvTWpprn1eJCXbDj3Jw1pSvMDHkM0MjSzVKG4dpk+71+fyJCUTmYgkdl40fc8N7j22cjRhiMu+6T/H0xjaONiZTAQiMuLyZtG0K7W3FxWPLLnM0d5JLclcwNlFJCKpbQfq6WFNkqLVsBzVsfdLlV01657+cjE0QjBcD8tTkPwdvd/OhiRc2mUiIZk3e4/WRT3RXCtfni9Xx/W3+bK8xMiSO6yuDfKuBNLwpqY6m1tQy6He5Fb6d5aFqbR/Vley5+qwzNycZBIrajXyG6oo6VUZWarRV2cq7DMNtGeusdHhT7tTfS6NUhPOxlz6vabvoRuaxma43hiqp/nHJpG90IpG7i8a2/69vPKfjjxH3lma3dyK3tqoXl78EihyKPNqHMUm3qKs6jhdRTZlJMVRfMrD56c4CrMoPTGert/XX+mqTiFlpSdS/PX7+n8SUgYF5WRepbjYRLpVlYwZTHMBPebSEBefQg8r9AUKys5I0nO9HMpcepCaQFeSOLtX4oEKHqdTYlw8pVQUoDKH7nD2T7j5uBIH9iI2Kw+XpztJdCUxvQp1Q0mZ3w4ga5dZFKnPo2rQhht/NZOeFqp/7iMtcZYalJTDXY9LuEmPKw2rOvZ+mbKrph0NlosBqt12uLzd5NKXfJeelv7yUBEvW8f1tfkXRecse2wotYlIdW3ApesOd3/y3SLv8zyK7AxKqqwtvRDVbO8cetszhyL7DiVdSaT0anXEReirp08p48YdyjZUP/4ieOr/cCO/vwg5Etf0QvfdnRH262K0k+pOMxh/A4oHV3ExOgIBH85Hql8kzs5viSovOVOm4P+6tEBA8x9we0sv3UnGf4H8e9eQcH4jxg/Zjmbf3cau9yqau2f823g1q2EroSByIUZuNsfibZ8xR8n4m1HhUdhs9B3yBZLarkTgrGo4Sg088PgCCPh/aRNi/O0okRY6Ad1HfIeCfgvwUR/mKP8r/KUjS9XdWFwqaApPh2ou7GEwGAwG42/kL56GZTAYDAbj9YPNITEYDAaDYYD/prNUFuDZswKo96FgvBgqeT6eFVT1x3iMfzLKgmdcWbLWUMSzRxm4nfm4RIWlhlCo7Sxndn5deb2cpeoeDk9pAbPGPTBu4kS8P30Olmw8iMt/VK8CPts5FFZWg7H9xX7fy0ABfvm4Oaw7fYm/XNBemYzQ6cMxZ196zbzs1HR4rwNl8vwMO4dawWrw9lLSS/9dlDe3YkSLNhgdegM1+iqoTMHaHlZwmvKT7gTjdeP1cpaUhbjfryEPAggEAqiepuLM+vHo4Pom5hzJfG7f0n8LyuRtmD50FnalsbdS9a4tjzMycTerht77azi8v7eslEjeNh1DZ+2C3uhr2oZVjfefjjId22etxL3Ru7F3TjuYFJ1m7Y/B8RpOw/Jg3WU61m/ejMDgfTiVEI99Q59i42h/fFvFDbtfN5SP4hERdgpJf7K1WOpttj488DO2T3ThXplqgBoO7+8tKyUexUcg7FQS9EZf0zasarz/dAQNMeZAMqK+7A7rUj0ja38MNa//N0tBXfT/cjmGSyKwcWtc8dSJQYV0ysGlr0egbX0LmJjXQ5t3vyirWl8dVXvVE1zYNAFdXerA1NgC9q37Y873ySXfPPSq9+tTFC/A6c86w31YEK7nX0HAO27oMl+3r6W+9OWHY2Y7L8xYvwn+XZ1gbWwM6yY9MfvQba5b01Ft1XQD6M0jhyHl/9Lou1d+ESt6e2BYYKouLyrcO/kF3nWrBzMTSzRo54vVyyeiXfdFmqtPD06FR7tZOFJcGHKcW9wTHr7BusPy4elRqNdr1xcsK4Nq9GWRpx3CgkGeaGjJ1RMuLPdBCxGulpYvOI3POrtjWNB15F8JwDtuXTD/TIE2zW09MWbuXPRqYgXL7uuQmlc+z+rmcAlfj2iL+hYmMK/XBu9+UdJe9Nqwsng5cuO3Y0bv5rAzM4aZbTP0mByEkipRxXyrHmHf5HbwGBOKjCKTcSPAb0e5w+vjo3iqO1VEftgH8HzDH18sHQbPBpYwNqmDZv0W4ujVc1g/uiMaqe1m3RidJ+9Aslz3EEfF/YWeMjVU31X3cXrFYLjXM4eJZUO099uCuKdlna1++3DXr4Rgas+msDE1gpmNC7r7B6GoGRScXYIenu9iYyJbN/CXof7pyGuDIpG+aCcmm7Fh5bZGyqJt3sYk7bVZI05sSCE9N9SbJBBQvd6Laf9vsXQxfDUNaiSmWt5b6ZZ6a6VqqdorKT1kINkaN6fRm07Q5fgL9MPSvmRv1IxmqaXfDar3a/dQrFhRPJceJUfR6YBBZCtqSCMDz1BU8mPD6cv9jgYZ80hYryfN3x1Jly+G04q+dUmkFmlWG+4FVNPLUm6fTIN5LNCv/F8GA/eW2x9XkbaF+llLyWnwWk1Zn/1+AfW0ExDfbrwmNEOizGXDM6BQr9euyhcqK/1q9OUovEgL3Y3I7u0lFB6XQjcu7KT3WxuRRb8gulP4iJKjTlPAIFsSNRxJgWeiKPkxV5l1aRbYvElTvwqh3REJlF0mz1p1FAjqUe/F++m3WK7+rR5EjcS1yHvrLc1WbnptqKw4XuW9feTXQEYO3iso7GI8XTryFQ1pIiNbn63VzLeSMrb0JlPjnrQhXbvvmfLWeuphbEXv7nioOS6Npm3zjMjVbyMdi46lqIMLqUcdPoFvRV4f7aTI2Et0ctMocpZYkM+2+5pnKu8vUiopU0P1XUE3g/pTLWkTGrJWXY/O0vcLepKdgE9248O1cRqwj1pxZY6rhOp7r6HjlxMoOmwp9a4rpsbTTnIlxlWFyxvJz3saffeccDjjVfEvcZZ5dGhMHRK3X05XFQqDCumaBlW8sbsaJT3YNpAsZN3oa65BVkvVXq2i305KDSYeLd7kWq10vs2/N40NTKyCer/WWepVFD/7MblIW9OCGO3eiwbTp+kgxdR9fcm+lXk/jiNbSUf6MlnxQqrpZSnrLA3nUb/yf1kM3Fumo1dQ8so3SFpnBO0tjrqQ4j73IPGLOEtDCvUG7KqmumWlV42+PAUpdGbPXooskZan61z+JfUmklaQv4DOfuxC0tYLSBd9cZq7BdwpTnNZG2qdpbjHhpL6p3xA2wZakKzb16T2TwZt+Fy8XLms8iKZ3UgqWyX8yUHSij6L5mpENfKtvB9CPhbG1GN9OpcHJWVu7kWmtYbSngpMpGnbkv60VbsvO0ceHR5rS8I6o+lQUadReJkWtpGQ04xfuAPD/cVzZWqoviuu0oqO0rL1qDCGFrQW65ylYftwBqIBMiPqtfmurtwUlBIeQKtCo+i5JsP4S3j9p2F1FMoLwZNIIeEVVk0hnWcE42IJbz6sPN3hpEpB0rXC6qnaFyQg/hrg2rYdije+EjSC3+aj2DqxWZXV+6uj0F619PG5/JkUz7PzZFJIIYe8kF5INV0fhvOoX/m/LNW5txDJSTdAru3Qvlixmc+l2/jFvi9USaG+crtWhCFb61WjL4/YEZ061UHsupF4q2MbtHB1RddlUShUKlGBIH8p+DAxNdNrE56RcUn941vB090JqpQkcM3hBSjg2mA8yK0LylaJznAXX8OlGK5GVCPf/DrvYFgvGaIOHsJtxR848mMUjHsPQa8KTKRFAGGxhjAPRlwZCRyc4Vx0jieFTMLj2pd6HraK/UUpDNb3wiQkqvuE9h242qyDZwpTE7VEuhrD9uEMhHF+Djg7yxMdBk7C/ICDeOg2CbN92+O5ZsD4S/h3mF2Zyjm5XFg0aow6/BdUSOdalwhcp8P5iuqpinP3KLnHK5N+Vz+rVkUvIwCuT73fMC+iel6al33+OQzmUb/yf1mqcy9nfaUKPIG67GqAF1GoN4AhW+tXoy/Hs0jM690PyxOdMfbLYOw7fAR7ZnjWTN7LoVHA55zwi34RU+dT26ZKwefqCJ80tq1WvmGJvsP6wuz8Qfxw5Sh+PGuCPkPeRvH7UTl4PB7nIsuiPlcxL9BfqO/RW991fYI6TN3V8hiyD2cg+Gz+HQnHV2KwUyFits1A16ZtMG7XzeLvzIy/ln+Fs8w6sQHb4+qg77tdYMRV4kaO9uCLmmPUmg3YsKHkb/3yUbon1Kgbhe6fHPlXr+Im6sOxkRDCRo6w54vQfNSaMs9vWL8co1qU225b6AinBoSUq0lcp6hD9QdOrZuN5YduQuzSDI0pETGXSi3TVyQiNjEfdZ1dYP4CJVCt9FXAyz5fHoN5pFSc2BqIiJw2GDn7/xAcfhFxO3yQvXM1QhLKdcfci0+V7+XK2rFRfVBqIhKLjU9QcCPyooGWQCgEjxsZlryUKPHgvlrAuQKEjeBoz4eo+SisKW2XDeuxfFQL3U3VQ7+teUg9sRWBETloM3I2/i84HBfjdsAneydWhyToQihBHnsIYdcc4Ld0IUZ0cUPTxg6wllbmBKqJxgEUkY+rV28C9R3BNYfq2VCDGC7NGoMSY1C2SsQiMb8unF1MqpVvNaZvD0d/q/PY/tH/8LNJHwzuXvTDjpelqv1FCQbru7gxnBoSbiQkcmPIItSzD7p/GrSPOdcMTmBrYARy2ozE7P8LRvjFOOzwycbO1SF4rhkw/hJeQ2dJePZHOq4nJyMp9lfs/2oC3h4ZAuWw1VjcT/2uKa6aQrr8DALm7sW1XBXkmRFYuvwActoOgreToHqq4mJ3DB/hhjuhS7AhOgsq1VPc+GERZi7YizSh5Yup95eDb2wEI8pCxq0czUiq+qrnZXnZ58tjMI8GlP/LUJ17uY7O9b134XZ/JxavOIN7chVyr+3Hiq0XUSw67+wMh8Lz2L8zGc+4DutBVCD2RlfS29SAQn31ysqAGn05BHXsUIefjjNh53Bfno/MyA2YuyUahYpCXX75MDYyAmVl4FaOElz0VUZ+JgBz915DrkqOzIilWH4gB20HeYNrDlWwYfl4hXDzHQ+vR6GYu/QEtFXiLFZ+EoS0lmMwzktcrXxrMOqGET52iD0dBfP+w9CtxsQ+DPcX5cvUYH0XtsDgIW64t2MRVvx8D3KuDl/bvxqhl4pqpSH7SLhmcAGBM8dh5vrz0DaDDKTfz4fQ3ArqZqB6HI3vt/6IpFxdkIxXj+7b5euBZoGPSD1oIPB4JJRZUn23PjQ54GfKLLPuRr9CunoRgMyqG/kOdSVzkYhEfAGZugyjLVdKlg1VR9WeCpLpu/fbkY1ERDKZiITmzei9dVFUtMZAv3p/FRTFC6Jp2RsWxOcJyHL495pTetOnWdQhpQGlZM/zT04hB4kHLYnXLlKotmp6GcqthuXQn0cuTAPK/6XRe2+ZxSmauyl281ByMRUQX12W3L19ujYmUd3xmqukvEV7J7UkcwGfRNx1qW0H6ulhTZIKV8Ny6FOor4Jdq19WBtToy5BNv63qSw1lamV5HolqeZLf8A5kIi5ZeFYQvYzesOATT2BJw7/PrTDNzy/wkZFVN18a6mqusRFfYEouw7ZQcXMwZEOO5+LlQr51+FPqXp9rg1ITLu8SsvOaTnu0MvrVzLeW/NPTyVHcmD44U7lqsbptS6U+tL3UYqSTUxxI2n45JenqKqkX4HSQUoPJJ3Qn9PcXFZWpofpOeVcocHhTMtXZzKLlUPJ242ygWw1r0D5cucQFjSb3WmISSIzJSB1Gi2G0UWeg7J3vkbnQkaafKY6R8Yr5d6uOKHOQef0mssR14eRoXcEojnujvXsdN/80QYMm9WD63Oc6JXIyuetZYtR1coS1gWGgPCsdKZkFsHRwgq1x+VEQF1bGdaRnG8G+SQNYVHe2U/EEN5PvQFmnCRrXLkpI9dL3PC/7fHkM5VGOrFspuJMjqUJ8Vb+3oKAAQvlDXLuVy9m+IVIWtkKPoz7IT1ypu0OFpxnXkPanDPZODWEp1p3WgzInE9dvZkFc1wmO1TXMC5SVPOsWUu7kQFKF+BRPbuF6hhzWjZ1QpwJdWMWTm0i+o0SdJo1RHH1V4EZAd7n28qdJAzSpZ1puwwLDNqwwXq4NZlxPR7aRPZo0sODGVGWper5VuLvVBy1XNcGhuDXgBqc1j77+orIy1Vvf1dev4VauJRycbUsWAJbGgH04A+FWyh3kSMqlSfUnbqc94+qAHYx0pxivFibRxXitUd3+FoN6hqDBrLkY+YY9CmK+xZwPv4Vi+mlEL26ru4vxOqN4cBUXoyMQ8OF8pPpF4uz86gp1MxgvD3OWjNecHMR99wU+/3oPTif8AV6tZug2eiFWz38HjV7F6IPxF6PC/f95o+mHF9DQezG2Bb2P1mwoxfgbYM6SwWAwGAwDvIarYRkMBoPB+GthzpLBYDAYDAMwZ/mPQomCZ8/wl4vWKwrw7Jlcd8BgMBiM8jBnWRrVPRxZ/j4mLz+Cu+V+0K26dwTLJ3+MbVde4fYZz3ZiqJUVBm9/gZ0BXhglUtb2gJXTFN1xNZD/ho2TJ2Ptz+XSq7yNQ4vfx+zQ+BfeLu3lUCI5dDqGz9mH9L/6xYPBYPwrYc6yNJSFmENbsXnhJMzer9Mw1EFPYhEWvBO/3mZ7TRWjuIGI4K04lpRXxlagR/j9YDB2/VpKP/MvhZD3OAOZd7NKNEUZDAbjJWDOsgL4dBd7Pv4Uhx5UY78wxj8IIdw+PICft0+EywvsC89gMBjlYc7yOXiw7jMa/Qp34uN5R/BIj7/Uq3SeH4YPPN+A/xdLMcyzASyNTVCnWT8sPHoV59aPRsdGljA2tkbjzpOxo7RkOzcqyrn0NUa0rQ8LE3PUa/MuvihS6ufGSeEz28JzzFzM7dUEVpbdsS6VG7vpVeIvjwr3T6/AYPd6MDexRMP2ftgS97R443E1FavG6y6+EPpU8Z/i4FQPtJt1pGQUKD+HxT094Bt8W3echkMLBsGzodpmlqjvPggLw2/pRq0V2SQPF1f0hsewQKjNo8aQKj2DwWDo47VzlrlJu/DxO23RrGkb9Jz0Dc4/rvnRH7+ON1Yt74fc7bOw4HiW7mxZVPf3Y0o/f4RJfRF46gJ+Dp6EWidnoP+YYK2UlOpP3IqPwo5dN9B52UH8fGoHJteLxrK+zTFgT218sONnRB5ehjfuB2P6p7tRMoiV49cDZ9F07l78cmYXZjnGYOmw97HttvoGFf68lYRLO4JxtskUrN08D29bP8Hhaf0xMdwS7wefwrkfV6BD2v9hyLigiiWt0rdiwpAliG0yG7tPn8Gujxsj5mTJt0XVo8OY1n8iwi3fR/Cpc/hxRQek/d8QjAu6qbuj+sh/W4Jh7x+GyaQdiIw+jf/5SvDjtMGYd+oZd1WJJ7cSkXTrz5KpXMpBZnIi0h6qXyIUiF72HkZ8mwvvTb/gStxxrGqfijWjpiA4oxKb1OZrtjFMTHmgccAGy4rBYDAMod6U4LUh+zhNbiwinnr4pfnjU+2BIVSpoH910WzULiabsWGUp0ihLf1qkcRlOp14wl1KWk7tJXY0Ply9u3QVlM5zQ8lbIqH+JZLtlHd4LNkK69DoEsl2urywDUmcZtAv6v2QNc+IqceGEiV+5YNtNNBCRt2+VqvEazddF3cLKM6zISX+sijo6oqOJC2jCl9IMQtak9hOvfG4YdX4MujS+/am+8Xp1aBTha834Qipt7zWr4r/hLb2l5LJuzu5mHTkH6NJ9lLyWnWDOyiglDN7aG9kOpc6LYrrK+kNST2aeFQd+vM2UW+eXbLRexXKisFgMAzwWo0s5THhiEgv0SpUjyoeRhzGL69iFYfAEePXfY4ufwThgyU/66YMi6iC0rkOQYlkO3hGMkgFDnAukWyHVCYBTy6HvDhTPBgZlyjx86084e6kQkrStWLZKb6JqUamR40hJf6yFCJJK+GODiUS7jA1NdGJ5VZfNb4qVEcV/3nEcOzUCXVi12HkWx3RpoUrXLsuQ1ShEkplSU0obZOyVL2sGAwGozJeK2cpqG0Da35ZsVt+LRvYvKJFHAInf3y9oCMyN32AZRfzy3zXM6h0rkat2F5em7cCFXf9aBXZlcqKV+EaUuIvj1Ir4c7drztRhuqqxmvzp1KVnwpXQrOJoi7z1VPFL88zRM7rjX7LE+E89ksE7zuMI3tmwLOM4fVTpbJiMBgMPbxeztJlAhZNawMLncPkGTXBsCUfoYs+ZZ+XQoim0wIwr206NszdipvFPsGw0vnLoOnci8i/Cq1ofaMKlRb0K/GXf0KIxk4NQTcSkFgi4Q55sYR7NVXjBbVRpxbhdlpq2d9T5t1E2l2gjp0dBJzj1K+KL4BQyONGwoqSb5bKB7j/h86RymNxKOwaHPyWYuGILnBr2hgO1tJqvHC82rJiMBj/DV4rZwl+bfRZcxaxZw8gNGQPTsVcxA5fx3K6ezWMsAVmBMxBmz8z8KB4IGRY6fzFkeNMwFzsvZYLlTwTEUuX40BOWwzydqown/qV+LX3lCBEi8FD4HZvBxat+Bn35CrkXtuP1aGXdFO8hlXjyyDphBGDG+Pmt7Mx/4dk/MnZR/EHN3Kc+Tl+kHfAyKHNuRjJgCq+GM7ODig8vx87k59x2X+AqMC9KBbiF9SBXR0+0s+E4dx9OfIzI7kXly2ILlSgsMjH6+VVlhWDwfjPoPt2yVBTeoGP7pSWfLq4qC0ZCYoW+KgxpAQfSt5SKfmUSLZrVfWl7Wl5iWQ7XV3RgaQNJtMJzVoV7hmZFXXzHUqu5iISifgkMHWhYVuu6NKjXcwiHRBMpXTv9SvxP0ceXQkcTk1NBcQXcXFYtKSh3m4k0SzwUWNANb48eYm0fUpnamCsDU/IF5FVcx/6/HhG8YIcQ6r4ylt7aVJLcxJwz4pEUrLt0JM8rCW6BT5E2b+tor4NZcTj8YgnqkWefsOpg4mYOq1O4a5WZJPSC3zUx4ZU6RkMBkM/TKLrZTGkdP6CqHLv4vrNP2HSoAnqmVZl7Kxfib88ypwMXLuVC0sHZ9hWJOGuTzW+AlTP/kD6zfsoMLWHY30Lbrz4PHpV8VVPkXEtDX/K7OHU0PL55xVPcOt6BuTWjeFUR6o7WU1eUVkxGIx/P8xZMhgMBoNhgNfrmyWDwWAwGH8DzFkyGAwGg2EA5iwZDAaDwTAAc5YMBoPBYBiAOcv/Eio58p8V/E2CzGoKkHX3NjIe5ZZsQMBgMBivAcxZVkROIg6unIZhfXugW48BGDUrACdultry5jWl4JeP0dy6E75MrMo2czWNCvcP+sPddSACLld9M19lciimD5+Dfel/R5oZDAZDC3OW5VA9OIqZnTvCNzAZ5m17oV+PZqBfvkC/N97DlqtsH9FilMnYNn0oZu1KQ1XcmOr+Icz97BLe2noIK3pYV7niUd5jZGTeRVbV/SuDwWDUOOx3lmXIxYkpLdHvSCd891sI3rPTdek5ZzDD82183+F7XNvmA1Pt2deOgjMfwLXPbxj7exTmu77kJoHyc5jdqgcihvyG6CVu7Af+DAbjXw0bWZYm/zR2HcxAi7Gz4VPkKNWYdsK4D4bBXfQH7ugGl3qV9/PDMbOtJ8bMnYteTaxg2X0dUnMrOKcekuUnYfesPnC1NYWxZX14Dl6Gk/dKvuhVV+E/P2k3ZvVxha2pMSzre2LwspMoFVxZDMStenIBmyZ0hUsd7rqFPVr3n4Pvk/NRcPozdHYfhqDr+bgS8A7cuszn7s5H+My28BwzF3N7NYGVZXes02QwF/HbZ6B3czuYGZvBtlkPTA76HSWmmol2XjOwfpM/ujpZw9jYGk16zsah29rxqvziCvT2GIZATVgcqie4sGkCurrUgamxBexb98ec75M1Is8acuOxfUZvNLczg7GZLZr1mIwgfQZjMBiMqqAeWb5OPE3cSR8N8KSmLm7UY+JGinpURnb4pVDcWEVeEmsadaDszrDlUd7bR34NZOTgvYLCLsbTpSNf0ZAmMrL12Upp6r1Ic7+jQcY8Eti8SVO/CqHdEQmUXdE55UMKG+9IJs7D6esjF+hy5Haa6mFOVn02a8IxGE85lA/DaLyjCTkP/5qOXLhMkdunkoe5FfXZnKa5nn96OjlKPWmpesNUA3GTMp1CBtqScfPRtOnEZYq/8AMt7WtPRs1m0enbyRR1OoAG2Yqo4chAOhOVzD2g3aOVJ7ChN6d+RSG7IyghW0n39vlRA5kDea8Io4vxl+jIV0OoicyWfLamafaOzf1uEBnzhFSv53zaHXmZLoavoL51RRrhaDVl0kxKSg8ZSLbGzWn0phN0Of4C/bC0L9kbNaNZP+eqDUb7/BqQzMGbVoRdpPhLR+irIU1IZutDWysyGIPBYFSR18tZZh+nyY1FxON8vNrPcwNjqj0wpJRC/stReHkhtRHb06Rj6l3NK6MKyvsaxyimbgF3uO5dRwXnFKlrqauxHfkeyNKd4W7jwmkg60SrUwqqqfCvoNS1XcnYzpdKgsulY/6c8+i0WnNU2vHoj5u7nvAFtZM2oIlHdbudcyhSt5F/77EUmMg5noKz9LGLlFoviCFtSrTOUtwtoKQ8FMm0yktGdiP3UUkWcrg0OZCk1WekNRXnLMXdaX1m0UN59OM4W5J0/FJzVMZZKhLoi3ZSajDxKBWnSpFK2/x709jARC467mVHZkcjyxqM/B0k1OqzaF06GQwGo/q8VtOw8phwRKQXlhJhVuFhxGH8UkOLP3giEQQ8FZR6V6xUVXmfDxNTs3Lz3GXPFV6ORlwBH7fDF+HDDz/U/M3bew0qRRqSr+VWU+G/kLs/DgX82whfpA3rww/nYe81FRRpybp7StAftwIFCfG4Ble0bVeyy7qgkR82H92Kic0q/97JNzGFWVEGCy4jOp7g1qUbSrJgAq/O7hBfu4QSUxnDxKToIR5kUilX2HLdcSkKEhB/DXBt2w7FqRI0gt/mo9g6sRkXXTTiyQ1dyhoMnd3FuHYpBuUtxmAwGFXltXKWgto2sNYJPxfBr2UDmxoStBTY2HFhZSEzo/w3LhWyEk7hUEQc/lChxpT3Vfn5kHOhCPlKTZiaP6krvP390NleUM14VMjP5xyMSAi+UhcW9yd19Ya/X2fdPSUYipuLAEoIIXwp26rDVWehTA64LIjAJ3W81f21JfcM9yIjrCxR6jxwaS4bHZ+Lnw9S26S60TEYDIaO18tZukzAomltYKFzmDyjJhi25CN0qSn9XgtuFOfBw2+HDyOzdMeqeoCDnw7C8OWnkEs1p7wvbOQIe74IzUetwYYNG0r+1i/HqBZG1YxHiEaO9uCLmmPUmlJhcX/rl4/S3VOC/rg5J+nohAaUgqtJJSM81R+nsG72chy6qXfoXYLYBc0aExJjLpUswOHcWWJsIvLrOsPFvJrVT+gIpwaElKtJnKPXofoDp9bNxvJDN7nomqExJSKmrMEQm5iPus4uqG50DAaDUcTr1X3wa6PPmrOIPXsAoSF7cCrmInb4OqKGBpacN3bE2E99Ufv4AoxZ9hNuPuPOye8javN0LIsw4UZdw9BAUHPK+2JPX/h53EPIx/Nw+Ka6gy/A7YjF8Ok9D2dyqhuPGJ6+fvC4F4KP5x2GNrjbiFjsg97zzmhvKYX+uLnr7sMxwu0OQpdsQHSWCqqnN/DDoplYsDcNQkvO4nxjGBkRsjJuIaeyeWuhG3zHe+FR6FwsPZHJOTgFHpxdiU+C0tByzDhUw1RaxO4YPsINd0KXYEN0FlSqp7jxwyLMXLAXaUJLLjpfjPd6hNC5S3FCazCcXfkJgtJaYsw4L4OanAwGg1Epum+XjGLyKOm7qfRmPRnxhWISi/gkqtWGRgZEUclSGAPK+5rFPFIaEFyi3V/hOY7C1P00q6s9F4aMzM1lJLFqRSO/uUQ5mqvVVfgvpNT9s6irPXe/zJzMZRKyajWSvrmkDa3sylJDcRMVJH9H77ezIQl3XSYSknmz92hd1JOiqxS97A3iRvkksBzOHWsX+EgHBFOZHCpu0eFPu1N9mYikJly6JHbkNX0PlZhqEBlLB1CJWfLp5BQHkngs0R6VSzOXKPru/XZkIxGRjAtTaN6M3lsXRUWpUtw6TJ92r8+lV0om3HWJnRdN33ODSy2DwWC8OGxTgspQPsXdG2n4Q2WBBk3qw6KiX93XmPK+EjmZ13EzS4y6To6wLj8Eqm483P2Z128iS1wXTo7WBkZUBuLmxoNZ6SnILLCEg5MtjMvMRSjw5GYy7ijroEXj2rpzFaPMycD19GwY2TdBgwqNWT3kWelIySyApYMTbMsmioPLU8Z1pGcbwb5Jg4rLjsFgMKoBc5YMBoPBYBiALXlgMBgMBsMAzFkyGAwGg2EA5iwZDAaDwTAAc5YMBoPBYBiAOUsGg8FgMAzAnCWDQ4GCZ88gr+LGPAwGg/Ffg/10pDSqezjy5ec4kKrbd5XHg0BqiQat3sLQ4W/ByUR7+t+GMuX/0KX5WjQ9kIr/9ZXqzjIYDAajCDayLA1lIebQVuw6dx98oXoTcQGUWYnYv2AA3Nr740AG24mbwWAw/oswZ/kcPJh2mISAzZuxmfv7344fcfH8Jrz9KBhz15wr2cCbwWAwGP8ZmLOsAoKG78G7vQA3r8ThsXpwKU/DoQWD4NnQEsbGlqjvPggLw2+h+JNf7hWETO2JpjamMDKzgUt3fwTF5Oguqi+HYGrPprAxNYKZjQu6+wdBc1l+Dot7eGJMaCa0Y1gF4pd4wsh9EWJ1M8OqP/Zgkmd3LPq1gDvKRfz2Gejd3A5mxmawbdYDk4N+R7HAWH44Zrblwps7F72aWMGy+zqkcolU3T+NFYPdUc/cBJYN28NvSxyessl4BoPBqJTXzlnmJu3Cx++0RbOmbdBz0jc4r/Ferxh5ClJvKWFkXQsmfAWil72HEd/mwnvTL7gSdxyr2qdizagpCNZM08rx25JheP+wCSbtiET06f/BV/Ijpg2eh1MaFZPfsGTY+zhsMgk7IqNx+n++kPw4DYPnncIzsStcrDlHHHZGK1SsTMGPx64gP/4oDl/TuuK8s0cQlmKBJs1FuL9/Cvr5h0HqG4hTF35G8KRaODmjP8YE39Q6btWfuJV0CTuCz6LJlLXYPO9t1EY6tk4YgiWxTTB792mc2fUxGsecRHx5eUwGg8FglKBe4PPakH2cJjcWEY9LtjrpnK+n2gND6I5Sd/1lUSTSF+1EJHpjNu0PC6Mw7u/Ark204N1mZCJ1oekRam2LAko5s4f2RqaTTgeDFNdX0huSejTxaD53lEXBA2Rk1Gsz3dWlS5ESTgGrQinqMXciK5gGyIyo1+a7pL2soJTwAFoVGkWPlUq6F9SXzOpNoCN53JXUNdTFuh119rAgr5XJ3J0F9OtMZzLjws6UJ9MqLxnZjdxHjzXhqMmhY/4OJGn1GUUXcocapRMxdQu4o4uLC/PqCuootSPfAyUaKoUxC6i12I7Gh3ORMhgMBuM5XquRpTwmHBHphRpPqUWFhxGH8Usprd+aQBm7DbM++AAfzJiB2Ys245SiK5b8GIGveqoFl8Vw7NQJdWLXYeRbHdGmhStcuy5DVKESnK/jrpuh1zg/OJydBc8OAzFpfgAOPnTDpNm+aG/JmdusF8b5OeDsLE90GDgJ8wMO4qHbJMz2bQ9LPh+133obHn+exZnLBcgMP4IEz9FYNaoNEo4ewW15Kn45l4nWb72FOoWXER1PcOvSDZaaVKsxgVdnd4ivXUKMZmiqhg8TU7PiKYTCpERcgyvadzDTnQF4pqYw0eppMxgMBqMCXitnKahtA2t+2V6dX8sGNjWm/qyGh9pD/oeraWlIS03FjeTLiPzhG8zsUV8njfUMkfN6o9/yRDiP/RLB+w7jyJ4Z8BRpLnLwYeezGb8nHMfKwU4ojNmGGV2bos24Xbipnhvl28Fn8+9IOL4Sg50KEbNtBro2bYNxu7RTp3z7t9HT9RZ+OX0R4Udi0apvP3i80x+tY48gPOlnRF51Qc9eDSCAAgoFIBQVR6yBLxRx420ld62S6WmlgotHCJHwtZuBZzAYjL+N18tZukzAomltYKFzmDyjJhi25CN0+Ssl8OWxOBR2DQ5+S7FwRBe4NW0MB2sp52J1KFNxYmsgInLaYOTs/0Nw+EXE7fBB9s7VCEngHFXqCWwNjEBOm5GY/X/BCL8Yhx0+2di5OgTcZS6TTfB2T0ckhi3Bzouu6NvPHsKG76Bf899x4IswXLLvgV7OnNsWu6BZY0JizCWUDKwVSIxNRH5dZ7iYV1y0wsZOaEg3kJCoXiCkQy5Hoe6fDAaDwXie12t4wa+NPmvOIvbsAYSG7MGpmIvY4evIjbL+QgR1YFeHj/QzYTh3X478zEhsmLsF0YUKFKo9DuXhQuBMjJu5HucfqZee5iIj/T7yheawMuNzly8gcOY4zFx/HtrLGUi/nw+huRW4yxxCtOrVDbWjTyCqMTeCdeByJ2iEAf2cEbn/J8i69oKbWH2bG3zHe+FR6FwsPZEJOecoH5xdiU+C0tByzDh4VfICIWwxGEPc7mHHohX4+Z6ci/8a9q8OxSXmLRkMBqNydN8uGWo0C3zEZDM2jPQtdcn+bRX1bSgjHo9HPFEt8vQbTh1MxNRpdYrmem5cEI12r0VigYSMjUQksmhBwzZeoqfaqxQXNJrca4lJIDEmI5GILFoMo42XtFc15IbT+Hpi8vg8jtTrdNQoEpaSp9iWxoSVuk9xiw5/2p3qy0QkNZGRSGJHXtP30I0C3XXNAh8pDQjO1p3QknclkIY3NSUBn0ubyIJaDvUmN+5ZtsCHwWAwKoZtd/eiKJ7g1vUMyK0bw6lORVvEyZF1KwV3ciSo6+QI6/IjPXkWbqXcQY6kLpwcrfEyM8nKnAxcT8+GkX0TNLDQflk1iDIHGdduIdfSAc62xrqTDAaDwagI5iwZDAaDwTAAWxLJYDAYDIYBmLNkMBgMBsMAzFkyGAwGg2EA5iwZDAaDwTAAc5Y1zbNHyLidicc1vAWfesOBgmfPINfskM5gMBiMvxLmLEujuoewic3Q4M3PEH6v4u3i5LFBGOhcH92/in5e21J5E1tHtECb0aG4UcMqHsqUtehh5YQpP72EF85JxMGV0zCsbw906zEAo2YF4MTNUjv5MBgMBqNCmLMsDWXhSlwKbp/9CitCr5foUxbzFCfWL8Hh6xmIib7JjfVKo0T69llYeW80du+dg3YmRaeTsW36UMzalVZBeH8dqgdHMbNzR/gGJsO8bS/069EM9MsX6PfGe9hy9a/S51Iiedt0DJ21C2mv0BjK5G2YPnQWdr3KSBgMxn8K5iwrQCIhXNgRipjyPuRRGIIPPYZEVpFEhwANxxxActSX6G5dyqzKR4iPCMOppD9LqaX81eTi1OdT8U2WN0Iif8KWxXPw8bxV+O7093jf9Cd8vuJHlEhTv0qUeBQfgbBTSfjzFRpD+SgeEWGnkPQqI2EwGP8pmLN8DiGcfN5Dq5RdCP5ZrdZchAq3vt+G48K+GOhVbsee/CTsntUHrramMLasD8/By3DyngoFpz9DZ/dhCLqejysB78Cty3zdA5z7it+OGb2bw87MGGa2zdBjchB+/1N3kUN1/zRWDHZHPXMTWDZsD78tcXhauu/Pjcf2Gb3R3M4Mxma2aNZjMoJKB1Ca/NPYdTADLcbOho9dqSI37YRxHwyDu+gP3NG9GOhNV344Zrbzwoz1m+Df1QnWxsawbtITsw/dLh41514JwdSeTWFjagQzGxd09w9CjNoTF5zGZ53dMSzoOvKvBOAdty6Yf6aAC3Im2nqOwdy5vdDEyhLd113BwakeaDfrSMkG8fJzWNzTA77Bt3UnVHhyYRMmdHVBHVNjWNi3Rv853yM5vwCnP+sM92FBuJ5/BQHvuKHL/DPaR/TaKx/hM9vCc8xczO3VBFaW3bEulY1KGQxGKdQ7+LxOPE3cSR8N8KSmLm7UY+JGinpUU8rPHJq9YaXkPHMvff22GdmO2k/FEsncteXtjchx6kHa2EdKFsP3Uq76vPIhhY13JBPn4fT1kQt0OXI7TfUwJ6s+mynlQTJFnQ6gQbYiajgykM5EJWuCUt7bR34NZOTgvYLCLsbTpSNf0ZAmMrL12UppakVpxU0K6l+LpE2G0Fp1mGe/pwU97UjA1+3fqrxH+/wakMzBm1aEXaT4S0foqyFNSGbrQ1s1AZRFcWMVeUmsadQB/Xu/GkyXZq9ZHgnr9aT5uyPp8sVwWtG3Lol0YtVUcI7muEqovvcaOn45gaLDllLvumJqPO0k5SofUXLUaQoYZEuihiMp8EwUJT9WckEOImOegGzenEpfheymiITbtLW/lEze3am1r5r8YzTJXkpeq25oDpXpITTQ1piaj95EJy7H04UfllJfeyNqNus0PUqOotMBg8hW1JBGBp6hqOTHVbBXLn03yJh4Aht6c+pXFLI7ghLKbqfLYDD+47xezjL7OE1uLCIe5+PVfp4bGFPtgSF0p6b8pcZZSshh6knK3DmYalsOoG/vagMviPqEXKWtaf7FdFrfXVLsLBWpa6mrsR35Hih2q5R7zJ8ayDrR6hSuIy44Sx+7SKn1ghjdpugKSl7lRTK7kbSP68eLyOGecZC0os+iC0lxdQV1lJYNszBmAbUWa52lIplzfjI7Glk2APJ3kFCrz6KLN18vovDyQmojtqdJx/J1ZyrCcLq0zlJM3ddnUpHJ834cR7aSjvRlMpfXrGAaIDOiXpvv6q4rKCU8gFaFRhHnFzkK6OzHLiRtvYBidInUOEtxNwooLsQnBpylghK+aEfSBhPpaPGe8gpK3eZPvccGao4Kzn5MLlxZLdBFYtheWmcp7hZQc3WJwWD8q3itpmHlMeGISC8s9e1PhYcRh/FLDf9MQ56fD8t3xsLH9DRCNQtzcnE6eDdutffDmFZKFMhLUlB4ORpxBXzcDl+EDz/8UPM3b+81qBRpSL5W0cKZAlyOjge5dUE3S90pDhOvznAXX8OlmGwUJiXiGlzRvoOZ7irAMzWFie5TaQEXZzy5oUvZANDZXYxrl2KQrTtVBE8kgoCnglLvzKLhdGnhw9jEpHj+nieTQgo55IWcTcx6YZyfA87O8kSHgZMwP+AgHrpNwmzf9rDUV9P4JjDV6pNVgQIkxF8DXNuiXfH+7wI08tuMo1sn6o7LUlV78U1MdTJpDAaDUZbXqmsQ1LaBtU74uQh+LRvY1KigJUGp4ryKcQ+MG1ofF7aHIu5BOEIOZqP76BFoJFBCUcrpqDjHKocIQj53XqHQ/kld4e3vh872FSdMfQ+EIu6pUvCFEPG5uNXXlArOQXPHwkqKRx2H+nrZALgg+SDuWUW5X70IbOw4G2UhM6P8N00VshJO4VBEHP7gnjGYLkPw7eCz+XckHF+JwU6FiNk2A12btsG4XTeLv2nWBEp1AQiFVdcxraa9GAwGozyvl7N0mYBF09rAQucweUZNMGzJR+jyMvpWlSJG2zGj0Cr5O6z+LAjHhAMwZpDtcwYTNnKEPV+E5qPWYMOGDSV/65djVIuK5LLEcGnWGJQYg0ulRsSKxFgk5teFs4s5hI2d0JBuICGx1G8g5XIU6TOLXZqhMSUipmwAiE3MR11nF5iXT6QFN1r04OG3w4eRWdoxqB7g4KeDMHz5KeSS4XQZQpl6AlsDI5DTZiRm/18wwi/GYYdPNnauDkFCFXytFgHnB3ncyFzBuXIdyge4/0eRuxXC0akBKOUqkop/6KrCH6fWYfbyQ7rjslTbXgwGg1GO16ub4NdGnzVnEXv2AEJD9uBUzEXs8HWs+gijmgiajsLoTg+w639nUOu9cehTgb8Qe/rCz+MeQj6eh8M31Z1xAW5HLIZP73k4o14FyjeGkREhK+MWcjTzoEK4+Y6H16NQzF16Aplch694cBYrPwlCWssxGOclgbDFYAxxu4cdi1bg53tyqHKvYf/qUFzSeUuhmy/Gez1C6NylOKENAGdXfoKgtJYYM87reW1MgSPGfuqL2scXYMyyn3BTvchXfh9Rm6djWYQJNwoehgYCw+kyBOVdQODMcZi5/jwecVlV5WYg/X4+hOZWuulNPoyNjEBZGbiVo+RG8JrHyiGGs7MDCs/vx85kLqHyB4gK3IvoYmcrhvvwEXC7E4olG6KRpVLh6Y0fsGjmAuxN076c8I2NYERZyLiVAyUXSbXtxWAwGOXRfbtkqNEs8BGTzdgwKlo3+nDnYKolbkMLL+tWpCiu05cdxSWrYTkKU/fTrK72JBPJyNxcRhKrVjTym0uUo7laQNHL3iBuNEwCy+GaM+oFKbcOf0rd68tIJDXhnpOQndd02nOjQHedKO9KIA1vakoCvohEIgtqOdSb3CS61bAciluH6dPu9blnpWQiE5HEzoum77nBxVYZeZT03VR6s56M+EIxiUV8EtVqQyMDokpW/BpKl2aBj5QGBJcsFc0/OYUcJB60JF5tn1yKCxpN7rXEJJAYk5FIRBYthtHGS8Urcaggehm9YcEnnsCShn+fq13gIx1ApYIk5a29NKmluS7vUrLt0JM8rCXFq2HVNk3+7n1qZyMhkYxLq9Ccmr23jqKeFF2OpmVvWBCfJyDL4d9rTum3l3aBj3RAMLFFsAwGoyKY+HONoURO5nXczBKjrpMjrMsMVxR4cjMZd5R10KJxbd05DmUOMq6nI9vIHk0aWHBjznKor1+7hVxLBzjbFq9mKQUXZ8Z1pGcbwb5JA1hUNOtbHuVT3L2Rhj9UFmjQpH7FzxhKlyHkWbiVcgc5krpwcrR+buSmeHITyXeUqNOkMWpXNqxTPeXynoY/ZfZwamjJjScrgIsnPSUTBZx9nDj7lJkmUTzBzeQ7UNZpgsbFkbyAvRgMBoODOUsGg8FgMAzAljYwGAwGg2EA5iwZDAaDwTAAc5YMBoPBYBiAOUsGg8FgMAzAnCWDwWAwGAZgzpLxcihv4+jXoYgu3k3nL0ZZgGfPCmp0Oz0G47VBoa7/6sanQOyOdQhLq/JWWYxqwpxlaVT3cGT5+5gwYYLmb+JEf0yfvRSbf0zEkxrbP1SJ5NDpGD5nH9Jf9x5edR8/TuuLqRE5kP5NP0B6tnMorKwGY/tfo179z0OZjNDpwzFnXzp7YfjPoUTK2h6wcpqiOTJWROKjvv44UGZPS0ZNwZxlaSgLMYe2Yte5++CrN+rmK5GV9AMWv+eBtmN241aN9EaEvMcZyLybVSJurAdl8jZMHzoLu9L+aV2hCg8Ozsa0422xNngyWrA94/4eKA+PMzJxN6sqtYnx70UIJ78tWPPGGXwwYycymL+scZizfA4eTDtMQsDmzdi85X/Y8eMFnN/UC3/uXowNF2pirlEItw8P4OftE+FShU1tlY/iERF2Ckl//sP2jlDEYePyMDSYMg/9a7Nq9LchdMOHB37G9okur2yPZMZrAt8a/T6ZAsefVuDr86VEGBg1AuvlDCKAffeucOXdwo3UIt2PfCTtnoU+rrYwNbZEfc/BWHbyXrFKhureSXzxrhvqmZnAskE7+K5ejontumPRr2pnK8fFFb3hMSwQqZrBYi6uhExFz6Y2MDUyg41Ld/gHxSAHBTj9WWe4DwvC9fwrCHjHDV3mn+Huz0f4zLbwHDMXc3s1gZVld6zjApKnHcKCQZ5oaGkMY8v6cB+0EOFFQ+H8cMxs64kxc+eiVxMrWHZfp4k790oIpvZsChtTI5jZuKC7fxBiSk1n5iftxqw+rrA1NYZlfU8MXnYS93SZlF/YgT3JbfDue0Ub2avT1Q5eM9Zjk39XOFlz6bBugp6zD+F28aA4F/HbZ6B3czuYGZvBtlkPTA76HcXCYflh+MDzDfh/sRTDPBvA0tgEdZr1w8KjV3Fu/Wh0bGQJY2NrNO48GTuSS724UA4ufT0CbetbwMS8Htq8+wVOFiW0krxzmcPuWX3gamuqsZfn4GUlz1TKUxyc6oF2s46UzArIz2FxTw/4Bt/WHudeQcjUnmhqYwojMxu4dPdHUJFRnx7EVI92mHWkZBQoP7cYPT18EXxbG3e1yzHvIlb09sCwwFTdNKwBG+tD9QQXNk1AV5c6XL22gH3r/pjzfXKpGRD9YeeHz0RbzzGYO7cXmlhZovu61ArPcXfqbT8vnAdN/emKD1Z9gaGe9rAwNoe9+2AsP32/JGx5Gg4tGATPhuq6xMXtPggLw2+VTGHrK79K26q2HHtw+QwtmgJVxGOJpxHcF8VC+xVRhT/2TIJn90X4VePHqm9LdRj3T6/AYPd6MDexRMP2ftgS97SUvi/XWzkNwZB26fh++6+lyo1RI6i3u3udeJq4kz4a4ElNXdyox8SNFPWoBqXtK9hInUhJGdvfJRtxc/r0vHrbbSU9DBtPjibONPzrI3ThciRtn+pB5lZ9aHOaggsjjbb0syap02Bae+QCXT77PS3oaUcCftEm6Pl0erojST2XUgJ3e8G5OeQqqU/ea47T5YRoClvam+qKG9O0kzn0KDmKTgcMIltRQxoZeIaiktVK/9pNv3kCG3pz6lcUsjuCEh5fpIXuRmT39hIKj0uhGxd20vutjciiX5BW+V+zATqPBDZv0tSvQmh3RAJlF5yjOa4Squ+9ho5fTqDosKXUu66YGk87qdkgXvkwjMY7mpDz8K/pyIXLFLl9KnmYW1GfzWnc1UKK+9yDpK6fkMYkGnTpEtajnvN3U+TlixS+oi/VFdWjCUfU+VbSvX1+1EDmQN4rwuhi/CU68tUQaiKzJZ+tacSZggsilLwlPDJy9aONx6IpNuogLexRh/jgk5XXR7QzMpYundxEo5wlZOGzje5zecsN9SYJBFSv92La/1ssXQxfTYMaiamW91a6VVnelQ8pbLwjmTgPp6/VZRS5naZ6mJNVn82kLsLKeUJb+0vJ5N2dGhtpyD9Gk+yluk3eC+jcHFeS1PemNccvU0J0GC3tXZfEjafRSfUDT7ZSf6kJvbuz+Gnu8UlkL/WiVTe4iAtfoBzzT9N0Ryl5Lk3gbFgFG1eKktJDBpKtcXMavekEXY6/QD8s7Uv2Rs1o1s+aGmEwbM2m+DwB2bw5lb4K2U0RCdkVnHuiv/28TB509UfSZDCtPnyeYn/bT4verkuiWj4UrDFgIV1c6E5Gdm/TkvA4SrlxgXa+35qMLPpRkOa6/vKrvK1yF7N20WArC3r3O60sgeLqCuoo5pGorbadcz0XHfSzIYuB2+nRC9pScTOI+teSUpMhazVt8uz3C6innYD4duPVEegopJiFbiRtNoeiKldVYLwAr5ezzD5OkxuLiKf+8Kf541PtgSHajqQm0DhLEQldvOnjTz6hTz75iKaO6EIORibUfPIhuquOR5FKa7sak53vgRK1jtxj5N9ARp1Wp5AieSW9Ia1DI/aqHZuWwrjPyUNcsbPMCh5AMqNetFkTOIcihcIDVlFolPb5grMfk4u0NS2I0ame6JySuFtASb4LUujMnr0UmV7UlSjo+so3SFJvIh3N5w41nayYugXc4ZqpjqxgGiAzol6b7+rOKSglPIBWhUbRY6WCUtd2JWM7XzpQkkk65t+AZJ1Wc//Oo33DLUjaO5Aeai9y6NLVfT1lFkWS9yONs5VQxy+TueCTaZWXjOxG7qMSy+RwYTqQpNVnFK0RLVF3dhLqv7VIPoQL4vBYshXWodGHil5fCunywjYkcZpBv3CdgcZZinvQhuJIlfRg20CykHWjr9O5cxXkXZG6lroa25FvSea4IvTnOq9OtDpFX3dsyFlmUfAAGRn12qytKxyKlHAKWBVKUY+5E4ac5YuUY2lnWRUbV4Yigav7Umow8SjXrevg6vo2/940NjCR+7fhsDUdvLgbBZRqkM+dM9B+qlRPKkNXf/oEPdKd4GrDnc3U21RGPdbf4mxWQCln9tDeyPRip6u4zrVXST2aqDGw/vLT21aV9yiorxnVm3CEax1c+1nThazbdSYPCy9amawu219pprMZ194ySflCtlTQ1RUdSVqmTXKOcUFrEpdxllxI2weSsZE3bWMSOjXKazUNK48JR0R6YalpBxUeRhzGLzU830DPHuJWejpuJpzEnt2R4I38HpHfvANbtbUKLyM6rgD82+FY9OGH+FD9N28vrqkUSEu+hsLkJNwgV7RrXyJ+yTc1g3ElljbrNQ5+Dmcxy7MDBk6aj4CDD+E2aTZ821vq7qgYvompTiOSQ+yITp3qIHbdSLzVsQ1auLqi67IoFCqVUBYbiw8TLh3FyTDrhXF+Djg7yxMdBk7C/ICDeOg2CbN928OSX4jL0XEo4N9G+CJdHj+ch73XVFCkJXMP5+PJn3kQcWmQaUMrhm9sApOiSHgySKVcuckLgQLObvEEty7dUJIzE3h1dof42iXEZOtOcQiEIt2/1ALfXBgCBzg7F53jQSqTgCeXQ16UN54RjIsj5cPK0x1OqhQkXSuaNi+b98LL0Ygr4ON2+CJd3j7EvL3XoFKkIfnayyy9N0OvcX5wODsLnh0GYtL8ABx86IZJs33R3rLY8pXzIuVYmmrY+DkKEhB/DXBt2w7F+jaCRvDbfBRbJzareth8E5gWV0wdpc8ZaD8vlQcdwlL1h2/TEe2cVEhNTkEhxHDs1Al1Ytdh5Fsd0aaFK1y7LkNUIWdfjYH1l5/etsqvjbfe9sCfZ8/gckEmwo8kwHP0Koxqk4CjR25DnvoLzmW2xltv1QH/hWxZiKREdQG1Rwcz3Sn1+gpTE+6/ZRGacf2NMhtZNbeEn8FRhRb8z0FQ2wbW/LJVg1/LBjY1urKBh1o9P8G2Xbuw+3AUDs9phszwHYj4Q1fxVPnIlwMiIR9KhQIKzZ8Urt7+8OtsD67VQcUTQFTSXvXCt/PB5t8TcHzlYDgVxmDbjK5o2mYcdt0s/opimGeRmNe7H5YnOmPsl8HYd/gI9szwhN4k8O3gs/l3JBxficFOhYjZNgNdm7bBuF03weUA+dpMgq8syqMCUldv+Pt15h4WQMCVg1pYueqow+AacjnD8LmOjU9K7pouLB5P/X9lUZ/T/bNKcGGKuFxwSa8QVX4+5NwdQr46Xl3+pK7w9vdDZ/uXqUx82Plsxu8Jx7FysBMKY7ZhRtemaDNuF6pUnC9SjmWooo0rhLvOpVEorCz/LxN2KQy1n5qKpwieECIuSyqN8PozRM7rjX7LE+E89ksE7zuMI3tmwLM4Kv3lp7+t8mH/dk+43voFpy+G40hsK/Tt54F3+rdG7JFwJP0ciasuPdGrgdq+L5ZHpaaA1PVWd6IyVCquNHncS6fumFEjvF7O0mUCFk1rAwudw+QZNcGwJR+hyyv72YIE7T6ci3eU+7H0qwvaD+bCRnC050PUfBTWbNiADcV/67F8VAsIHRuhPqUiMbFkAQop5CgsGQ6XQonUE1sRGJGDNiNn4/+Cw3Exbgd8sndidUiC7h7DyGMPIeyaA/yWLsSILm5o2tgB1lL97kWZegJbAyOQ02YkZv9fMMIvxmGHTzZ2rg5BgkKIRo724IuaY9Sa0nncgPXLR3FPi1C7jgVUTx6hyi+vYhc0a0xIjLlUauGBAomxiciv6wwX85epitrOp4j8q1dxE/Xh2Kji3kLYyBH2fBGaj1pTJm8b1i/HqBb6ehgB50x43AhUUbJgRPkA9/9Qd5bqf6fixNZAROS0wcjZ/4fg8IuI2+GD7J2rEZLAJZDrvYQ8bnReqjNUPriPosdfpBzL8DI2FjrCqQEh5WoS9yKhQ/UHTq2bjeWHbtZc+RloPzVeT54mIpFLvj3XLoXyWBwKuwYHv6VYOKIL3Jo2hoO1tORFTG/5FRhsq4Imb6OnYyLCluzERde+6GcvRMN3+qH57wfwRdgl2PfoBWd19XqhPArR2Kkh6EYCEkstdNXM2pQj7/Fj5Mlqw+al2hSjPK+XNfm10WfNWcSePYDQkD04FXMRO3yLVmO+Gvg2QzB/aiukbF6MEPUbpNgTvn4euBfyMeYdvqmp7AW3I7DYpzfmncmB0PU9vOt2HzsXr8CZe3Kocq9h/4qtuPh8neYg5F0IxMxxM7H+/CPNiC43Ix3384Uwt9LOtfCNjWBEWci4lVPpSE5Qxw51+Ok4E3YO9+X5yIzcgLlbolGoKESF0XJQ3gUEzhyHmevP4xGXLVVuBtLv50NobgUzvhievn7wuBeCj+cdxk1tJhGx2Ae956lX5IrRslUz8NOu4mplEZRH6Abf8V54FDoXS09kch2yAg/OrsQnQWloOWYcvF7mhUd+BgFz9+JargryzAgsXX4AOW0Hwdup4poh9vSFn8c9hHw8D4e1mcPtiMXw6T0PXBHqQQxnZwcUnt+PncnPuHgfICpwL6KLHDXl4ULgTIybuR7ntUZFRvp95AvNYaWeThM7w9mhEOf374T28SgE7o3mLKHlRcqxDFWwserRMXwxfha2JZZ6u1AjdsfwEW64E7oEG6KzuMHJU9z4YRFmLtiLNKFlzZWfgfZjOB4VHh37AuNnbdOG9xyFOBcagLMPuPzJM3D08xUIK+iAQQMaQiCoA7s6fKSfCcO5+3LkZ0Ziw9wtiC5UoFBtYL3lxzPYViFshV7daiP6RBQa9+4HB676CRoNQD/nSOz/SYauvdy0IuYvZEshWgweArd7O7Boxc+4J+fiv7Yfq0MvlasbclxNugFyaY2Wr2wQ8R9F9+2SoabC1bAcj3+gMfYicph4hDRLTwpTaf+srmQvE5HM3JxkEitqNfIbupSjuZtyYzfTUBdTEvBFJBJZUIs+XamxqC6ND1cvIii7wIdy4yhotDvVEgtIYmykvX/YRrpUtMqiIJqWvWFBfJ6ALId/z53QLqSRDgimku/32fTbqr7UUMYjHo9Holqe5De8A5mIdQtWNAtDpDQguPQX/1yKCxpN7rXEJJAYk5FIRBYthtHG4ogLKXX/LOpqLyORzJzMZRKyajWSvtFlUnF9FXmZPL/wqEy68k/SFAcJeSyJ1x4rbtHhT7tTfc5uUhMuXIkdeU3fQzeKVu2pF2hIpeSzvdQCmJNTyEHanpYnFS/JoKsrOpC0wWQ6wZlTvcBHZtWNfIe6kjmXBxFfQKYuw2jLFV0JVph3dRHup1ld7UkmkpG5uYwkVq1o5DeXSFeElaK8tZcmtTTXla2UbDv0JA9riW6BDxddXBCNdq9FYoGEjI24eyxa0LCNl3SLZpR0a+8kamkuIL46rVJb6tDTg6wlugU+L1KOZVbDchiwsSJ1NXWSOdGMnytYKlmQTN+9345sJFy95p4Xmjej99ZFaeu8GgNhaxalSAdQ6eRVdM5Q+9Efj4JSV3cimdMMza1l0CzwEZFrz37kbGFMJjIhCUyb0vCg+OL2nP3bKurbUKaxL09Uizz9hlMHE7F2cRGH3vIz1FY5csPHUz2xB30eV9QuFJSw1JPEtmMorNR9L2JL9cK6K4HDqamprv5YtKSh3m4kKb3Ah+vDlrUzIvdFsVwLZtQkzFm+BIrsDEqKi6eUh2onWIr8fMpXZNOdxHhKvvuU8iNnkbOkGc3Rs5a74HE6JVYUlprCLEqLv0I3HlRwrRSFWVwY8dfpfhlPb4CCx5SeGEfxKQ85N14BXD4ykiq4rsygYO/a5DztpEEHUx5F9h1KupJI6Vk12ZyV9DTzKsUn3aHsIr9qEAVlZyRRXHwKFZk9d88Q4gYR6knzsn98a/I9qDOsMofucDZJuPmYKi7RAnqcnlgm3NIoc7j8xyXQzccVP/1C5ViOymyc88NoqmvxDm29V7JitTwFj29y8SfT3acV31NT5Vdp+9FRcTw59MPoumTxzlbdcSl0q2HVLxPKnEy6Gp9EdyqqDFx7Sufa5vVKDay//PS21WryIrZUP6MtH92JUuSdnU3Nrd6ijfp/A8V4AXjq/3CdAaOmUN3Gt4N6IqTBLMwd+QbsC2Lw7ZwP8a1iOk6fXYy2/6KpEXnscnTvFY4+P53CZ63/JRl79ggZj3JLrT7VwRPCpHZdWEl1x68lT/HTtC5YVnsjji3qACPd2deKpz9hWpdlqL3xGBZ1KJeDZ9vhYzURqs1/IGyMqe7kfwh5Itb06o7dncPw6+J2eK2r6j8Q5ixfATlx3+GLz7/GntMJ+INXC826jcbC1fPxTiPNF4t/EQrcCBmBfmvqYtP5dej+Wva+/zXU371f84UflWXh2Q4Mqu0P1Tf38cNoE93J/woFiPy0A8ZefR+HvveH67+tq/kHwJwl4yWR4/bvCeC7tUG9V7nSisFg6EGFu7GXUNDUEw5sYc8rgTlLBoPBYDAMwH6Iw2AwGAyGAZizZLwgBci6e1uzGKbiX3/qQ4nbR79GaHTJxg1/LUoUPHuGAt1mAAxGdVAUPMMzOVd5FLHYsS4MaeV+ssr4d8KcZRmeITJgMiav+wVPdWf0o0Ry6HQMn7MP6QY73urcWw1yErB/xVQM7dsd3br3w/AZX+Foasm+IC+DMjkU04fPwb7nEqzC/YP+cHcdiIDL1Y2Le/bHaeg7NQI50r/pC8CznRhqZYXB2/XuQPAv5hXVxf8CyhSs7WEFpyk/cQfGUER+hL7+B1CkzMX498KcZRnkSP4pGMHHkpCnO6MfQt7jDGTezSq1bVVlVOfeKvL0LBb28MLob6/Dqm0f9O/lBqPLa/Fuh35YU20n9jyU9xgZmXdRXoRfdf8Q5n52CW9tPYQVPayrVYlUDw5i9rTjaLs2GJNbsJUIfw+voC7+FxE6wW/LGrxx5gPM2JnxAjMsjNcK9QIfRhFZ9L++EpL02kwPdGf+yTzeMYjMxe1oWWKpHzQXXKbPPSRkOWiH7sQ/CbXWnjuZv7marv+dv5ku9eN1BqNaKG7QKi8J2Y0PLzpByavfJFPX2XTu5fcoYPyDYSNLfaiV6dt5Ycb6TfDv6gRrY2NYN+mJ2YduQzt7JcfFFb3hMSxQq77PvVs+ubAJE7q6oI6pMSzsW6P/nO+RrHl9L38vd6a6qvhlpsxUKMjORj7fBGbF8lQc4hbw/eIrzPd20J3Qr0qfeyUEU3s2hY2pEcxsXNDdPwhFwvDyiyvQ22MYAosjNqzu3s5rBtZv8kdXJ2sYG1ujSc/ZOHS7KMMXsGNPMtq8+x4cdT8zMfgMR278dszo3Rx2ZsYws22GHpOD8HuxbH4+wj7wxBv+X2DpME804GxpUqcZ+i08iqvn1mN0x0awVJdb486YvCOZK4UiCDmXvsaItvVhYWKOem3exRfFdslH+My28BwzF3N7NYGVZXes09jAkMJ/xTw9OBUe7WbhSPEwTo5zi3vCwzdYd1y5Ar96I4GDUz3QbtaRklGg/BwW9/SAb/Bt3bE+9f+K8pL3XF3Ub+PKyQ/7AJ5dP8CqL4bC094Cxub2cB+8HKfvl1hFbz3n0FcHuYsImdoTTW1MYWRmA5fu/gjSXFTbsAeXr9DiKVBF/BJ4GrljUazuI6LqD+yZ5Inui36FZu/x3Hhsn9Ebze3MYGxmi2Y9JiOoOJOVlLnqPk6vGAz3euYwsWyI9n5bEPe09OcDAZyGDEG79O+x/Vc2Tv9Xo3Oarw1PE3fSRwM8qamLG/WYuJGiHlW+bVf1KTey1OzFySNhvZ40f3ckXb4YTiv61iVRvQmkEf8vt8+rMj2EBtoaU/PRm+jE5Xi68MNS6mtvRM1m/fzcvS+kiq+OshSKm1vJx0ZIFu5j6asfE+jRcztmKfWr0hecozmuEqrvvYaOX06g6LCl1LuumBpPO6kRN84/PZ0cpZ60VJPgqqq7C6lez/m0O/IyXQxfQX3rijSCuGo0IthSV/rkfMk2b4aeUd7bR34NZOTgvYLCLsbTpSNf0ZAmMrL12UraHb1yKdRbQjwjV/LbeIyiY6Po4MIeVIcP4lt50Uc7Iyn20knaNMqZJBY+tO0+Z1zNyBIkqNebFu//jWK5cl09qBGJa3nT1lsa42v2ueUJbOjNqV9RyO4ISsg2YEs9PNnan6Qm71KJ5nM+HZtkT1KvVZojvQr8BgWnDan/V5SXcvXWoI0rRyO+zZNQk8Gr6fD5WPpt/yJ6myu/Wj7B2npsqJ7rrYMFdG6OK0nqe9Oa45cpITqMlvauS+LG00htmqxdg8nK4l36TiOGrBVHFvNE1LZon9ynB8nPxoIGbn+kziTt82tAMgdvWhF2keIvHaGvhjQhma0PbdVksiI7KehmUH+qJW1CQ9aqy/wsfb+gJ9kJ+KVGlhyFMbTQTUrN5kTpTjD+jbxezjL7OE1uLCKeelig+eNT7YEh2kZXI1TkLMXUfX0m5yq05P04jmwlHelLtfp5GQeooIQv2pG0wUQ6Wrxno4JSt/lT77GB3L/LOcsXUcWvgOzLITStW0My4vNIUrs59fJfQ0dTdHteGlKlzwqmATIj6rX5ri4OBaWEB9Cq0ChSC/uXcZZVVnfvTuszi61FP46zJUnHL7VH+4aThbQ3BT7UHGrQ/4yCkld5kcxuJO0riZRyjvmTg6QVfaaRzdc6S0n/rSUbfucdprG2Qqoz+lDxBtqFlxdSG4kTzfiFc9QaZymmHhtKylX5YBsNtJBRt6/TuXPajlPcLaCkbhmypR4MOUu9CvwGnaUh9f8K8lKu3hq2ceVonKWkDwVx/kiLku5s7k2msh60Xv3iYaie662DWRQ8QEZGXHssMU04BawKpSiugirvBVFfs3o0Qf3mypXPmi7W1K6zB1l4rSR18yz4dSY5m3F25eqWInkVecnsaGTZTJK/g4RafRbNvXJUVOZXaUVHadky5xzjgtbiss6SawfbBxqTkfc23THj38hrNQ0rjwlHRHqhxlNqUeFhxGH88kpnP/gwNjEpXsTCk0khhRzy5wQqC5CglZpHuxKpeTTy24yjWyfqjkvxsqr4Okxbj8b6UzdwKy4c6ye3RcFPC9Hfswc+P5tjWJXerBfG+Tng7CxPdBg4CfMDDuKh2yTM9m2P54T9q6zubgyT4mlhHmRSKVdw2snP/Cd/Ik9kAlOZ5rCESp8pwOXoeJBbF3QriRQmXp3hLr6GS6Vl8wXCEpFknhEXhgAOzs7F53hSGSQ8rtzkRcblwci4pFz5Vp5wd1IhJelaseQR38QUJUL1Bmz5EuhV4DeIIfV/LWXyUoZq2LhShGpNYh182HRsBydVKpJTOEsaqud666AZeo3zg8PZWfDsMBCT5gfg4EM3TJrti/ZcBeXXfgtve/yJs2cuoyAzHEcSPDF61Si0STiKI7flSP3lHDJbv4W36vC56huNeHJDl7KZRGd3Ma5dikFx9S1T5klIVDfp9h2gE+Hiqo0pTE3Ka4wKYWZmDGV2lu6Y8W+kwubzT0VQ2wbWOuHnIvi1bGDzD9lmTatkLqyavuZLq+KXRgjr5n0wcXEwTsedxKeOl7B66U7uXcKAKj3fDj6bf0fC8ZUY7FSImG0z0LVpG4zbdVP3vas0L69gLxDwweM6ScN3lqBOs7onLhMrn3OMfNLkSQsPPF75Dkx9TvfPKsGFyUWiVFbyozmDCv8vjn4FfkMYUv83TNVsXHV4XFgCrpS5ojZcz/XWQT7sfDbj94TjWDnYCYUx2zCja1O0GbcLGtPw7fF2T1fc+uU0LoYfQWyrvujn8Q76t47FkfAk/Bx5FS49e6GBukGqy0tXxiXwuWzzQVyZV1x9uXqtbtIiocGOUqXibuSx/R7/zbxeztJlAhZNawMLncPkGTXBsCUfocs/4hcIQjg6NQClXEVS8SoSFf44tQ6zlx/SHZfw0qr4qgcI6se95fYNRKm1FOqhJjq2tkTh/UwuSfpV6ZWpJ7A1MAI5bUZi9v8FI/xiHHb4ZGPn6hCohf3LUAMK9qLadWCheoJHT6rqLsVwadYYlBiDS6VmDxSJsUjMrwtnF3PdmRdD4ySKyL+KqzeB+mpFfd2pMhhS+NeDgHuB4nEj0JIOWYkH9//QvZAoDSjwC7j3Lx5UXFpLHn+A+39on+Yqkn71f4PUvI2fJibiJuzh2EhosJ7rrYMFqTixNRAROW0wcvb/ITj8IuJ2+CB752qEaCqoAE3e7gnHxDAs2XkRrn37wV7YEO/0a47fD3yBsEv26NHLWVOeYpdmaEyJiCmbScQm5qOuswsqrL7CxnBqSLiRkKhdIKRBPauk+2cxeXj8OA8y7mWe8e/ltXKW4NdGnzVnEXv2AEJD9uBUzEXs8HWs2kjulSOG+/ARcLsTiiUbopGlUuHpjR+waOYC7E17vvt9aVV8fi30G9kX5qdWYPLak0jN4ToPVS5unlyNr8MfosGbXbkk6Velp7wLCJw5DjPXn4dWGD4D6ffzITS3en7KrgaU8sUtW6EZPw1Xr1YphxxCuPmOh9ejUMxdegKZ3EuI4sFZrPwkCGktx2BcleX5K0KOMwFzsfdaLlTyTEQsXY4DOW0xyNup4vpkSOFfD2JnZzgUnsf+ncncOFCOB1GB2Btd5KjJgAK/GM7ODig8vx87k59xyX6AqMC9KH7ckPq/QQzbWPXoGL4YPwvbEku9XJSm8BxCA87iAXdZnnEUn68IQ0GHQRjQUGCwnuutg7w8XAiciXEz1+O89iIy0u8jX2gOK10FFbbqhW61o3EiqjF693Pgyk6ARgP6wTlyP36SdUUvN638htDNF+O9HiF07lKc0GYSZ1d+gqC0lhgzzgsV1iRhCwwe4oZ7OxZhxc/3IOfiv7Z/NUIvlTOsnHtBvkFwad1Sd4Lxr0T37ZKhoaIFPmWV6TXK/RIPWhKvXvhQbtEOFVDyd+9TOxsJiWQyEgnNqdl76yhKs/Kk/L0voIr/HDl0eetk6tLAmPh8IYlEAuJL7ajdmE10segxvar0uRQXNJrca4lJIDEmI5GILFoMo4066feyq2E5qq3unk8npziQxGOJ9lBxnVZ5mVDrBTHFKu4GnyEF3Tr8KXWvz8UnNSGZSEJ2XtNpT1GkXB5CvaUk9dleagHMSZriIKX2y5NKFr1cXUEdpA1o8ol87pFQ8pZZUTffoeRqLuLsxieBqQsN23JFtyBIu9hDOiC47ApkQwr/laG8RXsntSRzAZ+Li7OdbQfq6WFNEt0CH0MK/Mpbe2lSS3MS8NVplZJth57kYS3RLfAxpP5fUV7K10X9NlakrqZOMiea8XPJKuYiNAt8RK7Us58zWRhzzwoFZNp0OAXFFy2tMlDPDdTB3LggGu1ei8QCCRkbcfm3aEHDNl6iEt3jXAofX4/EHp9TXFGlUiTQUk8x2Y4JK3Ufd/rWYfq0e30uf1Iy4cpQYudF0/fc4FqtmkrKPO8KBQ5vSqa6srNoOZS83Ur/zpILN3EZtTNyp0Wx+hdDMV5vmLN8FRQ8ppuJ8ZR892nxasvKqAlVfC4Uys68TvFXrutRt9ejSs+lNz0xjuJTHnLdqGFeXClfSRnB3lTbeRqdNORgyqPIpjtJVygxPavY0dYEyqd6FPUr4Tlb5u6hIWY89XKVcn98svY9qHPASsq5k0RxCTfp8fM+R4NeBX5lDpf/OEq4+VjXuZfDoPp/FajExjk/jKa6Fu/Q1nvP1y3talj1yw6Xv8yrFJ90hyoypcF6rrcOFtDj9ESKi0+hikxTPRSUzZXDlcR0qnr1VT+TSPHJd8s4Xy15dHZ2c7J6a6PBn9kwXm+YRBfjr0Uei+XdeyG8z0849Vnriqe/Xjue4VHGI+SWWn2qhQehSW3UtXqdNeuf4qdpXbCs9kYcW9QBRrqzRTzb7gOriSps/iMMY0x1J/9DyBPXoFf33egc9isWt3udy5lhCOYsGX85ihshGNFvDepuOo913ct3v4x/HuqlRRUvb3i2YxBq+6vwzf0fMNpEd/K/QkEkPu0wFlffP4Tv/V2h/TrK+LfCnCXjb0F++3ck8N3Qph5bbs94TVHdReylAjT1dPiXzJAw9MGcJYPBYDAYBni9fjrCYDAYDMbfAHOWjL8N5e2j+Do0GsV7ODAY1UERix3rwpBWyc8/GYyahDnLGuMVq8/Lf8PGyZOx9udyP4BX3sahxe9jdmg8/pY+Q5mM0OnDMWdfum5Hmqqhuv8jpvWdiogcqeZ3Fn89z7DdRwrpOyE6KSzGPxVlciimD5+DfeqGVXAGHzSWoe0XiVx9M4Yi8iP09T9QLNPFYLwqmLOsMaqnPq9M3obpQ2dhV1oVXYziBiKCt+JYUl7Jtmdq6BF+PxiMXb8WaWz+xVAeHmdk4m5WVXKtQ/UAB2dPw/G2axE8uQVbHMHQC+U9RkbmXTxXxYRO8NuyBm+c+QAzdmaUbRcMRg3DnGWNIYTbhwfw8/aJcKnCAk/lo3hEhJ1C0p+v+foqoRs+PPAztk90qfK2g4q4jVge1gBT5vVHbVYDGQYQun2IAz9vx8QKGhbfuh8+meKIn1Z8jfMlG7gyGDUO66rKk5+E3bP6wNXWVKPq7jl4GU7eU7+zqnB3/1R4ebyH9UV7ZD79FYveckP3TyOQBXk59fnK1O8LcPqzznAfFoTr+VcQ8I4busw/owmu8rirQaXK8hxPD2KqRzvMKpHsh/zcYvT08EXwbW08elXt88Mxs60nxsydi15NrGDZfR1S8y5iRW8PDAtMLR7Z6lfdl+PCjj1IbvMu3nPUdX7qcNt5Ycb6TfDv6gRrY2NYN+mJ2YdKjZYNqNyHfeCJN/y/wNJhnmjApd2kTjP0W3gUV8+tx+iOjWCpDrNxZ0zekVzmGynlXMLXI9qivoUJzOu1wbtfnESRyfPDZ6Kt5xjMndsLTaws0X1dqvZ80m7M6uMKW1NjWNb3xOBlJc9UShVsn3slBFN7NoWNqRHMbFzQ3T8IRUWnpvJ4K1H514deexpATz3ND/sAnm/444ulw+DZwBLGJnXQrN9CHL16DutHd0Qjdb2ybozOk3cgubgg5Eg7tACDPBtqysmyvjsGLQxHUbWTX1yB3h7DEFhhngRwGjIE7dK/x/ZfqzG7wWBUF/VPR14nnibupI8GeFJTFzfqMXEjRT0ytKFcNVA+pLDxjmTiPJy+PnKBLkdup6ke5mTVZ7N2K6uCOFr5pjnV6hfIHedT9OeeZFy7HwVq9rgsu99m5er3OfQoOYpOBwwiW1FDGhl4hqKSHxuOWydY/Pam+2W30NOJ0dabcIRLgX5leXqylfpLTejdEhViyj82ieylXrTqBheJIVV7zX61PBLYvElTvwqh3REJlJ1/mqY7SslTp05vUHW/MI4+95CS6yfnS7Zt04UrrNeT5u+OpMsXw2lF37okqjeB1Lq+VVG5VwtA84xcyW/jMYqOjaKDC3tQHT6Ib+VFH+2MpNhLJ2nTKGeSWPjQtvuazGiegaAe9V68n36LvUjhqwdRI3Et8t56S2Njzb61PAHZvDmVvgrZTREJ2VwxhdF4RxNyHv41HblwmSK3TyUPcyvqszmNe0IPhmxfcI7muEqovvcaOn45gaLDllLvumJqPO0kl1J19dAXr3Zf07Iq/5ooKsagPfVgoJ5qtr/jGZGr30Y6Fh1LUQcXUo86fALfirw+2kmRsZfo5KZR5CyxIJ9t9zVBFl5cSO5GdvT2knCKS7lBF3a+T62NLKhf0B3N9TJ7FJerbxq4NrDQTUrN5kTpTjAYNc/r5Syzj9PkxiLicT5e7ee5gTHVHhhSSgH+5VCkrqWuxnbke6BYF51yj/lTA1nRps9cnxa7grws7GnYqoXU1aIW11nd0DXass5Sv/o9F87Zj8lF2poWxGg3qDQYd5WcpX5lecMdtgFVe41TE1O3gDslaSjTeVVBdT9vHw23kFLvwIe6qxy6cLuvzywON+/HcWQr6UhfJnOhVkHlXu34JP23kmbPejV5h2msrZDqjD6k25uVM9XlhdRG4kQzflG7ae0z4h4bKLMoUuUD2jbQgmTdvqZ07pzGWYq7UUCJdD6lru1Kxna+VFJMuXTMn3M8nVbrjivBkO2zgmmAzIh6bb6rs4GCUsIDaFVoFD1WGoq3ApV/PRi2Z+UYqqfavWL709aSgqDDY21JWGc0HSopCFrYRkJOM37RHBaknKE9eyOppNpdp5VvSKjexKOaQ4POknJo+0BjMvLepjtmMGqe12oaVh4Tjoj0wlKrJ1V4GHEYv9TQ7Evh5WjEFfBxO3yRVgmf+5u39xpUijQkX9NOvYpbzcTGOQ0Q/skXuNJhCdZPaFzht7rqqt9XJW7D6FeWN4ghVXsNfJiYmlUyf18F1f38J/gzT8SFIdNdLYIPYxOT4nB5MimkUGsHUpVV7iEQlogK84wgkwrg4OxcfI4nlUHC48KUl9QgnpExTIoi5VvB090JqpQkXCtSYeKbwLREOp/LXxwK+LcRvkhbRh9+OA97r6mgSEvW3fOCmPXCOD8HnJ3liQ4DJ2F+wEE8dJuE2b7tYcmvWrxlVP71UGV7VkDV6qlArSWtgwcjriwFDs5wLikIyCQ8rhy087Bix07oVCcW60a+hY5tWsDVtSuWRRVCqVGPrgpCmJkZQ5mdpTtmMGqeKjStfw6C2jaw1gk/F8GvZQObqq4sMYAqP5/rnkUQ8tXK/zo1fKkrvP390Nm+KBIhZGYmEPF4kJiaozK95uqq3xuOW6v8r1KV/zimhGYPJvVFrjj1KssbwpCqfRVQp1uv6r5AAD6Pc76GvvGVRm0Lzu76Ve7V9ilfGFqbVQehOhKuk6749USF/Hyug1cr56vj1ZWT1NUb/n6ddfe8IHw7+Gz+HQnHV2KwUyFits1A16ZtMG7XTa6EazjeKtmzYqrSRtTl8FxJ6CmIZ5Hz0LvfciQ6j8WXwftw+MgezPCsTq1TtwuugvNqqCNgMCrg9XKWLhOwaFobWOgcJs+oCYYt+Qhdaui3B8JGjrDni9B81JpSSvjc3/rlGNVCK+CsvLEFH3z+O9xnToXD8TmYtSezgiXrhtTvn8dg3ILaqFOLcDsttWxHnncTaXeBOnZ2ECgNKMtzIy8hjxuNlOoNlQ/uo0R0X7+qvWGqoLov4vJhocKTR08qsFvFvJDKfVXROI4i8nH16k2gviMaPa/XzSFEI0d78EXNMWpNqTLi/tYvH6W7pxIM2F6ZegJbAyOQ02YkZv9fMMIvxmGHTzZ2rg5BguIl4q2Al7FnVdpI9ZAj9lAYrjn4YenCEeji1hSNHawrfQmtmDw8fpwHGfcyzWC8Kl4rZwl+bfRZcxaxZw8gNGQPTsVcxA5fxyr/ZMEQYk9f+HncQ8jH83D4projKcDtiMXw6T0PGjF85Q0ETl+E35rOwdovV2LtBzYInz0Le577RbQh9XsuK8ZGMKIsZNzK4QYyKsNxSzphxODGuPntbMz/IRl/cp2s4g9uxDrzc/wg74CRQ5tDSAaU5cXOcHYoxPn9O6EV3Y9C4N7oYmdhSNXeMIZV9yFuiVbN+Ei7erWKYXKhvojKfRWRnwnA3L3XkKuSIzNiKZYfyEHbQd5wqrBSieHp6wePeyH4eN5haIvpNiIW+6D3PN2K5sowYHvKu4DAmeMwc/15aIsuA+n38yE0t4IZ/yXirYCXsafBelptBNyLXh3w088g7Nx9yPMzEblhLrZEF0JRWMUaIr+KpBsEl9YtdScYjFeA7tslQ0dh6n6a1dWeZCIZmZvLSGLVikZ+c4lySEE3NvWhWkbuNP+8bqVC9ima0VRC9YbtogxlOfV5A+r3VBBNy96wID5PQJbDv9ecqjxuHXmJtH1KZ2pgLCC+SERCvoismvvQ58czihc76FeWV9KtvZOopbn2eZHUljr09CBriW6RiSFVe81CHCkNCC611PK5BRf6VffV16+v8iKT1gtIt7apwnDzT04hB4kHLYnXLYAyoHIf6i0lqc927l868k/SFAcptV+eVGwbxdUV1EHagCaf0KxW4p6RkVU3Xxrqaq5RwecLTMll2Ba6oitezQIfqVrYWHuspZBS98+irvZc/mTmZC6TkFWrkfTNJUNq1oZsn0txQaPJvZaYBBJjMlKr8rcYRhuLK4y+eCtR+deDfnvqR189VS/wkUp9aHtJQdDJKQ4kbb+ckkoKglZ0kFKDySe0x9m/0aq+DUnG1TkeT0S1PP1oeAcTEusWTRla4KNIXEbtuHa5KFbf0iQG4+VgzrJCFJSdkVQjyux61e8Lsygt/grdeFD6muG4lbkPKDXhCiXdyqqkc9OvLK/MuUNJcQl0sxLJfoOq9lWhEtV9NcqMYPKu7az5GU31eBGV+yqgfEqZV+Mp6U52cQdsEC5/GUmllP1z99AQM57663G5Pz5Z+x4sXpFryPZchaH0xFLhlqd8vBWSS3uGmBHvubSA+Na+dLC4XCuyZzWeraE2oqWQsrg6G3/9frGtqkYenZ3dnKze2qj9aRKD8YpgEl2MvwE5Ypd3R6/wPvjp1GdoXUPfnP9enuFRxiPkliwb1sGD0KQ26lr9tSr6zx5l4FGuUuPlSsMTmqB2XSvoS83LPPtXI09cg17dd6Nz2K9Y3O6flDLGvw3mLBl/D4obCBnRD2vqbsL5dd1hpDvNYFSZgkh82mEsrr5/CN/7u0KsO81gvAqYs2T8fchv4/cEPtza1KuxRVqM/xCqu4i9VICmng5sM37GK4c5SwaDwWAwDPB6/XSEwWAwGIy/AeYsGQwGg8EwAHOWrwKVHPnPCsrutKMPRQGePZPrDhhVpkK7KXH76NcIjYrGjnVhSKtyITAYDEblMGdZzFNEBkyF/9LDyHhuHzYV/vhpJd6fvBqnqrBXc8EvH6O5dSd8majk+u5khE4fjjn70rluvCKUSFnbA1ZOU3THL4DqHo4sfx8TJkzQ/k2cCP/pc7AsKAI3nuru+ddRkd1UuP/jNPSdGoEcqQyKyI/Q1/8AnttgicFgMKoJc5bFyFCPkrBjxVfYm17OrXHO6OC6ZQiJkcNOu1td1aE8PM7IxN0s9dZgrwjKQsyhrdh17j74QiGEAgGUWYnYv2AA3Nr748Dz3v9fierBQcyedhxt1wZjsltz+G1ZgzfOfIAZOzOqvA8tg8FgVARzlsUI0PC9oegsPI+DB8uOAlV3w3AgUoEOQ4bBubq/cRC64cMDP2P7RJdX/PMIHkw7TELA5s3YzP39b8ePuHh+E95+FIy5a87h3z/Jq0DcxuUIazAF8/rX1lRsvnU/fDLFET+t+BrnC7R3MRgMxovAnGUp+HYDMay7BBcOHkBasbdU4c4P+xGJNzF0sIPO4cmRdmgBBnk2hKWxMSzru2PQwnDcqmieVX4RK3p7YFhgqs4Bq3D/9AoMdq8HcxNLNGzvhy1xT8vsliJPO4QFgzzR0NIYxpb14T5oIcKLAs8Px8y2nhgzdy56NbGCZfd1SK0oXg5Bw/fg3V6Am1fi8JgbWukNlyP3Sgim9mwKG1MjmNm4oLt/EGKKN8fOxZWQqejZ1AamRmawcekO/6AYqC/Lzy1GD88xCC2a71TEY4mnEdwXxeq+26rwx55J8Oy+CL+qnVZuPLbP6I3m3DDd2MwWzXpMRtDvf2ruVJMfPhNtufDmzu2FJlaW6L4ulTtrwG7yC9ixJxlt3n0PjsVvJQI4DRmCdunfY/uvr3Bkz2Aw/vW8ds4yN2kXPn6nLZo1bYOek77BebUXqCn4dfDO8F4wiT6IAyk6J6K6jUP7z0HUfRgG1dOaSxG9DO+N+Ba53pvwC+eIjq9qj9Q1ozAlOENzvQyUi7vXE5HyQNtZK9O3YsKQJYhtMhu7T5/Bro8bI+ZkfMliIEU0lr03At/memPTL1cQd3wV2qeuwagpwdpvqao/cSvpEnYEn0WTKWuxed7bqF3ZkFWeglTOGRpZ14KJykC48t+wZNj7OGwyCTsio3H6f76Q/DgNg+edwjPN5SUY9v5hmEzagcjo0/ifrwQ/ThuMeaeeQezqAmvOEYed0coGK1N+xLEr+Yg/ehjXNGbMw9kjYUixaILmovvYP6Uf/MOk8A08hQs/B2NSrZOY0X8MgnWim6o/byHp0g4En22CKWs3Y97btQ3aTZEcgTPpDdG+o12ZSs236wSvJvdxJiJWd4bBYDBeAPWmBK8N2cdpcmNRqU2e+VR7YAjdUequ1wTZP9BoOyl1XKFVq1CkrqWuRtY0eOcj7XWOgpQztGdvJKUXyx5cp5VvSKjexKOaw8pVEhR0dUVHktr50oEsza0chRSzoDWJ7cZrDwtS6MyevRRZEjhdX/kGSepNpKPqDas1Ch1i6hZwh4qzrUikL9qJSPTGbNofFkZh3N+BXZtowbvNyETqQtMjnhgONyuYBsiMqNfmu7pwFZQSHkCrQqPoMXciK3gAyYx60ea7ulgVKRQesIpCox4TKe9RUF8zqjfhCOVxz6Wu6ULW7TqTh4UXrUzm4iv4lWY6m3FhZ5I8eRV5yexo5D7uuSJyjpG/g4RafRat2XRdo/Yh7kYBxQVr2G55+4aThbQ3BT7UHJYih7YPNCYj7226YwaDwag+r9XIUh4Tjoj0wlJTlio8jDiMX2pyhs30LQwfUAcxPxzgRkVK3Dx4EBfM+mJ4XyvdDYDYsRM61YnFupFvoWObFnB17YplUYVQcvfrpxBJidcA1/boULxQiAdTU5MSZXmxIzp1qoPYdSPxVsc2aOHqiq7LolDIhV2yRzcfJqZmz00LKGO3YdYHH+CDGTMwe9FmnFJ0xZIfI/BVT3PD4Zr1wjg/B5yd5YkOAydhfsBBPHSbhNm+7WHJRWTWaxz8HM5ilmcHDJw0HwEHH8Jt0mz4trfkklMbb73tgT/PnsHlgkyEH0mA5+hVGNUmAUeP3IY89Recy2yNt96qg8LL0YgnN3Tpxj1XhIkXOruLce1SDLRjUw6+CUzVGpwaDNst/8mfyBNxz8h0J4oRwszMGMrsKixjZjAYjEp4rZyloLYNrPnFbkUDv5YNbGp05YwRuo7wgX3sD9ifeB0HDkbDqv9wvM35myKeRc5D737Lkeg8Fl8G78PhI3sww1Oku6ofpYJzqEIRhJVZ/lkk5vXuh+WJzhj7ZTD2HT6CPTM8YTh0HmoP+R+upqUhLTUVN5IvI/KHbzCzR33OXXAYCpdvB5/NvyPh+EoMdipEzLYZ6Nq0Dcbtuqn51sq388Hm3xNwfOVgOBXGYNuMrmjaZhx2aaZO+bB/uydcb/2C0xfDcSS2Ffr288A7/Vsj9kg4kn6OxFWXnujVgCsohQIKLkWiMhnicybhg5TctUpm1Q3ZTSDgg8c5/ooeV6m4Z3k1WkkYDMZ/jNfLWbpMwKJpbWChc5g8oyYYtuQjdKnhXZQlHUfgXcd4HFi3Gvt+t4XPiG4w1l3jxreIPRSGaw5+WLpwBLq4NUVjB2tIy/rwShCisVND0I0EJJZanSmXlyjCy2MPIeyaA/yWLsSILm5o2tgB1lULXC+GwlWmnsDWwAjktBmJ2f8XjPCLcdjhk42dq0OQwDmq1BNbERiRgzYjZ+P/gsNxMW4HfLJ3YnVIguZ5QZO30dMxEWFLduKia1/0sxei4Tv90Pz3A/gi7BLse/SCM+e1xS7N0JgSEXOp1HSAIhGxifmo6+wC8wprpGG7iWrXgYXqCR49Ke8u8/D4cR5k3IsWg8FgvCivlbNUT/f1WXMWsWcPIDRkD07FXMQOX8ea/0mG2APD32uK+OBvcanhuxjhVVonT4A6dnXATz+DsHP3Ic/PROSGudgSXQhFYUnnXTFCtBg8BG73dmDRip9xT65C7rX9WB16CUVPCurYoQ4/HWfCzuG+PB+ZkRswd0s0ChWFxfe8CIbCpbwLCJw5DjPXn8cjbiCmys1A+v18CM2tYMYn5F0IxMxxM7H+/CNupMmlOyMd9/OFMLfSzYsKW6FXt9qIPhGFxtwI1oErFEGjAejnHIn9P8nQtZebRkJJ6OaL8V6PEDp3KU5kyjlH+QBnV36CoLSWGDPOqxL1CMN2E7dshWb8NFy9Ws5K8qtIukFwad1Sd4LBYDBeAN23S0Y5FInLqJ1IRK0XXHpO6Z+yf6NVfRuSjMcjHk9EtTz9aHgHExJ3Wq25XPkCHzV5dCVwODU1FRCfC19k0ZKGeruRpGiBD2XTb6v6UkOZOmweiWp5kt/wDmQi7kSrU7gQNAt8pDQgOFt3P4dmgY+YbMaG6VGZNxAu5VJc0GhyryUmgcSYjLi0WbQYRhsvPdU+nhtHQaPdqZZYQBJjIxKJLKjFsI1UdFlNbvh4qif2oM/jiiymoISlniS2HUNhpe5T3DpMn3avTzKRlExkIi7vXjR9zw0q0F3XLPCRDqDSWTRoN8V1WuVlwpVXTJny0pSjkTstin2uFBkMBqPKMImuF0aBJ7euI0NujcZOdaqtHq/MycC1W7mwdHCGbckcbzGKJ7dwPUMO68ZOqFODAvAGw5Vn4VbKHeRI6sLJ0fq5kZ486xZS7uRAUtcJjtYvM/+tRE7GdaRnG8G+SQNYaD6sGqZyu6mQGTIIbivqY/fv69HdRH0uH+fmeGLA5Sn4/egUzWiXwWAwXgTmLBn/HuSxWN69F8L7/IRTn7UGL3ENenXfjc5hv2Jxuxp842AwGP85mLNk/KtQ3AjBiH5rUPfrtZDOnYyr7x/C9/6umu+lDAaD8aIwZ8n41yG//TsSYAP+fQWaejpUsmiIwWAwqgrw/0QvbdB99PvSAAAAAElFTkSuQmCC;" parent="WIyWlLk6GJQsqaUBKTNV-1" vertex="1">
          <mxGeometry x="800" y="-192" width="369" height="164" as="geometry" />
        </mxCell>
        <mxCell id="0LGMieh8fFYEPsuU7eUb-14" value="Persona" style="swimlane;fontStyle=1;align=center;verticalAlign=top;childLayout=stackLayout;horizontal=1;startSize=26;horizontalStack=0;resizeParent=1;resizeParentMax=0;resizeLast=0;collapsible=1;marginBottom=0;whiteSpace=wrap;html=1;" parent="WIyWlLk6GJQsqaUBKTNV-1" vertex="1">
          <mxGeometry x="860" y="-10" width="200" height="242" as="geometry" />
        </mxCell>
        <mxCell id="0LGMieh8fFYEPsuU7eUb-15" value="+ dni: string" style="text;strokeColor=none;fillColor=none;align=left;verticalAlign=top;spacingLeft=4;spacingRight=4;overflow=hidden;rotatable=0;points=[[0,0.5],[1,0.5]];portConstraint=eastwest;whiteSpace=wrap;html=1;" parent="0LGMieh8fFYEPsuU7eUb-14" vertex="1">
          <mxGeometry y="26" width="200" height="26" as="geometry" />
        </mxCell>
        <mxCell id="0LGMieh8fFYEPsuU7eUb-16" value="+ nombre: string" style="text;strokeColor=none;fillColor=none;align=left;verticalAlign=top;spacingLeft=4;spacingRight=4;overflow=hidden;rotatable=0;points=[[0,0.5],[1,0.5]];portConstraint=eastwest;whiteSpace=wrap;html=1;" parent="0LGMieh8fFYEPsuU7eUb-14" vertex="1">
          <mxGeometry y="52" width="200" height="26" as="geometry" />
        </mxCell>
        <mxCell id="0LGMieh8fFYEPsuU7eUb-17" value="+ apellido: string" style="text;strokeColor=none;fillColor=none;align=left;verticalAlign=top;spacingLeft=4;spacingRight=4;overflow=hidden;rotatable=0;points=[[0,0.5],[1,0.5]];portConstraint=eastwest;whiteSpace=wrap;html=1;" parent="0LGMieh8fFYEPsuU7eUb-14" vertex="1">
          <mxGeometry y="78" width="200" height="26" as="geometry" />
        </mxCell>
        <mxCell id="0LGMieh8fFYEPsuU7eUb-18" value="+ edad: int" style="text;strokeColor=none;fillColor=none;align=left;verticalAlign=top;spacingLeft=4;spacingRight=4;overflow=hidden;rotatable=0;points=[[0,0.5],[1,0.5]];portConstraint=eastwest;whiteSpace=wrap;html=1;" parent="0LGMieh8fFYEPsuU7eUb-14" vertex="1">
          <mxGeometry y="104" width="200" height="26" as="geometry" />
        </mxCell>
        <mxCell id="0LGMieh8fFYEPsuU7eUb-19" value="+ sexo: string" style="text;strokeColor=none;fillColor=none;align=left;verticalAlign=top;spacingLeft=4;spacingRight=4;overflow=hidden;rotatable=0;points=[[0,0.5],[1,0.5]];portConstraint=eastwest;whiteSpace=wrap;html=1;" parent="0LGMieh8fFYEPsuU7eUb-14" vertex="1">
          <mxGeometry y="130" width="200" height="26" as="geometry" />
        </mxCell>
        <mxCell id="0LGMieh8fFYEPsuU7eUb-20" value="" style="line;strokeWidth=1;fillColor=none;align=left;verticalAlign=middle;spacingTop=-1;spacingLeft=3;spacingRight=3;rotatable=0;labelPosition=right;points=[];portConstraint=eastwest;strokeColor=inherit;" parent="0LGMieh8fFYEPsuU7eUb-14" vertex="1">
          <mxGeometry y="156" width="200" height="8" as="geometry" />
        </mxCell>
        <mxCell id="0LGMieh8fFYEPsuU7eUb-21" value="+ saludar(): void" style="text;strokeColor=none;fillColor=none;align=left;verticalAlign=top;spacingLeft=4;spacingRight=4;overflow=hidden;rotatable=0;points=[[0,0.5],[1,0.5]];portConstraint=eastwest;whiteSpace=wrap;html=1;" parent="0LGMieh8fFYEPsuU7eUb-14" vertex="1">
          <mxGeometry y="164" width="200" height="26" as="geometry" />
        </mxCell>
        <mxCell id="0LGMieh8fFYEPsuU7eUb-22" value="+ obtenerNombreYApellido(): void" style="text;strokeColor=none;fillColor=none;align=left;verticalAlign=top;spacingLeft=4;spacingRight=4;overflow=hidden;rotatable=0;points=[[0,0.5],[1,0.5]];portConstraint=eastwest;whiteSpace=wrap;html=1;" parent="0LGMieh8fFYEPsuU7eUb-14" vertex="1">
          <mxGeometry y="190" width="200" height="26" as="geometry" />
        </mxCell>
        <mxCell id="0LGMieh8fFYEPsuU7eUb-23" value="+ modificarEdad(int edad): void" style="text;strokeColor=none;fillColor=none;align=left;verticalAlign=top;spacingLeft=4;spacingRight=4;overflow=hidden;rotatable=0;points=[[0,0.5],[1,0.5]];portConstraint=eastwest;whiteSpace=wrap;html=1;" parent="0LGMieh8fFYEPsuU7eUb-14" vertex="1">
          <mxGeometry y="216" width="200" height="26" as="geometry" />
        </mxCell>
        <mxCell id="0LGMieh8fFYEPsuU7eUb-24" value="Extends" style="endArrow=block;endSize=16;endFill=0;html=1;rounded=0;entryX=0.493;entryY=1.09;entryDx=0;entryDy=0;entryPerimeter=0;" parent="WIyWlLk6GJQsqaUBKTNV-1" edge="1">
          <mxGeometry width="160" relative="1" as="geometry">
            <mxPoint x="959.98" y="290" as="sourcePoint" />
            <mxPoint x="959.5800000000002" y="234.33999999999992" as="targetPoint" />
          </mxGeometry>
        </mxCell>
        <mxCell id="0LGMieh8fFYEPsuU7eUb-25" value="Usuario" style="swimlane;fontStyle=1;align=center;verticalAlign=top;childLayout=stackLayout;horizontal=1;startSize=26;horizontalStack=0;resizeParent=1;resizeParentMax=0;resizeLast=0;collapsible=1;marginBottom=0;whiteSpace=wrap;html=1;" parent="WIyWlLk6GJQsqaUBKTNV-1" vertex="1">
          <mxGeometry x="700" y="290" width="527.5" height="218" as="geometry" />
        </mxCell>
        <mxCell id="0LGMieh8fFYEPsuU7eUb-26" value="+ nombreUsuario: string" style="text;strokeColor=none;fillColor=none;align=left;verticalAlign=top;spacingLeft=4;spacingRight=4;overflow=hidden;rotatable=0;points=[[0,0.5],[1,0.5]];portConstraint=eastwest;whiteSpace=wrap;html=1;" parent="0LGMieh8fFYEPsuU7eUb-25" vertex="1">
          <mxGeometry y="26" width="527.5" height="26" as="geometry" />
        </mxCell>
        <mxCell id="0LGMieh8fFYEPsuU7eUb-27" value="+&amp;nbsp; email: string" style="text;strokeColor=none;fillColor=none;align=left;verticalAlign=top;spacingLeft=4;spacingRight=4;overflow=hidden;rotatable=0;points=[[0,0.5],[1,0.5]];portConstraint=eastwest;whiteSpace=wrap;html=1;" parent="0LGMieh8fFYEPsuU7eUb-25" vertex="1">
          <mxGeometry y="52" width="527.5" height="26" as="geometry" />
        </mxCell>
        <mxCell id="0LGMieh8fFYEPsuU7eUb-28" value="+&amp;nbsp; password: string" style="text;strokeColor=none;fillColor=none;align=left;verticalAlign=top;spacingLeft=4;spacingRight=4;overflow=hidden;rotatable=0;points=[[0,0.5],[1,0.5]];portConstraint=eastwest;whiteSpace=wrap;html=1;" parent="0LGMieh8fFYEPsuU7eUb-25" vertex="1">
          <mxGeometry y="78" width="527.5" height="26" as="geometry" />
        </mxCell>
        <mxCell id="0LGMieh8fFYEPsuU7eUb-31" value="" style="line;strokeWidth=1;fillColor=none;align=left;verticalAlign=middle;spacingTop=-1;spacingLeft=3;spacingRight=3;rotatable=0;labelPosition=right;points=[];portConstraint=eastwest;strokeColor=inherit;" parent="0LGMieh8fFYEPsuU7eUb-25" vertex="1">
          <mxGeometry y="104" width="527.5" height="8" as="geometry" />
        </mxCell>
        <mxCell id="0LGMieh8fFYEPsuU7eUb-32" value="+ registrarse (string nombreUsuario,string email, string pasword): void" style="text;strokeColor=none;fillColor=none;align=left;verticalAlign=top;spacingLeft=4;spacingRight=4;overflow=hidden;rotatable=0;points=[[0,0.5],[1,0.5]];portConstraint=eastwest;whiteSpace=wrap;html=1;" parent="0LGMieh8fFYEPsuU7eUb-25" vertex="1">
          <mxGeometry y="112" width="527.5" height="28" as="geometry" />
        </mxCell>
        <mxCell id="0LGMieh8fFYEPsuU7eUb-33" value="+ iniciarSesion (Lista&amp;lt;Usuario&amp;gt; listaUsuarios,string nombreUsuario, string password): void" style="text;strokeColor=none;fillColor=none;align=left;verticalAlign=top;spacingLeft=4;spacingRight=4;overflow=hidden;rotatable=0;points=[[0,0.5],[1,0.5]];portConstraint=eastwest;whiteSpace=wrap;html=1;" parent="0LGMieh8fFYEPsuU7eUb-25" vertex="1">
          <mxGeometry y="140" width="527.5" height="26" as="geometry" />
        </mxCell>
        <mxCell id="0LGMieh8fFYEPsuU7eUb-35" value="+ existeUsuario (string usuarioOEmail): bool" style="text;strokeColor=none;fillColor=none;align=left;verticalAlign=top;spacingLeft=4;spacingRight=4;overflow=hidden;rotatable=0;points=[[0,0.5],[1,0.5]];portConstraint=eastwest;whiteSpace=wrap;html=1;" parent="0LGMieh8fFYEPsuU7eUb-25" vertex="1">
          <mxGeometry y="166" width="527.5" height="26" as="geometry" />
        </mxCell>
        <mxCell id="0LGMieh8fFYEPsuU7eUb-34" value="+ validarPassword (string password): bool" style="text;strokeColor=none;fillColor=none;align=left;verticalAlign=top;spacingLeft=4;spacingRight=4;overflow=hidden;rotatable=0;points=[[0,0.5],[1,0.5]];portConstraint=eastwest;whiteSpace=wrap;html=1;" parent="0LGMieh8fFYEPsuU7eUb-25" vertex="1">
          <mxGeometry y="192" width="527.5" height="26" as="geometry" />
        </mxCell>
        <mxCell id="Td3s1gOclOyyZpqenIAg-0" value="Persona" style="swimlane;fontStyle=1;align=center;verticalAlign=top;childLayout=stackLayout;horizontal=1;startSize=26;horizontalStack=0;resizeParent=1;resizeParentMax=0;resizeLast=0;collapsible=1;marginBottom=0;whiteSpace=wrap;html=1;" vertex="1" parent="WIyWlLk6GJQsqaUBKTNV-1">
          <mxGeometry x="1480" width="200" height="242" as="geometry" />
        </mxCell>
        <mxCell id="Td3s1gOclOyyZpqenIAg-1" value="+ dni: string" style="text;strokeColor=none;fillColor=none;align=left;verticalAlign=top;spacingLeft=4;spacingRight=4;overflow=hidden;rotatable=0;points=[[0,0.5],[1,0.5]];portConstraint=eastwest;whiteSpace=wrap;html=1;" vertex="1" parent="Td3s1gOclOyyZpqenIAg-0">
          <mxGeometry y="26" width="200" height="26" as="geometry" />
        </mxCell>
        <mxCell id="Td3s1gOclOyyZpqenIAg-2" value="+ nombre: string" style="text;strokeColor=none;fillColor=none;align=left;verticalAlign=top;spacingLeft=4;spacingRight=4;overflow=hidden;rotatable=0;points=[[0,0.5],[1,0.5]];portConstraint=eastwest;whiteSpace=wrap;html=1;" vertex="1" parent="Td3s1gOclOyyZpqenIAg-0">
          <mxGeometry y="52" width="200" height="26" as="geometry" />
        </mxCell>
        <mxCell id="Td3s1gOclOyyZpqenIAg-3" value="+ apellido: string" style="text;strokeColor=none;fillColor=none;align=left;verticalAlign=top;spacingLeft=4;spacingRight=4;overflow=hidden;rotatable=0;points=[[0,0.5],[1,0.5]];portConstraint=eastwest;whiteSpace=wrap;html=1;" vertex="1" parent="Td3s1gOclOyyZpqenIAg-0">
          <mxGeometry y="78" width="200" height="26" as="geometry" />
        </mxCell>
        <mxCell id="Td3s1gOclOyyZpqenIAg-4" value="+ edad: int" style="text;strokeColor=none;fillColor=none;align=left;verticalAlign=top;spacingLeft=4;spacingRight=4;overflow=hidden;rotatable=0;points=[[0,0.5],[1,0.5]];portConstraint=eastwest;whiteSpace=wrap;html=1;" vertex="1" parent="Td3s1gOclOyyZpqenIAg-0">
          <mxGeometry y="104" width="200" height="26" as="geometry" />
        </mxCell>
        <mxCell id="Td3s1gOclOyyZpqenIAg-5" value="+ sexo: string" style="text;strokeColor=none;fillColor=none;align=left;verticalAlign=top;spacingLeft=4;spacingRight=4;overflow=hidden;rotatable=0;points=[[0,0.5],[1,0.5]];portConstraint=eastwest;whiteSpace=wrap;html=1;" vertex="1" parent="Td3s1gOclOyyZpqenIAg-0">
          <mxGeometry y="130" width="200" height="26" as="geometry" />
        </mxCell>
        <mxCell id="Td3s1gOclOyyZpqenIAg-6" value="" style="line;strokeWidth=1;fillColor=none;align=left;verticalAlign=middle;spacingTop=-1;spacingLeft=3;spacingRight=3;rotatable=0;labelPosition=right;points=[];portConstraint=eastwest;strokeColor=inherit;" vertex="1" parent="Td3s1gOclOyyZpqenIAg-0">
          <mxGeometry y="156" width="200" height="8" as="geometry" />
        </mxCell>
        <mxCell id="Td3s1gOclOyyZpqenIAg-7" value="+ saludar(): void" style="text;strokeColor=none;fillColor=none;align=left;verticalAlign=top;spacingLeft=4;spacingRight=4;overflow=hidden;rotatable=0;points=[[0,0.5],[1,0.5]];portConstraint=eastwest;whiteSpace=wrap;html=1;" vertex="1" parent="Td3s1gOclOyyZpqenIAg-0">
          <mxGeometry y="164" width="200" height="26" as="geometry" />
        </mxCell>
        <mxCell id="Td3s1gOclOyyZpqenIAg-8" value="+ obtenerNombreYApellido(): void" style="text;strokeColor=none;fillColor=none;align=left;verticalAlign=top;spacingLeft=4;spacingRight=4;overflow=hidden;rotatable=0;points=[[0,0.5],[1,0.5]];portConstraint=eastwest;whiteSpace=wrap;html=1;" vertex="1" parent="Td3s1gOclOyyZpqenIAg-0">
          <mxGeometry y="190" width="200" height="26" as="geometry" />
        </mxCell>
        <mxCell id="Td3s1gOclOyyZpqenIAg-9" value="+ modificarEdad(int edad): void" style="text;strokeColor=none;fillColor=none;align=left;verticalAlign=top;spacingLeft=4;spacingRight=4;overflow=hidden;rotatable=0;points=[[0,0.5],[1,0.5]];portConstraint=eastwest;whiteSpace=wrap;html=1;" vertex="1" parent="Td3s1gOclOyyZpqenIAg-0">
          <mxGeometry y="216" width="200" height="26" as="geometry" />
        </mxCell>
        <mxCell id="Td3s1gOclOyyZpqenIAg-10" value="Extends" style="endArrow=block;endSize=16;endFill=0;html=1;rounded=0;entryX=0.493;entryY=1.09;entryDx=0;entryDy=0;entryPerimeter=0;" edge="1" parent="WIyWlLk6GJQsqaUBKTNV-1">
          <mxGeometry width="160" relative="1" as="geometry">
            <mxPoint x="1579.98" y="300" as="sourcePoint" />
            <mxPoint x="1579.5800000000002" y="244.33999999999992" as="targetPoint" />
          </mxGeometry>
        </mxCell>
        <mxCell id="Td3s1gOclOyyZpqenIAg-11" value="Usuario" style="swimlane;fontStyle=1;align=center;verticalAlign=top;childLayout=stackLayout;horizontal=1;startSize=26;horizontalStack=0;resizeParent=1;resizeParentMax=0;resizeLast=0;collapsible=1;marginBottom=0;whiteSpace=wrap;html=1;" vertex="1" parent="WIyWlLk6GJQsqaUBKTNV-1">
          <mxGeometry x="1320" y="300" width="527.5" height="218" as="geometry" />
        </mxCell>
        <mxCell id="Td3s1gOclOyyZpqenIAg-12" value="+ nombreUsuario: string" style="text;strokeColor=none;fillColor=none;align=left;verticalAlign=top;spacingLeft=4;spacingRight=4;overflow=hidden;rotatable=0;points=[[0,0.5],[1,0.5]];portConstraint=eastwest;whiteSpace=wrap;html=1;" vertex="1" parent="Td3s1gOclOyyZpqenIAg-11">
          <mxGeometry y="26" width="527.5" height="26" as="geometry" />
        </mxCell>
        <mxCell id="Td3s1gOclOyyZpqenIAg-13" value="+&amp;nbsp; email: string" style="text;strokeColor=none;fillColor=none;align=left;verticalAlign=top;spacingLeft=4;spacingRight=4;overflow=hidden;rotatable=0;points=[[0,0.5],[1,0.5]];portConstraint=eastwest;whiteSpace=wrap;html=1;" vertex="1" parent="Td3s1gOclOyyZpqenIAg-11">
          <mxGeometry y="52" width="527.5" height="26" as="geometry" />
        </mxCell>
        <mxCell id="Td3s1gOclOyyZpqenIAg-14" value="+&amp;nbsp; password: string" style="text;strokeColor=none;fillColor=none;align=left;verticalAlign=top;spacingLeft=4;spacingRight=4;overflow=hidden;rotatable=0;points=[[0,0.5],[1,0.5]];portConstraint=eastwest;whiteSpace=wrap;html=1;" vertex="1" parent="Td3s1gOclOyyZpqenIAg-11">
          <mxGeometry y="78" width="527.5" height="26" as="geometry" />
        </mxCell>
        <mxCell id="Td3s1gOclOyyZpqenIAg-15" value="" style="line;strokeWidth=1;fillColor=none;align=left;verticalAlign=middle;spacingTop=-1;spacingLeft=3;spacingRight=3;rotatable=0;labelPosition=right;points=[];portConstraint=eastwest;strokeColor=inherit;" vertex="1" parent="Td3s1gOclOyyZpqenIAg-11">
          <mxGeometry y="104" width="527.5" height="8" as="geometry" />
        </mxCell>
        <mxCell id="Td3s1gOclOyyZpqenIAg-16" value="+ registrarse (string nombreUsuario,string email, string pasword): void" style="text;strokeColor=none;fillColor=none;align=left;verticalAlign=top;spacingLeft=4;spacingRight=4;overflow=hidden;rotatable=0;points=[[0,0.5],[1,0.5]];portConstraint=eastwest;whiteSpace=wrap;html=1;" vertex="1" parent="Td3s1gOclOyyZpqenIAg-11">
          <mxGeometry y="112" width="527.5" height="28" as="geometry" />
        </mxCell>
        <mxCell id="Td3s1gOclOyyZpqenIAg-17" value="+ iniciarSesion (Lista&amp;lt;Usuario&amp;gt; listaUsuarios,string nombreUsuario, string password): void" style="text;strokeColor=none;fillColor=none;align=left;verticalAlign=top;spacingLeft=4;spacingRight=4;overflow=hidden;rotatable=0;points=[[0,0.5],[1,0.5]];portConstraint=eastwest;whiteSpace=wrap;html=1;" vertex="1" parent="Td3s1gOclOyyZpqenIAg-11">
          <mxGeometry y="140" width="527.5" height="26" as="geometry" />
        </mxCell>
        <mxCell id="Td3s1gOclOyyZpqenIAg-18" value="+ existeUsuario (string usuarioOEmail): bool" style="text;strokeColor=none;fillColor=none;align=left;verticalAlign=top;spacingLeft=4;spacingRight=4;overflow=hidden;rotatable=0;points=[[0,0.5],[1,0.5]];portConstraint=eastwest;whiteSpace=wrap;html=1;" vertex="1" parent="Td3s1gOclOyyZpqenIAg-11">
          <mxGeometry y="166" width="527.5" height="26" as="geometry" />
        </mxCell>
        <mxCell id="Td3s1gOclOyyZpqenIAg-19" value="+ validarPassword (string password): bool" style="text;strokeColor=none;fillColor=none;align=left;verticalAlign=top;spacingLeft=4;spacingRight=4;overflow=hidden;rotatable=0;points=[[0,0.5],[1,0.5]];portConstraint=eastwest;whiteSpace=wrap;html=1;" vertex="1" parent="Td3s1gOclOyyZpqenIAg-11">
          <mxGeometry y="192" width="527.5" height="26" as="geometry" />
        </mxCell>
      </root>
    </mxGraphModel>
  </diagram>
</mxfile>
